  0
SECTION
  2
HEADER
  9
$ACADVER
  1
AC1014
  9
$HANDSEED
  5
FFFF
  9
$MEASUREMENT
 70
     1
  0
ENDSEC
  0
SECTION
  2
TABLES
  0
TABLE
  2
VPORT
  5
8
330
0
100
AcDbSymbolTable
 70
     4
  0
VPORT
  5
2E
330
8
100
AcDbSymbolTableRecord
100
AcDbViewportTableRecord
  2
*ACTIVE
 70
     0
 10
0.0
 20
0.0
 11
1.0
 21
1.0
 12
210.0
 22
148.5
 13
0.0
 23
0.0
 14
10.0
 24
10.0
 15
10.0
 25
10.0
 16
0.0
 26
0.0
 36
1.0
 17
0.0
 27
0.0
 37
0.0
 40
341.0
 41
1.24
 42
50.0
 43
0.0
 44
0.0
 50
0.0
 51
0.0
 71
     0
 72
   100
 73
     1
 74
     3
 75
     0
 76
     0
 77
     0
 78
     0
  0
ENDTAB
  0
TABLE
  2
LTYPE
  5
5
330
0
100
AcDbSymbolTable
 70
     1
  0
LTYPE
  5
14
330
5
100
AcDbSymbolTableRecord
100
AcDbLinetypeTableRecord
  2
BYBLOCK
 70
     0
  3

 72
    65
 73
     0
 40
0.0
  0
LTYPE
  5
15
330
5
100
AcDbSymbolTableRecord
100
AcDbLinetypeTableRecord
  2
BYLAYER
 70
     0
  3

 72
    65
 73
     0
 40
0.0
  0
LTYPE
  5
16
330
5
100
AcDbSymbolTableRecord
100
AcDbLinetypeTableRecord
  2
CONTINUOUS
 70
     0
  3
Solid line
 72
    65
 73
     0
 40
0.0
  0
ENDTAB
  0
TABLE
  2
LAYER
  5
2
100
AcDbSymbolTable
 70
1
  0
LAYER
  5
50
100
AcDbSymbolTableRecord
100
AcDbLayerTableRecord
  2
0
 70
0
  6
CONTINUOUS
  0
ENDTAB
  0
TABLE
  2
STYLE
  5
3
330
0
100
AcDbSymbolTable
 70
     1
  0
STYLE
  5
11
330
3
100
AcDbSymbolTableRecord
100
AcDbTextStyleTableRecord
  2
STANDARD
 70
     0
 40
0.0
 41
1.0
 50
0.0
 71
     0
 42
2.5
  3
txt
  4

  0
ENDTAB
  0
TABLE
  2
VIEW
  5
6
330
0
100
AcDbSymbolTable
 70
     0
  0
ENDTAB
  0
TABLE
  2
UCS
  5
7
330
0
100
AcDbSymbolTable
 70
     0
  0
ENDTAB
  0
TABLE
  2
APPID
  5
9
330
0
100
AcDbSymbolTable
 70
     2
  0
APPID
  5
12
330
9
100
AcDbSymbolTableRecord
100
AcDbRegAppTableRecord
  2
ACAD
 70
     0
  0
ENDTAB
  0
TABLE
  2
DIMSTYLE
  5
A
330
0
100
AcDbSymbolTable
 70
     1
  0
DIMSTYLE
105
27
330
A
100
AcDbSymbolTableRecord
100
AcDbDimStyleTableRecord
  2
ISO-25
 70
     0
  3

  4

  5

  6

  7

 40
1.0
 41
2.5
 42
0.625
 43
3.75
 44
1.25
 45
0.0
 46
0.0
 47
0.0
 48
0.0
140
2.5
141
2.5
142
0.0
143
0.03937007874016
144
1.0
145
0.0
146
1.0
147
0.625
 71
     0
 72
     0
 73
     0
 74
     0
 75
     0
 76
     0
 77
     1
 78
     8
170
     0
171
     3
172
     1
173
     0
174
     0
175
     0
176
     0
177
     0
178
     0
270
     2
271
     2
272
     2
273
     2
274
     3
340
11
275
     0
280
     0
281
     0
282
     0
283
     0
284
     8
285
     0
286
     0
287
     3
288
     0
  0
ENDTAB
  0
TABLE
  2
BLOCK_RECORD
  5
1
330
0
100
AcDbSymbolTable
 70
     1
  0
BLOCK_RECORD
  5
1F
330
1
100
AcDbSymbolTableRecord
100
AcDbBlockTableRecord
  2
*MODEL_SPACE
  0
BLOCK_RECORD
  5
1B
330
1
100
AcDbSymbolTableRecord
100
AcDbBlockTableRecord
  2
*PAPER_SPACE
  0
ENDTAB
  0
ENDSEC
  0
SECTION
  2
BLOCKS
  0
BLOCK
  5
20
330
1F
100
AcDbEntity
  8
0
100
AcDbBlockBegin
  2
*MODEL_SPACE
 70
     0
 10
0.0
 20
0.0
 30
0.0
  3
*MODEL_SPACE
  1

  0
ENDBLK
  5
21
330
1F
100
AcDbEntity
  8
0
100
AcDbBlockEnd
  0
BLOCK
  5
1C
330
1B
100
AcDbEntity
 67
     1
  8
0
100
AcDbBlockBegin
  2
*PAPER_SPACE
  1

  0
ENDBLK
  5
1D
330
1B
100
AcDbEntity
 67
     1
  8
0
100
AcDbBlockEnd
  0
ENDSEC
  0
SECTION
  2
ENTITIES
  0
SPLINE
  5
100
100
AcDbEntity
  8
0
 62
7
100
AcDbSpline
 70
8
 71
3
 72
8
 73
4
 74
0
 40
0
 40
0
 40
0
 40
0
 40
1
 40
1
 40
1
 40
1
 10
3.035542
 20
3.474586
 30
0.0
 10
2.936875
 20
3.675504
 30
0.0
 10
2.836554
 20
3.812756
 30
0.0
 10
2.735130
 20
3.886619
 30
0.0
  0
SPLINE
  5
101
100
AcDbEntity
  8
0
 62
7
100
AcDbSpline
 70
8
 71
3
 72
8
 73
4
 74
0
 40
0
 40
0
 40
0
 40
0
 40
1
 40
1
 40
1
 40
1
 10
2.735130
 20
3.886619
 30
0.0
 10
2.633707
 20
3.960206
 30
0.0
 10
2.498659
 20
3.996862
 30
0.0
 10
2.329987
 20
3.996862
 30
0.0
  0
LWPOLYLINE
  5
102
100
AcDbEntity
  8
0
 62
7
100
AcDbPolyline
 90
2
 70
0
 10
3.525573
 20
2.475508
 30
0.0
 10
3.035542
 20
3.474586
 30
0.0
  0
SPLINE
  5
103
100
AcDbEntity
  8
0
 62
7
100
AcDbSpline
 70
8
 71
3
 72
8
 73
4
 74
0
 40
0
 40
0
 40
0
 40
0
 40
1
 40
1
 40
1
 40
1
 10
2.582995
 20
6.496072
 30
0.0
 10
3.112713
 20
6.496072
 30
0.0
 10
3.501044
 20
6.407051
 30
0.0
 10
3.747713
 20
6.229284
 30
0.0
  0
SPLINE
  5
104
100
AcDbEntity
  8
0
 62
7
100
AcDbSpline
 70
8
 71
3
 72
8
 73
4
 74
0
 40
0
 40
0
 40
0
 40
0
 40
1
 40
1
 40
1
 40
1
 10
3.747713
 20
6.229284
 30
0.0
 10
3.994657
 20
6.051517
 30
0.0
 10
4.118129
 20
5.770673
 30
0.0
 10
4.118129
 20
5.386476
 30
0.0
  0
SPLINE
  5
105
100
AcDbEntity
  8
0
 62
7
100
AcDbSpline
 70
8
 71
3
 72
8
 73
4
 74
0
 40
0
 40
0
 40
0
 40
0
 40
1
 40
1
 40
1
 40
1
 10
4.118129
 20
5.386476
 30
0.0
 10
4.118129
 20
5.120790
 30
0.0
 10
4.053913
 20
4.902509
 30
0.0
 10
3.925480
 20
4.732183
 30
0.0
  0
SPLINE
  5
106
100
AcDbEntity
  8
0
 62
7
100
AcDbSpline
 70
8
 71
3
 72
8
 73
4
 74
0
 40
0
 40
0
 40
0
 40
0
 40
1
 40
1
 40
1
 40
1
 10
3.925480
 20
4.732183
 30
0.0
 10
3.797047
 20
4.561582
 30
0.0
 10
3.603845
 20
4.435905
 30
0.0
 10
3.345326
 20
4.355152
 30
0.0
  0
SPLINE
  5
107
100
AcDbEntity
  8
0
 62
7
100
AcDbSpline
 70
8
 71
3
 72
8
 73
4
 74
0
 40
0
 40
0
 40
0
 40
0
 40
1
 40
1
 40
1
 40
1
 10
3.345326
 20
4.355152
 30
0.0
 10
3.486988
 20
4.322906
 30
0.0
 10
3.614043
 20
4.249594
 30
0.0
 10
3.726215
 20
4.135493
 30
0.0
  0
SPLINE
  5
108
100
AcDbEntity
  8
0
 62
7
100
AcDbSpline
 70
8
 71
3
 72
8
 73
4
 74
0
 40
0
 40
0
 40
0
 40
0
 40
1
 40
1
 40
1
 40
1
 10
3.726215
 20
4.135493
 30
0.0
 10
3.838388
 20
4.021667
 30
0.0
 10
3.951938
 20
3.848861
 30
0.0
 10
4.066866
 20
3.617350
 30
0.0
  0
LWPOLYLINE
  5
109
100
AcDbEntity
  8
0
 62
7
100
AcDbPolyline
 90
6
 70
0
 10
2.329987
 20
3.996862
 30
0.0
 10
2.036465
 20
3.996862
 30
0.0
 10
2.036465
 20
2.475508
 30
0.0
 10
0.999629
 20
2.475508
 30
0.0
 10
0.999629
 20
6.496072
 30
0.0
 10
2.582995
 20
6.496072
 30
0.0
  0
LWPOLYLINE
  5
10a
100
AcDbEntity
  8
0
 62
7
100
AcDbPolyline
 90
3
 70
0
 10
4.066866
 20
3.617350
 30
0.0
 10
4.629657
 20
2.475508
 30
0.0
 10
3.525573
 20
2.475508
 30
0.0
  0
SPLINE
  5
10b
100
AcDbEntity
  8
0
 62
7
100
AcDbSpline
 70
8
 71
3
 72
8
 73
4
 74
0
 40
0
 40
0
 40
0
 40
0
 40
1
 40
1
 40
1
 40
1
 10
5.960015
 20
3.716845
 30
0.0
 10
5.983442
 20
3.490571
 30
0.0
 10
6.065022
 20
3.321072
 30
0.0
 10
6.205030
 20
3.207797
 30
0.0
  0
SPLINE
  5
10c
100
AcDbEntity
  8
0
 62
7
100
AcDbSpline
 70
8
 71
3
 72
8
 73
4
 74
0
 40
0
 40
0
 40
0
 40
0
 40
1
 40
1
 40
1
 40
1
 10
6.205030
 20
3.207797
 30
0.0
 10
6.345039
 20
3.094798
 30
0.0
 10
6.540720
 20
3.038299
 30
0.0
 10
6.792075
 20
3.038299
 30
0.0
  0
SPLINE
  5
10d
100
AcDbEntity
  8
0
 62
7
100
AcDbSpline
 70
8
 71
3
 72
8
 73
4
 74
0
 40
0
 40
0
 40
0
 40
0
 40
1
 40
1
 40
1
 40
1
 10
6.792075
 20
3.038299
 30
0.0
 10
6.994922
 20
3.038299
 30
0.0
 10
7.202730
 20
3.068340
 30
0.0
 10
7.415499
 20
3.128422
 30
0.0
  0
SPLINE
  5
10e
100
AcDbEntity
  8
0
 62
7
100
AcDbSpline
 70
8
 71
3
 72
8
 73
4
 74
0
 40
0
 40
0
 40
0
 40
0
 40
1
 40
1
 40
1
 40
1
 10
7.415499
 20
3.128422
 30
0.0
 10
7.628268
 20
3.188505
 30
0.0
 10
7.846825
 20
3.279731
 30
0.0
 10
8.071170
 20
3.401825
 30
0.0
  0
LWPOLYLINE
  5
10f
100
AcDbEntity
  8
0
 62
7
100
AcDbPolyline
 90
2
 70
0
 10
8.213934
 20
3.716845
 30
0.0
 10
5.960015
 20
3.716845
 30
0.0
  0
SPLINE
  5
110
100
AcDbEntity
  8
0
 62
7
100
AcDbSpline
 70
8
 71
3
 72
8
 73
4
 74
0
 40
0
 40
0
 40
0
 40
0
 40
1
 40
1
 40
1
 40
1
 10
8.071170
 20
2.658513
 30
0.0
 10
7.843242
 20
2.572246
 30
0.0
 10
7.615315
 20
2.507202
 30
0.0
 10
7.387112
 20
2.463381
 30
0.0
  0
SPLINE
  5
111
100
AcDbEntity
  8
0
 62
7
100
AcDbSpline
 70
8
 71
3
 72
8
 73
4
 74
0
 40
0
 40
0
 40
0
 40
0
 40
1
 40
1
 40
1
 40
1
 10
7.387112
 20
2.463381
 30
0.0
 10
7.159184
 20
2.419284
 30
0.0
 10
6.931256
 20
2.397234
 30
0.0
 10
6.703329
 20
2.397234
 30
0.0
  0
SPLINE
  5
112
100
AcDbEntity
  8
0
 62
7
100
AcDbSpline
 70
8
 71
3
 72
8
 73
4
 74
0
 40
0
 40
0
 40
0
 40
0
 40
1
 40
1
 40
1
 40
1
 10
6.703329
 20
2.397234
 30
0.0
 10
6.157350
 20
2.397234
 30
0.0
 10
5.733190
 20
2.536141
 30
0.0
 10
5.430849
 20
2.813403
 30
0.0
  0
SPLINE
  5
113
100
AcDbEntity
  8
0
 62
7
100
AcDbSpline
 70
8
 71
3
 72
8
 73
4
 74
0
 40
0
 40
0
 40
0
 40
0
 40
1
 40
1
 40
1
 40
1
 10
5.430849
 20
2.813403
 30
0.0
 10
5.128231
 20
3.090664
 30
0.0
 10
4.977198
 20
3.479822
 30
0.0
 10
4.977198
 20
3.980877
 30
0.0
  0
SPLINE
  5
114
100
AcDbEntity
  8
0
 62
7
100
AcDbSpline
 70
8
 71
3
 72
8
 73
4
 74
0
 40
0
 40
0
 40
0
 40
0
 40
1
 40
1
 40
1
 40
1
 10
4.977198
 20
3.980877
 30
0.0
 10
4.977198
 20
4.472561
 30
0.0
 10
5.125751
 20
4.859514
 30
0.0
 10
5.422856
 20
5.141461
 30
0.0
  0
SPLINE
  5
115
100
AcDbEntity
  8
0
 62
7
100
AcDbSpline
 70
8
 71
3
 72
8
 73
4
 74
0
 40
0
 40
0
 40
0
 40
0
 40
1
 40
1
 40
1
 40
1
 10
5.422856
 20
5.141461
 30
0.0
 10
5.719961
 20
5.423132
 30
0.0
 10
6.128687
 20
5.564243
 30
0.0
 10
6.649310
 20
5.564243
 30
0.0
  0
SPLINE
  5
116
100
AcDbEntity
  8
0
 62
7
100
AcDbSpline
 70
8
 71
3
 72
8
 73
4
 74
0
 40
0
 40
0
 40
0
 40
0
 40
1
 40
1
 40
1
 40
1
 10
6.649310
 20
5.564243
 30
0.0
 10
7.123355
 20
5.564243
 30
0.0
 10
7.502591
 20
5.421478
 30
0.0
 10
7.787018
 20
5.135948
 30
0.0
  0
SPLINE
  5
117
100
AcDbEntity
  8
0
 62
7
100
AcDbSpline
 70
8
 71
3
 72
8
 73
4
 74
0
 40
0
 40
0
 40
0
 40
0
 40
1
 40
1
 40
1
 40
1
 10
7.787018
 20
5.135948
 30
0.0
 10
8.071721
 20
4.850694
 30
0.0
 10
8.213934
 20
4.468978
 30
0.0
 10
8.213934
 20
3.991625
 30
0.0
  0
LWPOLYLINE
  5
118
100
AcDbEntity
  8
0
 62
7
100
AcDbPolyline
 90
2
 70
0
 10
8.071170
 20
3.401825
 30
0.0
 10
8.071170
 20
2.658513
 30
0.0
  0
SPLINE
  5
119
100
AcDbEntity
  8
0
 62
7
100
AcDbSpline
 70
8
 71
3
 72
8
 73
4
 74
0
 40
0
 40
0
 40
0
 40
0
 40
1
 40
1
 40
1
 40
1
 10
11.822465
 20
2.840412
 30
0.0
 10
11.583513
 20
2.544961
 30
0.0
 10
11.278416
 20
2.397234
 30
0.0
 10
10.906897
 20
2.397234
 30
0.0
  0
SPLINE
  5
11a
100
AcDbEntity
  8
0
 62
7
100
AcDbSpline
 70
8
 71
3
 72
8
 73
4
 74
0
 40
0
 40
0
 40
0
 40
0
 40
1
 40
1
 40
1
 40
1
 10
10.906897
 20
2.397234
 30
0.0
 10
10.696884
 20
2.397234
 30
0.0
 10
10.510849
 20
2.439127
 30
0.0
 10
10.349342
 20
2.522637
 30
0.0
  0
SPLINE
  5
11b
100
AcDbEntity
  8
0
 62
7
100
AcDbSpline
 70
8
 71
3
 72
8
 73
4
 74
0
 40
0
 40
0
 40
0
 40
0
 40
1
 40
1
 40
1
 40
1
 10
10.349342
 20
2.522637
 30
0.0
 10
10.187836
 20
2.606146
 30
0.0
 10
10.040662
 20
2.735682
 30
0.0
 10
9.907819
 20
2.911795
 30
0.0
  0
LWPOLYLINE
  5
11c
100
AcDbEntity
  8
0
 62
7
100
AcDbPolyline
 90
2
 70
0
 10
8.213934
 20
3.991625
 30
0.0
 10
8.213934
 20
3.716845
 30
0.0
  0
SPLINE
  5
11d
100
AcDbEntity
  8
0
 62
7
100
AcDbSpline
 70
8
 71
3
 72
8
 73
4
 74
0
 40
0
 40
0
 40
0
 40
0
 40
1
 40
1
 40
1
 40
1
 10
9.907819
 20
5.049959
 30
0.0
 10
10.040662
 20
5.225796
 30
0.0
 10
10.187836
 20
5.355608
 30
0.0
 10
10.349342
 20
5.439117
 30
0.0
  0
SPLINE
  5
11e
100
AcDbEntity
  8
0
 62
7
100
AcDbSpline
 70
8
 71
3
 72
8
 73
4
 74
0
 40
0
 40
0
 40
0
 40
0
 40
1
 40
1
 40
1
 40
1
 10
10.349342
 20
5.439117
 30
0.0
 10
10.510849
 20
5.522350
 30
0.0
 10
10.696884
 20
5.564243
 30
0.0
 10
10.906897
 20
5.564243
 30
0.0
  0
SPLINE
  5
11f
100
AcDbEntity
  8
0
 62
7
100
AcDbSpline
 70
8
 71
3
 72
8
 73
4
 74
0
 40
0
 40
0
 40
0
 40
0
 40
1
 40
1
 40
1
 40
1
 10
10.906897
 20
5.564243
 30
0.0
 10
11.278416
 20
5.564243
 30
0.0
 10
11.583513
 20
5.416517
 30
0.0
 10
11.822465
 20
5.121341
 30
0.0
  0
SPLINE
  5
120
100
AcDbEntity
  8
0
 62
7
100
AcDbSpline
 70
8
 71
3
 72
8
 73
4
 74
0
 40
0
 40
0
 40
0
 40
0
 40
1
 40
1
 40
1
 40
1
 10
11.822465
 20
5.121341
 30
0.0
 10
12.061141
 20
4.825890
 30
0.0
 10
12.180480
 20
4.445827
 30
0.0
 10
12.180480
 20
3.980877
 30
0.0
  0
SPLINE
  5
121
100
AcDbEntity
  8
0
 62
7
100
AcDbSpline
 70
8
 71
3
 72
8
 73
4
 74
0
 40
0
 40
0
 40
0
 40
0
 40
1
 40
1
 40
1
 40
1
 10
12.180480
 20
3.980877
 30
0.0
 10
12.180480
 20
3.515651
 30
0.0
 10
12.061141
 20
3.135588
 30
0.0
 10
11.822465
 20
2.840412
 30
0.0
  0
LWPOLYLINE
  5
122
100
AcDbEntity
  8
0
 62
7
100
AcDbPolyline
 90
6
 70
0
 10
9.907819
 20
2.911795
 30
0.0
 10
9.907819
 20
1.328154
 30
0.0
 10
8.943744
 20
1.328154
 30
0.0
 10
8.943744
 20
5.491482
 30
0.0
 10
9.907819
 20
5.491482
 30
0.0
 10
9.907819
 20
5.049959
 30
0.0
  0
LWPOLYLINE
  5
123
100
AcDbEntity
  8
0
 62
7
100
AcDbPolyline
 90
2
 70
0
 10
11.822465
 20
2.840412
 30
0.0
 10
11.822465
 20
2.840412
 30
0.0
  0
SPLINE
  5
124
100
AcDbEntity
  8
0
 62
7
100
AcDbSpline
 70
8
 71
3
 72
8
 73
4
 74
0
 40
0
 40
0
 40
0
 40
0
 40
1
 40
1
 40
1
 40
1
 10
14.970456
 20
3.474586
 30
0.0
 10
14.871788
 20
3.675504
 30
0.0
 10
14.771467
 20
3.812756
 30
0.0
 10
14.670043
 20
3.886619
 30
0.0
  0
SPLINE
  5
125
100
AcDbEntity
  8
0
 62
7
100
AcDbSpline
 70
8
 71
3
 72
8
 73
4
 74
0
 40
0
 40
0
 40
0
 40
0
 40
1
 40
1
 40
1
 40
1
 10
14.670043
 20
3.886619
 30
0.0
 10
14.568620
 20
3.960206
 30
0.0
 10
14.433572
 20
3.996862
 30
0.0
 10
14.264900
 20
3.996862
 30
0.0
  0
LWPOLYLINE
  5
126
100
AcDbEntity
  8
0
 62
7
100
AcDbPolyline
 90
2
 70
0
 10
15.460486
 20
2.475508
 30
0.0
 10
14.970456
 20
3.474586
 30
0.0
  0
SPLINE
  5
127
100
AcDbEntity
  8
0
 62
7
100
AcDbSpline
 70
8
 71
3
 72
8
 73
4
 74
0
 40
0
 40
0
 40
0
 40
0
 40
1
 40
1
 40
1
 40
1
 10
14.517908
 20
6.496072
 30
0.0
 10
15.047626
 20
6.496072
 30
0.0
 10
15.435957
 20
6.407051
 30
0.0
 10
15.682626
 20
6.229284
 30
0.0
  0
SPLINE
  5
128
100
AcDbEntity
  8
0
 62
7
100
AcDbSpline
 70
8
 71
3
 72
8
 73
4
 74
0
 40
0
 40
0
 40
0
 40
0
 40
1
 40
1
 40
1
 40
1
 10
15.682626
 20
6.229284
 30
0.0
 10
15.929570
 20
6.051517
 30
0.0
 10
16.053042
 20
5.770673
 30
0.0
 10
16.053042
 20
5.386476
 30
0.0
  0
SPLINE
  5
129
100
AcDbEntity
  8
0
 62
7
100
AcDbSpline
 70
8
 71
3
 72
8
 73
4
 74
0
 40
0
 40
0
 40
0
 40
0
 40
1
 40
1
 40
1
 40
1
 10
16.053042
 20
5.386476
 30
0.0
 10
16.053042
 20
5.120790
 30
0.0
 10
15.988826
 20
4.902509
 30
0.0
 10
15.860393
 20
4.732183
 30
0.0
  0
SPLINE
  5
12a
100
AcDbEntity
  8
0
 62
7
100
AcDbSpline
 70
8
 71
3
 72
8
 73
4
 74
0
 40
0
 40
0
 40
0
 40
0
 40
1
 40
1
 40
1
 40
1
 10
15.860393
 20
4.732183
 30
0.0
 10
15.731960
 20
4.561582
 30
0.0
 10
15.538759
 20
4.435905
 30
0.0
 10
15.280239
 20
4.355152
 30
0.0
  0
SPLINE
  5
12b
100
AcDbEntity
  8
0
 62
7
100
AcDbSpline
 70
8
 71
3
 72
8
 73
4
 74
0
 40
0
 40
0
 40
0
 40
0
 40
1
 40
1
 40
1
 40
1
 10
15.280239
 20
4.355152
 30
0.0
 10
15.421901
 20
4.322906
 30
0.0
 10
15.548956
 20
4.249594
 30
0.0
 10
15.661128
 20
4.135493
 30
0.0
  0
SPLINE
  5
12c
100
AcDbEntity
  8
0
 62
7
100
AcDbSpline
 70
8
 71
3
 72
8
 73
4
 74
0
 40
0
 40
0
 40
0
 40
0
 40
1
 40
1
 40
1
 40
1
 10
15.661128
 20
4.135493
 30
0.0
 10
15.773301
 20
4.021667
 30
0.0
 10
15.886851
 20
3.848861
 30
0.0
 10
16.001780
 20
3.617350
 30
0.0
  0
LWPOLYLINE
  5
12d
100
AcDbEntity
  8
0
 62
7
100
AcDbPolyline
 90
6
 70
0
 10
14.264900
 20
3.996862
 30
0.0
 10
13.971378
 20
3.996862
 30
0.0
 10
13.971378
 20
2.475508
 30
0.0
 10
12.934542
 20
2.475508
 30
0.0
 10
12.934542
 20
6.496072
 30
0.0
 10
14.517908
 20
6.496072
 30
0.0
  0
LWPOLYLINE
  5
12e
100
AcDbEntity
  8
0
 62
7
100
AcDbPolyline
 90
3
 70
0
 10
16.001780
 20
3.617350
 30
0.0
 10
16.564570
 20
2.475508
 30
0.0
 10
15.460486
 20
2.475508
 30
0.0
  0
SPLINE
  5
12f
100
AcDbEntity
  8
0
 62
7
100
AcDbSpline
 70
8
 71
3
 72
8
 73
4
 74
0
 40
0
 40
0
 40
0
 40
0
 40
1
 40
1
 40
1
 40
1
 10
18.991020
 20
2.922543
 30
0.0
 10
18.861760
 20
2.739264
 30
0.0
 10
18.716239
 20
2.606146
 30
0.0
 10
18.554733
 20
2.522637
 30
0.0
  0
SPLINE
  5
130
100
AcDbEntity
  8
0
 62
7
100
AcDbSpline
 70
8
 71
3
 72
8
 73
4
 74
0
 40
0
 40
0
 40
0
 40
0
 40
1
 40
1
 40
1
 40
1
 10
18.554733
 20
2.522637
 30
0.0
 10
18.393227
 20
2.439127
 30
0.0
 10
18.196443
 20
2.397234
 30
0.0
 10
17.964933
 20
2.397234
 30
0.0
  0
SPLINE
  5
131
100
AcDbEntity
  8
0
 62
7
100
AcDbSpline
 70
8
 71
3
 72
8
 73
4
 74
0
 40
0
 40
0
 40
0
 40
0
 40
1
 40
1
 40
1
 40
1
 10
17.964933
 20
2.397234
 30
0.0
 10
17.652669
 20
2.397234
 30
0.0
 10
17.398835
 20
2.488462
 30
0.0
 10
17.204256
 20
2.670637
 30
0.0
  0
SPLINE
  5
132
100
AcDbEntity
  8
0
 62
7
100
AcDbSpline
 70
8
 71
3
 72
8
 73
4
 74
0
 40
0
 40
0
 40
0
 40
0
 40
1
 40
1
 40
1
 40
1
 10
17.204256
 20
2.670637
 30
0.0
 10
17.009401
 20
2.852815
 30
0.0
 10
16.912112
 20
3.089286
 30
0.0
 10
16.912112
 20
3.380328
 30
0.0
  0
SPLINE
  5
133
100
AcDbEntity
  8
0
 62
7
100
AcDbSpline
 70
8
 71
3
 72
8
 73
4
 74
0
 40
0
 40
0
 40
0
 40
0
 40
1
 40
1
 40
1
 40
1
 10
16.912112
 20
3.380328
 30
0.0
 10
16.912112
 20
3.733932
 30
0.0
 10
17.033655
 20
3.993279
 30
0.0
 10
17.277016
 20
4.158644
 30
0.0
  0
SPLINE
  5
134
100
AcDbEntity
  8
0
 62
7
100
AcDbSpline
 70
8
 71
3
 72
8
 73
4
 74
0
 40
0
 40
0
 40
0
 40
0
 40
1
 40
1
 40
1
 40
1
 10
17.277016
 20
4.158644
 30
0.0
 10
17.520102
 20
4.323733
 30
0.0
 10
17.902094
 20
4.406139
 30
0.0
 10
18.422717
 20
4.406139
 30
0.0
  0
LWPOLYLINE
  5
135
100
AcDbEntity
  8
0
 62
7
100
AcDbPolyline
 90
3
 70
0
 10
19.963088
 20
2.475508
 30
0.0
 10
18.991020
 20
2.475508
 30
0.0
 10
18.991020
 20
2.922543
 30
0.0
  0
SPLINE
  5
136
100
AcDbEntity
  8
0
 62
7
100
AcDbSpline
 70
8
 71
3
 72
8
 73
4
 74
0
 40
0
 40
0
 40
0
 40
0
 40
1
 40
1
 40
1
 40
1
 10
18.991020
 20
4.481656
 30
0.0
 10
18.991020
 20
4.634343
 30
0.0
 10
18.930662
 20
4.745963
 30
0.0
 10
18.810497
 20
4.816795
 30
0.0
  0
SPLINE
  5
137
100
AcDbEntity
  8
0
 62
7
100
AcDbSpline
 70
8
 71
3
 72
8
 73
4
 74
0
 40
0
 40
0
 40
0
 40
0
 40
1
 40
1
 40
1
 40
1
 10
18.810497
 20
4.816795
 30
0.0
 10
18.690332
 20
4.887901
 30
0.0
 10
18.502643
 20
4.923179
 30
0.0
 10
18.247706
 20
4.923179
 30
0.0
  0
SPLINE
  5
138
100
AcDbEntity
  8
0
 62
7
100
AcDbSpline
 70
8
 71
3
 72
8
 73
4
 74
0
 40
0
 40
0
 40
0
 40
0
 40
1
 40
1
 40
1
 40
1
 10
18.247706
 20
4.923179
 30
0.0
 10
18.041276
 20
4.923179
 30
0.0
 10
17.849177
 20
4.902509
 30
0.0
 10
17.671411
 20
4.861443
 30
0.0
  0
SPLINE
  5
139
100
AcDbEntity
  8
0
 62
7
100
AcDbSpline
 70
8
 71
3
 72
8
 73
4
 74
0
 40
0
 40
0
 40
0
 40
0
 40
1
 40
1
 40
1
 40
1
 10
17.671411
 20
4.861443
 30
0.0
 10
17.493644
 20
4.820102
 30
0.0
 10
17.328555
 20
4.758090
 30
0.0
 10
17.175868
 20
4.675408
 30
0.0
  0
LWPOLYLINE
  5
13a
100
AcDbEntity
  8
0
 62
7
100
AcDbPolyline
 90
3
 70
0
 10
18.422717
 20
4.406139
 30
0.0
 10
18.991020
 20
4.406139
 30
0.0
 10
18.991020
 20
4.481656
 30
0.0
  0
SPLINE
  5
13b
100
AcDbEntity
  8
0
 62
7
100
AcDbSpline
 70
8
 71
3
 72
8
 73
4
 74
0
 40
0
 40
0
 40
0
 40
0
 40
1
 40
1
 40
1
 40
1
 10
17.175868
 20
5.410729
 30
0.0
 10
17.382298
 20
5.460890
 30
0.0
 10
17.589555
 20
5.499199
 30
0.0
 10
17.797915
 20
5.525106
 30
0.0
  0
SPLINE
  5
13c
100
AcDbEntity
  8
0
 62
7
100
AcDbSpline
 70
8
 71
3
 72
8
 73
4
 74
0
 40
0
 40
0
 40
0
 40
0
 40
1
 40
1
 40
1
 40
1
 10
17.797915
 20
5.525106
 30
0.0
 10
18.006274
 20
5.551288
 30
0.0
 10
18.214358
 20
5.564242
 30
0.0
 10
18.422717
 20
5.564242
 30
0.0
  0
SPLINE
  5
13d
100
AcDbEntity
  8
0
 62
7
100
AcDbSpline
 70
8
 71
3
 72
8
 73
4
 74
0
 40
0
 40
0
 40
0
 40
0
 40
1
 40
1
 40
1
 40
1
 10
18.422717
 20
5.564242
 30
0.0
 10
18.966766
 20
5.564242
 30
0.0
 10
19.359507
 20
5.457031
 30
0.0
 10
19.600940
 20
5.242333
 30
0.0
  0
SPLINE
  5
13e
100
AcDbEntity
  8
0
 62
7
100
AcDbSpline
 70
8
 71
3
 72
8
 73
4
 74
0
 40
0
 40
0
 40
0
 40
0
 40
1
 40
1
 40
1
 40
1
 10
19.600940
 20
5.242333
 30
0.0
 10
19.842372
 20
5.027910
 30
0.0
 10
19.963088
 20
4.678991
 30
0.0
 10
19.963088
 20
4.196126
 30
0.0
  0
LWPOLYLINE
  5
13f
100
AcDbEntity
  8
0
 62
7
100
AcDbPolyline
 90
2
 70
0
 10
17.175868
 20
4.675408
 30
0.0
 10
17.175868
 20
5.410729
 30
0.0
  0
SPLINE
  5
140
100
AcDbEntity
  8
0
 62
7
100
AcDbSpline
 70
8
 71
3
 72
8
 73
4
 74
0
 40
0
 40
0
 40
0
 40
0
 40
1
 40
1
 40
1
 40
1
 10
23.738637
 20
2.840412
 30
0.0
 10
23.499685
 20
2.544961
 30
0.0
 10
23.194588
 20
2.397234
 30
0.0
 10
22.823069
 20
2.397234
 30
0.0
  0
SPLINE
  5
141
100
AcDbEntity
  8
0
 62
7
100
AcDbSpline
 70
8
 71
3
 72
8
 73
4
 74
0
 40
0
 40
0
 40
0
 40
0
 40
1
 40
1
 40
1
 40
1
 10
22.823069
 20
2.397234
 30
0.0
 10
22.613056
 20
2.397234
 30
0.0
 10
22.427020
 20
2.439127
 30
0.0
 10
22.265514
 20
2.522637
 30
0.0
  0
SPLINE
  5
142
100
AcDbEntity
  8
0
 62
7
100
AcDbSpline
 70
8
 71
3
 72
8
 73
4
 74
0
 40
0
 40
0
 40
0
 40
0
 40
1
 40
1
 40
1
 40
1
 10
22.265514
 20
2.522637
 30
0.0
 10
22.104008
 20
2.606146
 30
0.0
 10
21.956834
 20
2.735682
 30
0.0
 10
21.823991
 20
2.911795
 30
0.0
  0
LWPOLYLINE
  5
143
100
AcDbEntity
  8
0
 62
7
100
AcDbPolyline
 90
2
 70
0
 10
19.963088
 20
4.196126
 30
0.0
 10
19.963088
 20
2.475508
 30
0.0
  0
SPLINE
  5
144
100
AcDbEntity
  8
0
 62
7
100
AcDbSpline
 70
8
 71
3
 72
8
 73
4
 74
0
 40
0
 40
0
 40
0
 40
0
 40
1
 40
1
 40
1
 40
1
 10
21.823991
 20
5.049959
 30
0.0
 10
21.956834
 20
5.225796
 30
0.0
 10
22.104008
 20
5.355608
 30
0.0
 10
22.265514
 20
5.439117
 30
0.0
  0
SPLINE
  5
145
100
AcDbEntity
  8
0
 62
7
100
AcDbSpline
 70
8
 71
3
 72
8
 73
4
 74
0
 40
0
 40
0
 40
0
 40
0
 40
1
 40
1
 40
1
 40
1
 10
22.265514
 20
5.439117
 30
0.0
 10
22.427020
 20
5.522350
 30
0.0
 10
22.613056
 20
5.564243
 30
0.0
 10
22.823069
 20
5.564243
 30
0.0
  0
SPLINE
  5
146
100
AcDbEntity
  8
0
 62
7
100
AcDbSpline
 70
8
 71
3
 72
8
 73
4
 74
0
 40
0
 40
0
 40
0
 40
0
 40
1
 40
1
 40
1
 40
1
 10
22.823069
 20
5.564243
 30
0.0
 10
23.194588
 20
5.564243
 30
0.0
 10
23.499685
 20
5.416517
 30
0.0
 10
23.738637
 20
5.121341
 30
0.0
  0
SPLINE
  5
147
100
AcDbEntity
  8
0
 62
7
100
AcDbSpline
 70
8
 71
3
 72
8
 73
4
 74
0
 40
0
 40
0
 40
0
 40
0
 40
1
 40
1
 40
1
 40
1
 10
23.738637
 20
5.121341
 30
0.0
 10
23.977313
 20
4.825890
 30
0.0
 10
24.096651
 20
4.445827
 30
0.0
 10
24.096651
 20
3.980877
 30
0.0
  0
SPLINE
  5
148
100
AcDbEntity
  8
0
 62
7
100
AcDbSpline
 70
8
 71
3
 72
8
 73
4
 74
0
 40
0
 40
0
 40
0
 40
0
 40
1
 40
1
 40
1
 40
1
 10
24.096651
 20
3.980877
 30
0.0
 10
24.096651
 20
3.515651
 30
0.0
 10
23.977313
 20
3.135588
 30
0.0
 10
23.738637
 20
2.840412
 30
0.0
  0
LWPOLYLINE
  5
149
100
AcDbEntity
  8
0
 62
7
100
AcDbPolyline
 90
6
 70
0
 10
21.823991
 20
2.911795
 30
0.0
 10
21.823991
 20
1.328154
 30
0.0
 10
20.859915
 20
1.328154
 30
0.0
 10
20.859915
 20
5.491482
 30
0.0
 10
21.823991
 20
5.491482
 30
0.0
 10
21.823991
 20
5.049959
 30
0.0
  0
SPLINE
  5
14a
100
AcDbEntity
  8
0
 62
7
100
AcDbSpline
 70
8
 71
3
 72
8
 73
4
 74
0
 40
0
 40
0
 40
0
 40
0
 40
1
 40
1
 40
1
 40
1
 10
10.548607
 20
4.863924
 30
0.0
 10
10.342177
 20
4.863924
 30
0.0
 10
10.183702
 20
4.788132
 30
0.0
 10
10.073459
 20
4.636547
 30
0.0
  0
SPLINE
  5
14b
100
AcDbEntity
  8
0
 62
7
100
AcDbSpline
 70
8
 71
3
 72
8
 73
4
 74
0
 40
0
 40
0
 40
0
 40
0
 40
1
 40
1
 40
1
 40
1
 10
10.073459
 20
4.636547
 30
0.0
 10
9.962941
 20
4.484687
 30
0.0
 10
9.907819
 20
4.266131
 30
0.0
 10
9.907819
 20
3.980877
 30
0.0
  0
SPLINE
  5
14c
100
AcDbEntity
  8
0
 62
7
100
AcDbSpline
 70
8
 71
3
 72
8
 73
4
 74
0
 40
0
 40
0
 40
0
 40
0
 40
1
 40
1
 40
1
 40
1
 10
9.907819
 20
3.980877
 30
0.0
 10
9.907819
 20
3.695347
 30
0.0
 10
9.962941
 20
3.476790
 30
0.0
 10
10.073459
 20
3.324931
 30
0.0
  0
SPLINE
  5
14d
100
AcDbEntity
  8
0
 62
7
100
AcDbSpline
 70
8
 71
3
 72
8
 73
4
 74
0
 40
0
 40
0
 40
0
 40
0
 40
1
 40
1
 40
1
 40
1
 10
10.073459
 20
3.324931
 30
0.0
 10
10.183702
 20
3.173346
 30
0.0
 10
10.342177
 20
3.097554
 30
0.0
 10
10.548607
 20
3.097554
 30
0.0
  0
SPLINE
  5
14e
100
AcDbEntity
  8
0
 62
7
100
AcDbSpline
 70
8
 71
3
 72
8
 73
4
 74
0
 40
0
 40
0
 40
0
 40
0
 40
1
 40
1
 40
1
 40
1
 10
10.548607
 20
3.097554
 30
0.0
 10
10.755037
 20
3.097554
 30
0.0
 10
10.912684
 20
3.172795
 30
0.0
 10
11.021274
 20
3.323828
 30
0.0
  0
SPLINE
  5
14f
100
AcDbEntity
  8
0
 62
7
100
AcDbSpline
 70
8
 71
3
 72
8
 73
4
 74
0
 40
0
 40
0
 40
0
 40
0
 40
1
 40
1
 40
1
 40
1
 10
11.021274
 20
3.323828
 30
0.0
 10
11.129863
 20
3.474585
 30
0.0
 10
11.184158
 20
3.693418
 30
0.0
 10
11.184158
 20
3.980877
 30
0.0
  0
SPLINE
  5
150
100
AcDbEntity
  8
0
 62
7
100
AcDbSpline
 70
8
 71
3
 72
8
 73
4
 74
0
 40
0
 40
0
 40
0
 40
0
 40
1
 40
1
 40
1
 40
1
 10
11.184158
 20
3.980877
 30
0.0
 10
11.184158
 20
4.268060
 30
0.0
 10
11.129863
 20
4.487168
 30
0.0
 10
11.021274
 20
4.637925
 30
0.0
  0
SPLINE
  5
151
100
AcDbEntity
  8
0
 62
7
100
AcDbSpline
 70
8
 71
3
 72
8
 73
4
 74
0
 40
0
 40
0
 40
0
 40
0
 40
1
 40
1
 40
1
 40
1
 10
11.021274
 20
4.637925
 30
0.0
 10
10.912684
 20
4.788683
 30
0.0
 10
10.755037
 20
4.863924
 30
0.0
 10
10.548607
 20
4.863924
 30
0.0
  0
LWPOLYLINE
  5
152
100
AcDbEntity
  8
0
 62
7
100
AcDbPolyline
 90
2
 70
0
 10
23.738637
 20
2.840412
 30
0.0
 10
23.738637
 20
2.840412
 30
0.0
  0
LWPOLYLINE
  5
153
100
AcDbEntity
  8
0
 62
7
100
AcDbPolyline
 90
2
 70
0
 10
10.548607
 20
4.863924
 30
0.0
 10
10.548607
 20
4.863924
 30
0.0
  0
SPLINE
  5
154
100
AcDbEntity
  8
0
 62
7
100
AcDbSpline
 70
8
 71
3
 72
8
 73
4
 74
0
 40
0
 40
0
 40
0
 40
0
 40
1
 40
1
 40
1
 40
1
 10
14.407665
 20
4.713166
 30
0.0
 10
14.624844
 20
4.713166
 30
0.0
 10
14.780562
 20
4.753681
 30
0.0
 10
14.874820
 20
4.834434
 30
0.0
  0
SPLINE
  5
155
100
AcDbEntity
  8
0
 62
7
100
AcDbSpline
 70
8
 71
3
 72
8
 73
4
 74
0
 40
0
 40
0
 40
0
 40
0
 40
1
 40
1
 40
1
 40
1
 10
14.874820
 20
4.834434
 30
0.0
 10
14.969078
 20
4.915187
 30
0.0
 10
15.016207
 20
5.048029
 30
0.0
 10
15.016207
 20
5.232962
 30
0.0
  0
SPLINE
  5
156
100
AcDbEntity
  8
0
 62
7
100
AcDbSpline
 70
8
 71
3
 72
8
 73
4
 74
0
 40
0
 40
0
 40
0
 40
0
 40
1
 40
1
 40
1
 40
1
 10
15.016207
 20
5.232962
 30
0.0
 10
15.016207
 20
5.415966
 30
0.0
 10
14.969078
 20
5.547155
 30
0.0
 10
14.874820
 20
5.626254
 30
0.0
  0
SPLINE
  5
157
100
AcDbEntity
  8
0
 62
7
100
AcDbSpline
 70
8
 71
3
 72
8
 73
4
 74
0
 40
0
 40
0
 40
0
 40
0
 40
1
 40
1
 40
1
 40
1
 10
14.874820
 20
5.626254
 30
0.0
 10
14.780562
 20
5.705078
 30
0.0
 10
14.624844
 20
5.744766
 30
0.0
 10
14.407665
 20
5.744766
 30
0.0
  0
LWPOLYLINE
  5
158
100
AcDbEntity
  8
0
 62
7
100
AcDbPolyline
 90
4
 70
0
 10
14.407665
 20
5.744766
 30
0.0
 10
13.971378
 20
5.744766
 30
0.0
 10
13.971378
 20
4.713166
 30
0.0
 10
14.407665
 20
4.713166
 30
0.0
  0
LWPOLYLINE
  5
159
100
AcDbEntity
  8
0
 62
7
100
AcDbPolyline
 90
2
 70
0
 10
14.407665
 20
5.744766
 30
0.0
 10
14.407665
 20
5.744766
 30
0.0
  0
SPLINE
  5
15a
100
AcDbEntity
  8
0
 62
7
100
AcDbSpline
 70
8
 71
3
 72
8
 73
4
 74
0
 40
0
 40
0
 40
0
 40
0
 40
1
 40
1
 40
1
 40
1
 10
2.472752
 20
4.713166
 30
0.0
 10
2.689931
 20
4.713166
 30
0.0
 10
2.845649
 20
4.753681
 30
0.0
 10
2.939907
 20
4.834434
 30
0.0
  0
SPLINE
  5
15b
100
AcDbEntity
  8
0
 62
7
100
AcDbSpline
 70
8
 71
3
 72
8
 73
4
 74
0
 40
0
 40
0
 40
0
 40
0
 40
1
 40
1
 40
1
 40
1
 10
2.939907
 20
4.834434
 30
0.0
 10
3.034164
 20
4.915187
 30
0.0
 10
3.081293
 20
5.048029
 30
0.0
 10
3.081293
 20
5.232962
 30
0.0
  0
SPLINE
  5
15c
100
AcDbEntity
  8
0
 62
7
100
AcDbSpline
 70
8
 71
3
 72
8
 73
4
 74
0
 40
0
 40
0
 40
0
 40
0
 40
1
 40
1
 40
1
 40
1
 10
3.081293
 20
5.232962
 30
0.0
 10
3.081293
 20
5.415966
 30
0.0
 10
3.034164
 20
5.547155
 30
0.0
 10
2.939907
 20
5.626254
 30
0.0
  0
SPLINE
  5
15d
100
AcDbEntity
  8
0
 62
7
100
AcDbSpline
 70
8
 71
3
 72
8
 73
4
 74
0
 40
0
 40
0
 40
0
 40
0
 40
1
 40
1
 40
1
 40
1
 10
2.939907
 20
5.626254
 30
0.0
 10
2.845649
 20
5.705078
 30
0.0
 10
2.689931
 20
5.744766
 30
0.0
 10
2.472752
 20
5.744766
 30
0.0
  0
LWPOLYLINE
  5
15e
100
AcDbEntity
  8
0
 62
7
100
AcDbPolyline
 90
4
 70
0
 10
2.472752
 20
5.744766
 30
0.0
 10
2.036465
 20
5.744766
 30
0.0
 10
2.036465
 20
4.713166
 30
0.0
 10
2.472752
 20
4.713166
 30
0.0
  0
SPLINE
  5
15f
100
AcDbEntity
  8
0
 62
7
100
AcDbSpline
 70
8
 71
3
 72
8
 73
4
 74
0
 40
0
 40
0
 40
0
 40
0
 40
1
 40
1
 40
1
 40
1
 10
6.644073
 20
4.923179
 30
0.0
 10
6.457211
 20
4.923179
 30
0.0
 10
6.305627
 20
4.870814
 30
0.0
 10
6.188770
 20
4.765807
 30
0.0
  0
SPLINE
  5
160
100
AcDbEntity
  8
0
 62
7
100
AcDbSpline
 70
8
 71
3
 72
8
 73
4
 74
0
 40
0
 40
0
 40
0
 40
0
 40
1
 40
1
 40
1
 40
1
 10
6.188770
 20
4.765807
 30
0.0
 10
6.072188
 20
4.660801
 30
0.0
 10
5.999427
 20
4.509492
 30
0.0
 10
5.970764
 20
4.311882
 30
0.0
  0
LWPOLYLINE
  5
161
100
AcDbEntity
  8
0
 62
7
100
AcDbPolyline
 90
2
 70
0
 10
2.472752
 20
5.744766
 30
0.0
 10
2.472752
 20
5.744766
 30
0.0
  0
SPLINE
  5
162
100
AcDbEntity
  8
0
 62
7
100
AcDbSpline
 70
8
 71
3
 72
8
 73
4
 74
0
 40
0
 40
0
 40
0
 40
0
 40
1
 40
1
 40
1
 40
1
 10
7.222849
 20
4.311882
 30
0.0
 10
7.222849
 20
4.495161
 30
0.0
 10
7.169657
 20
4.642886
 30
0.0
 10
7.062721
 20
4.755059
 30
0.0
  0
SPLINE
  5
163
100
AcDbEntity
  8
0
 62
7
100
AcDbSpline
 70
8
 71
3
 72
8
 73
4
 74
0
 40
0
 40
0
 40
0
 40
0
 40
1
 40
1
 40
1
 40
1
 10
7.062721
 20
4.755059
 30
0.0
 10
6.955786
 20
4.867231
 30
0.0
 10
6.816328
 20
4.923179
 30
0.0
 10
6.644073
 20
4.923179
 30
0.0
  0
LWPOLYLINE
  5
164
100
AcDbEntity
  8
0
 62
7
100
AcDbPolyline
 90
2
 70
0
 10
5.970764
 20
4.311882
 30
0.0
 10
7.222849
 20
4.311882
 30
0.0
  0
SPLINE
  5
165
100
AcDbEntity
  8
0
 62
7
100
AcDbSpline
 70
8
 71
3
 72
8
 73
4
 74
0
 40
0
 40
0
 40
0
 40
0
 40
1
 40
1
 40
1
 40
1
 10
18.036315
 20
3.730349
 30
0.0
 10
17.934891
 20
3.661999
 30
0.0
 10
17.884180
 20
3.561677
 30
0.0
 10
17.884180
 20
3.428835
 30
0.0
  0
SPLINE
  5
166
100
AcDbEntity
  8
0
 62
7
100
AcDbSpline
 70
8
 71
3
 72
8
 73
4
 74
0
 40
0
 40
0
 40
0
 40
0
 40
1
 40
1
 40
1
 40
1
 10
17.884180
 20
3.428835
 30
0.0
 10
17.884180
 20
3.306740
 30
0.0
 10
17.924970
 20
3.211105
 30
0.0
 10
18.006549
 20
3.141927
 30
0.0
  0
SPLINE
  5
167
100
AcDbEntity
  8
0
 62
7
100
AcDbSpline
 70
8
 71
3
 72
8
 73
4
 74
0
 40
0
 40
0
 40
0
 40
0
 40
1
 40
1
 40
1
 40
1
 10
18.006549
 20
3.141927
 30
0.0
 10
18.088405
 20
3.072750
 30
0.0
 10
18.201955
 20
3.038299
 30
0.0
 10
18.347201
 20
3.038299
 30
0.0
  0
SPLINE
  5
168
100
AcDbEntity
  8
0
 62
7
100
AcDbSpline
 70
8
 71
3
 72
8
 73
4
 74
0
 40
0
 40
0
 40
0
 40
0
 40
1
 40
1
 40
1
 40
1
 10
18.347201
 20
3.038299
 30
0.0
 10
18.528550
 20
3.038299
 30
0.0
 10
18.681237
 20
3.103342
 30
0.0
 10
18.804985
 20
3.233429
 30
0.0
  0
SPLINE
  5
169
100
AcDbEntity
  8
0
 62
7
100
AcDbSpline
 70
8
 71
3
 72
8
 73
4
 74
0
 40
0
 40
0
 40
0
 40
0
 40
1
 40
1
 40
1
 40
1
 10
18.804985
 20
3.233429
 30
0.0
 10
18.929008
 20
3.363516
 30
0.0
 10
18.991020
 20
3.526675
 30
0.0
 10
18.991020
 20
3.722357
 30
0.0
  0
LWPOLYLINE
  5
16a
100
AcDbEntity
  8
0
 62
7
100
AcDbPolyline
 90
2
 70
0
 10
6.644073
 20
4.923179
 30
0.0
 10
6.644073
 20
4.923179
 30
0.0
  0
SPLINE
  5
16b
100
AcDbEntity
  8
0
 62
7
100
AcDbSpline
 70
8
 71
3
 72
8
 73
4
 74
0
 40
0
 40
0
 40
0
 40
0
 40
1
 40
1
 40
1
 40
1
 10
18.489965
 20
3.832600
 30
0.0
 10
18.289047
 20
3.832600
 30
0.0
 10
18.137739
 20
3.798424
 30
0.0
 10
18.036315
 20
3.730349
 30
0.0
  0
LWPOLYLINE
  5
16c
100
AcDbEntity
  8
0
 62
7
100
AcDbPolyline
 90
3
 70
0
 10
18.991020
 20
3.722357
 30
0.0
 10
18.991020
 20
3.832600
 30
0.0
 10
18.489965
 20
3.832600
 30
0.0
  0
SPLINE
  5
16d
100
AcDbEntity
  8
0
 62
7
100
AcDbSpline
 70
8
 71
3
 72
8
 73
4
 74
0
 40
0
 40
0
 40
0
 40
0
 40
1
 40
1
 40
1
 40
1
 10
22.464779
 20
4.863924
 30
0.0
 10
22.258349
 20
4.863924
 30
0.0
 10
22.099874
 20
4.788132
 30
0.0
 10
21.989631
 20
4.636547
 30
0.0
  0
SPLINE
  5
16e
100
AcDbEntity
  8
0
 62
7
100
AcDbSpline
 70
8
 71
3
 72
8
 73
4
 74
0
 40
0
 40
0
 40
0
 40
0
 40
1
 40
1
 40
1
 40
1
 10
21.989631
 20
4.636547
 30
0.0
 10
21.879112
 20
4.484687
 30
0.0
 10
21.823991
 20
4.266131
 30
0.0
 10
21.823991
 20
3.980877
 30
0.0
  0
SPLINE
  5
16f
100
AcDbEntity
  8
0
 62
7
100
AcDbSpline
 70
8
 71
3
 72
8
 73
4
 74
0
 40
0
 40
0
 40
0
 40
0
 40
1
 40
1
 40
1
 40
1
 10
21.823991
 20
3.980877
 30
0.0
 10
21.823991
 20
3.695347
 30
0.0
 10
21.879112
 20
3.476790
 30
0.0
 10
21.989631
 20
3.324931
 30
0.0
  0
SPLINE
  5
170
100
AcDbEntity
  8
0
 62
7
100
AcDbSpline
 70
8
 71
3
 72
8
 73
4
 74
0
 40
0
 40
0
 40
0
 40
0
 40
1
 40
1
 40
1
 40
1
 10
21.989631
 20
3.324931
 30
0.0
 10
22.099874
 20
3.173346
 30
0.0
 10
22.258349
 20
3.097554
 30
0.0
 10
22.464779
 20
3.097554
 30
0.0
  0
SPLINE
  5
171
100
AcDbEntity
  8
0
 62
7
100
AcDbSpline
 70
8
 71
3
 72
8
 73
4
 74
0
 40
0
 40
0
 40
0
 40
0
 40
1
 40
1
 40
1
 40
1
 10
22.464779
 20
3.097554
 30
0.0
 10
22.671209
 20
3.097554
 30
0.0
 10
22.828856
 20
3.172795
 30
0.0
 10
22.937446
 20
3.323828
 30
0.0
  0
SPLINE
  5
172
100
AcDbEntity
  8
0
 62
7
100
AcDbSpline
 70
8
 71
3
 72
8
 73
4
 74
0
 40
0
 40
0
 40
0
 40
0
 40
1
 40
1
 40
1
 40
1
 10
22.937446
 20
3.323828
 30
0.0
 10
23.046035
 20
3.474585
 30
0.0
 10
23.100330
 20
3.693418
 30
0.0
 10
23.100330
 20
3.980877
 30
0.0
  0
SPLINE
  5
173
100
AcDbEntity
  8
0
 62
7
100
AcDbSpline
 70
8
 71
3
 72
8
 73
4
 74
0
 40
0
 40
0
 40
0
 40
0
 40
1
 40
1
 40
1
 40
1
 10
23.100330
 20
3.980877
 30
0.0
 10
23.100330
 20
4.268060
 30
0.0
 10
23.046035
 20
4.487168
 30
0.0
 10
22.937446
 20
4.637925
 30
0.0
  0
SPLINE
  5
174
100
AcDbEntity
  8
0
 62
7
100
AcDbSpline
 70
8
 71
3
 72
8
 73
4
 74
0
 40
0
 40
0
 40
0
 40
0
 40
1
 40
1
 40
1
 40
1
 10
22.937446
 20
4.637925
 30
0.0
 10
22.828856
 20
4.788683
 30
0.0
 10
22.671209
 20
4.863924
 30
0.0
 10
22.464779
 20
4.863924
 30
0.0
  0
LWPOLYLINE
  5
175
100
AcDbEntity
  8
0
 62
7
100
AcDbPolyline
 90
2
 70
0
 10
18.036315
 20
3.730349
 30
0.0
 10
18.036315
 20
3.730349
 30
0.0
  0
LWPOLYLINE
  5
176
100
AcDbEntity
  8
0
 62
7
100
AcDbPolyline
 90
2
 70
0
 10
22.464779
 20
4.863924
 30
0.0
 10
22.464779
 20
4.863924
 30
0.0
  0
ENDSEC
  0
SECTION
  2
OBJECTS
  0
DICTIONARY
  5
C
330
0
100
AcDbDictionary
  3
ACAD_GROUP
350
D
  3
ACAD_MLINESTYLE
350
17
  0
DICTIONARY
  5
D
330
C
100
AcDbDictionary
  0
DICTIONARY
  5
1A
330
C
100
AcDbDictionary
  0
DICTIONARY
  5
17
330
C
100
AcDbDictionary
  3
STANDARD
350
18
  0
DICTIONARY
  5
19
330
C
100
AcDbDictionary
  0
ENDSEC
  0
EOF
