  0
SECTION
  2
HEADER
  9
$ACADVER
  1
AC1014
  9
$HANDSEED
  5
FFFF
  9
$MEASUREMENT
 70
     1
  0
ENDSEC
  0
SECTION
  2
TABLES
  0
TABLE
  2
VPORT
  5
8
330
0
100
AcDbSymbolTable
 70
     4
  0
VPORT
  5
2E
330
8
100
AcDbSymbolTableRecord
100
AcDbViewportTableRecord
  2
*ACTIVE
 70
     0
 10
0.0
 20
0.0
 11
1.0
 21
1.0
 12
210.0
 22
148.5
 13
0.0
 23
0.0
 14
10.0
 24
10.0
 15
10.0
 25
10.0
 16
0.0
 26
0.0
 36
1.0
 17
0.0
 27
0.0
 37
0.0
 40
341.0
 41
1.24
 42
50.0
 43
0.0
 44
0.0
 50
0.0
 51
0.0
 71
     0
 72
   100
 73
     1
 74
     3
 75
     0
 76
     0
 77
     0
 78
     0
  0
ENDTAB
  0
TABLE
  2
LTYPE
  5
5
330
0
100
AcDbSymbolTable
 70
     1
  0
LTYPE
  5
14
330
5
100
AcDbSymbolTableRecord
100
AcDbLinetypeTableRecord
  2
BYBLOCK
 70
     0
  3

 72
    65
 73
     0
 40
0.0
  0
LTYPE
  5
15
330
5
100
AcDbSymbolTableRecord
100
AcDbLinetypeTableRecord
  2
BYLAYER
 70
     0
  3

 72
    65
 73
     0
 40
0.0
  0
LTYPE
  5
16
330
5
100
AcDbSymbolTableRecord
100
AcDbLinetypeTableRecord
  2
CONTINUOUS
 70
     0
  3
Solid line
 72
    65
 73
     0
 40
0.0
  0
ENDTAB
  0
TABLE
  2
LAYER
  5
2
100
AcDbSymbolTable
 70
2
  0
LAYER
  5
50
100
AcDbSymbolTableRecord
100
AcDbLayerTableRecord
  2
0
 70
0
  6
CONTINUOUS
  0
LAYER
  5
51
100
AcDbSymbolTableRecord
100
AcDbLayerTableRecord
  2
Base
 70
0
  6
CONTINUOUS
  0
ENDTAB
  0
TABLE
  2
STYLE
  5
3
330
0
100
AcDbSymbolTable
 70
     1
  0
STYLE
  5
11
330
3
100
AcDbSymbolTableRecord
100
AcDbTextStyleTableRecord
  2
STANDARD
 70
     0
 40
0.0
 41
1.0
 50
0.0
 71
     0
 42
2.5
  3
txt
  4

  0
ENDTAB
  0
TABLE
  2
VIEW
  5
6
330
0
100
AcDbSymbolTable
 70
     0
  0
ENDTAB
  0
TABLE
  2
UCS
  5
7
330
0
100
AcDbSymbolTable
 70
     0
  0
ENDTAB
  0
TABLE
  2
APPID
  5
9
330
0
100
AcDbSymbolTable
 70
     2
  0
APPID
  5
12
330
9
100
AcDbSymbolTableRecord
100
AcDbRegAppTableRecord
  2
ACAD
 70
     0
  0
ENDTAB
  0
TABLE
  2
DIMSTYLE
  5
A
330
0
100
AcDbSymbolTable
 70
     1
  0
DIMSTYLE
105
27
330
A
100
AcDbSymbolTableRecord
100
AcDbDimStyleTableRecord
  2
ISO-25
 70
     0
  3

  4

  5

  6

  7

 40
1.0
 41
2.5
 42
0.625
 43
3.75
 44
1.25
 45
0.0
 46
0.0
 47
0.0
 48
0.0
140
2.5
141
2.5
142
0.0
143
0.03937007874016
144
1.0
145
0.0
146
1.0
147
0.625
 71
     0
 72
     0
 73
     0
 74
     0
 75
     0
 76
     0
 77
     1
 78
     8
170
     0
171
     3
172
     1
173
     0
174
     0
175
     0
176
     0
177
     0
178
     0
270
     2
271
     2
272
     2
273
     2
274
     3
340
11
275
     0
280
     0
281
     0
282
     0
283
     0
284
     8
285
     0
286
     0
287
     3
288
     0
  0
ENDTAB
  0
TABLE
  2
BLOCK_RECORD
  5
1
330
0
100
AcDbSymbolTable
 70
     1
  0
BLOCK_RECORD
  5
1F
330
1
100
AcDbSymbolTableRecord
100
AcDbBlockTableRecord
  2
*MODEL_SPACE
  0
BLOCK_RECORD
  5
1B
330
1
100
AcDbSymbolTableRecord
100
AcDbBlockTableRecord
  2
*PAPER_SPACE
  0
ENDTAB
  0
ENDSEC
  0
SECTION
  2
BLOCKS
  0
BLOCK
  5
20
330
1F
100
AcDbEntity
  8
0
100
AcDbBlockBegin
  2
*MODEL_SPACE
 70
     0
 10
0.0
 20
0.0
 30
0.0
  3
*MODEL_SPACE
  1

  0
ENDBLK
  5
21
330
1F
100
AcDbEntity
  8
0
100
AcDbBlockEnd
  0
BLOCK
  5
1C
330
1B
100
AcDbEntity
 67
     1
  8
0
100
AcDbBlockBegin
  2
*PAPER_SPACE
  1

  0
ENDBLK
  5
1D
330
1B
100
AcDbEntity
 67
     1
  8
0
100
AcDbBlockEnd
  0
ENDSEC
  0
SECTION
  2
ENTITIES
  0
SPLINE
  5
100
100
AcDbEntity
  8
0
 62
7
100
AcDbSpline
 70
8
 71
3
 72
8
 73
4
 74
0
 40
0
 40
0
 40
0
 40
0
 40
1
 40
1
 40
1
 40
1
 10
10.548607
 20
4.863924
 30
0.0
 10
10.342177
 20
4.863924
 30
0.0
 10
10.183702
 20
4.788132
 30
0.0
 10
10.073459
 20
4.636547
 30
0.0
  0
SPLINE
  5
101
100
AcDbEntity
  8
0
 62
7
100
AcDbSpline
 70
8
 71
3
 72
8
 73
4
 74
0
 40
0
 40
0
 40
0
 40
0
 40
1
 40
1
 40
1
 40
1
 10
10.073459
 20
4.636547
 30
0.0
 10
9.962941
 20
4.484687
 30
0.0
 10
9.907819
 20
4.266131
 30
0.0
 10
9.907819
 20
3.980877
 30
0.0
  0
SPLINE
  5
102
100
AcDbEntity
  8
0
 62
7
100
AcDbSpline
 70
8
 71
3
 72
8
 73
4
 74
0
 40
0
 40
0
 40
0
 40
0
 40
1
 40
1
 40
1
 40
1
 10
9.907819
 20
3.980877
 30
0.0
 10
9.907819
 20
3.695347
 30
0.0
 10
9.962941
 20
3.476790
 30
0.0
 10
10.073459
 20
3.324931
 30
0.0
  0
SPLINE
  5
103
100
AcDbEntity
  8
0
 62
7
100
AcDbSpline
 70
8
 71
3
 72
8
 73
4
 74
0
 40
0
 40
0
 40
0
 40
0
 40
1
 40
1
 40
1
 40
1
 10
10.073459
 20
3.324931
 30
0.0
 10
10.183702
 20
3.173346
 30
0.0
 10
10.342177
 20
3.097554
 30
0.0
 10
10.548607
 20
3.097554
 30
0.0
  0
SPLINE
  5
104
100
AcDbEntity
  8
0
 62
7
100
AcDbSpline
 70
8
 71
3
 72
8
 73
4
 74
0
 40
0
 40
0
 40
0
 40
0
 40
1
 40
1
 40
1
 40
1
 10
10.548607
 20
3.097554
 30
0.0
 10
10.755037
 20
3.097554
 30
0.0
 10
10.912684
 20
3.172795
 30
0.0
 10
11.021274
 20
3.323828
 30
0.0
  0
SPLINE
  5
105
100
AcDbEntity
  8
0
 62
7
100
AcDbSpline
 70
8
 71
3
 72
8
 73
4
 74
0
 40
0
 40
0
 40
0
 40
0
 40
1
 40
1
 40
1
 40
1
 10
11.021274
 20
3.323828
 30
0.0
 10
11.129863
 20
3.474585
 30
0.0
 10
11.184158
 20
3.693418
 30
0.0
 10
11.184158
 20
3.980877
 30
0.0
  0
SPLINE
  5
106
100
AcDbEntity
  8
0
 62
7
100
AcDbSpline
 70
8
 71
3
 72
8
 73
4
 74
0
 40
0
 40
0
 40
0
 40
0
 40
1
 40
1
 40
1
 40
1
 10
11.184158
 20
3.980877
 30
0.0
 10
11.184158
 20
4.268060
 30
0.0
 10
11.129863
 20
4.487168
 30
0.0
 10
11.021274
 20
4.637925
 30
0.0
  0
SPLINE
  5
107
100
AcDbEntity
  8
0
 62
7
100
AcDbSpline
 70
8
 71
3
 72
8
 73
4
 74
0
 40
0
 40
0
 40
0
 40
0
 40
1
 40
1
 40
1
 40
1
 10
11.021274
 20
4.637925
 30
0.0
 10
10.912684
 20
4.788683
 30
0.0
 10
10.755037
 20
4.863924
 30
0.0
 10
10.548607
 20
4.863924
 30
0.0
  0
LWPOLYLINE
  5
108
100
AcDbEntity
  8
0
 62
7
100
AcDbPolyline
 90
2
 70
0
 10
10.548607
 20
4.863924
 30
0.0
 10
10.548607
 20
4.863924
 30
0.0
  0
SPLINE
  5
109
100
AcDbEntity
  8
0
 62
7
100
AcDbSpline
 70
8
 71
3
 72
8
 73
4
 74
0
 40
0
 40
0
 40
0
 40
0
 40
1
 40
1
 40
1
 40
1
 10
14.407665
 20
4.713166
 30
0.0
 10
14.624844
 20
4.713166
 30
0.0
 10
14.780562
 20
4.753681
 30
0.0
 10
14.874820
 20
4.834434
 30
0.0
  0
SPLINE
  5
10a
100
AcDbEntity
  8
0
 62
7
100
AcDbSpline
 70
8
 71
3
 72
8
 73
4
 74
0
 40
0
 40
0
 40
0
 40
0
 40
1
 40
1
 40
1
 40
1
 10
14.874820
 20
4.834434
 30
0.0
 10
14.969078
 20
4.915187
 30
0.0
 10
15.016207
 20
5.048029
 30
0.0
 10
15.016207
 20
5.232962
 30
0.0
  0
SPLINE
  5
10b
100
AcDbEntity
  8
0
 62
7
100
AcDbSpline
 70
8
 71
3
 72
8
 73
4
 74
0
 40
0
 40
0
 40
0
 40
0
 40
1
 40
1
 40
1
 40
1
 10
15.016207
 20
5.232962
 30
0.0
 10
15.016207
 20
5.415966
 30
0.0
 10
14.969078
 20
5.547155
 30
0.0
 10
14.874820
 20
5.626254
 30
0.0
  0
SPLINE
  5
10c
100
AcDbEntity
  8
0
 62
7
100
AcDbSpline
 70
8
 71
3
 72
8
 73
4
 74
0
 40
0
 40
0
 40
0
 40
0
 40
1
 40
1
 40
1
 40
1
 10
14.874820
 20
5.626254
 30
0.0
 10
14.780562
 20
5.705078
 30
0.0
 10
14.624844
 20
5.744766
 30
0.0
 10
14.407665
 20
5.744766
 30
0.0
  0
LWPOLYLINE
  5
10d
100
AcDbEntity
  8
0
 62
7
100
AcDbPolyline
 90
4
 70
0
 10
14.407665
 20
5.744766
 30
0.0
 10
13.971378
 20
5.744766
 30
0.0
 10
13.971378
 20
4.713166
 30
0.0
 10
14.407665
 20
4.713166
 30
0.0
  0
LWPOLYLINE
  5
10e
100
AcDbEntity
  8
0
 62
7
100
AcDbPolyline
 90
2
 70
0
 10
14.407665
 20
5.744766
 30
0.0
 10
14.407665
 20
5.744766
 30
0.0
  0
SPLINE
  5
10f
100
AcDbEntity
  8
0
 62
7
100
AcDbSpline
 70
8
 71
3
 72
8
 73
4
 74
0
 40
0
 40
0
 40
0
 40
0
 40
1
 40
1
 40
1
 40
1
 10
2.472752
 20
4.713166
 30
0.0
 10
2.689931
 20
4.713166
 30
0.0
 10
2.845649
 20
4.753681
 30
0.0
 10
2.939907
 20
4.834434
 30
0.0
  0
SPLINE
  5
110
100
AcDbEntity
  8
0
 62
7
100
AcDbSpline
 70
8
 71
3
 72
8
 73
4
 74
0
 40
0
 40
0
 40
0
 40
0
 40
1
 40
1
 40
1
 40
1
 10
2.939907
 20
4.834434
 30
0.0
 10
3.034164
 20
4.915187
 30
0.0
 10
3.081293
 20
5.048029
 30
0.0
 10
3.081293
 20
5.232962
 30
0.0
  0
SPLINE
  5
111
100
AcDbEntity
  8
0
 62
7
100
AcDbSpline
 70
8
 71
3
 72
8
 73
4
 74
0
 40
0
 40
0
 40
0
 40
0
 40
1
 40
1
 40
1
 40
1
 10
3.081293
 20
5.232962
 30
0.0
 10
3.081293
 20
5.415966
 30
0.0
 10
3.034164
 20
5.547155
 30
0.0
 10
2.939907
 20
5.626254
 30
0.0
  0
SPLINE
  5
112
100
AcDbEntity
  8
0
 62
7
100
AcDbSpline
 70
8
 71
3
 72
8
 73
4
 74
0
 40
0
 40
0
 40
0
 40
0
 40
1
 40
1
 40
1
 40
1
 10
2.939907
 20
5.626254
 30
0.0
 10
2.845649
 20
5.705078
 30
0.0
 10
2.689931
 20
5.744766
 30
0.0
 10
2.472752
 20
5.744766
 30
0.0
  0
LWPOLYLINE
  5
113
100
AcDbEntity
  8
0
 62
7
100
AcDbPolyline
 90
4
 70
0
 10
2.472752
 20
5.744766
 30
0.0
 10
2.036465
 20
5.744766
 30
0.0
 10
2.036465
 20
4.713166
 30
0.0
 10
2.472752
 20
4.713166
 30
0.0
  0
SPLINE
  5
114
100
AcDbEntity
  8
0
 62
7
100
AcDbSpline
 70
8
 71
3
 72
8
 73
4
 74
0
 40
0
 40
0
 40
0
 40
0
 40
1
 40
1
 40
1
 40
1
 10
6.644073
 20
4.923179
 30
0.0
 10
6.457211
 20
4.923179
 30
0.0
 10
6.305627
 20
4.870814
 30
0.0
 10
6.188770
 20
4.765807
 30
0.0
  0
SPLINE
  5
115
100
AcDbEntity
  8
0
 62
7
100
AcDbSpline
 70
8
 71
3
 72
8
 73
4
 74
0
 40
0
 40
0
 40
0
 40
0
 40
1
 40
1
 40
1
 40
1
 10
6.188770
 20
4.765807
 30
0.0
 10
6.072188
 20
4.660801
 30
0.0
 10
5.999427
 20
4.509492
 30
0.0
 10
5.970764
 20
4.311882
 30
0.0
  0
LWPOLYLINE
  5
116
100
AcDbEntity
  8
0
 62
7
100
AcDbPolyline
 90
2
 70
0
 10
2.472752
 20
5.744766
 30
0.0
 10
2.472752
 20
5.744766
 30
0.0
  0
SPLINE
  5
117
100
AcDbEntity
  8
0
 62
7
100
AcDbSpline
 70
8
 71
3
 72
8
 73
4
 74
0
 40
0
 40
0
 40
0
 40
0
 40
1
 40
1
 40
1
 40
1
 10
7.222849
 20
4.311882
 30
0.0
 10
7.222849
 20
4.495161
 30
0.0
 10
7.169657
 20
4.642886
 30
0.0
 10
7.062721
 20
4.755059
 30
0.0
  0
SPLINE
  5
118
100
AcDbEntity
  8
0
 62
7
100
AcDbSpline
 70
8
 71
3
 72
8
 73
4
 74
0
 40
0
 40
0
 40
0
 40
0
 40
1
 40
1
 40
1
 40
1
 10
7.062721
 20
4.755059
 30
0.0
 10
6.955786
 20
4.867231
 30
0.0
 10
6.816328
 20
4.923179
 30
0.0
 10
6.644073
 20
4.923179
 30
0.0
  0
LWPOLYLINE
  5
119
100
AcDbEntity
  8
0
 62
7
100
AcDbPolyline
 90
2
 70
0
 10
5.970764
 20
4.311882
 30
0.0
 10
7.222849
 20
4.311882
 30
0.0
  0
SPLINE
  5
11a
100
AcDbEntity
  8
0
 62
7
100
AcDbSpline
 70
8
 71
3
 72
8
 73
4
 74
0
 40
0
 40
0
 40
0
 40
0
 40
1
 40
1
 40
1
 40
1
 10
18.036315
 20
3.730349
 30
0.0
 10
17.934891
 20
3.661999
 30
0.0
 10
17.884180
 20
3.561677
 30
0.0
 10
17.884180
 20
3.428835
 30
0.0
  0
SPLINE
  5
11b
100
AcDbEntity
  8
0
 62
7
100
AcDbSpline
 70
8
 71
3
 72
8
 73
4
 74
0
 40
0
 40
0
 40
0
 40
0
 40
1
 40
1
 40
1
 40
1
 10
17.884180
 20
3.428835
 30
0.0
 10
17.884180
 20
3.306740
 30
0.0
 10
17.924970
 20
3.211105
 30
0.0
 10
18.006549
 20
3.141927
 30
0.0
  0
SPLINE
  5
11c
100
AcDbEntity
  8
0
 62
7
100
AcDbSpline
 70
8
 71
3
 72
8
 73
4
 74
0
 40
0
 40
0
 40
0
 40
0
 40
1
 40
1
 40
1
 40
1
 10
18.006549
 20
3.141927
 30
0.0
 10
18.088405
 20
3.072750
 30
0.0
 10
18.201955
 20
3.038299
 30
0.0
 10
18.347201
 20
3.038299
 30
0.0
  0
SPLINE
  5
11d
100
AcDbEntity
  8
0
 62
7
100
AcDbSpline
 70
8
 71
3
 72
8
 73
4
 74
0
 40
0
 40
0
 40
0
 40
0
 40
1
 40
1
 40
1
 40
1
 10
18.347201
 20
3.038299
 30
0.0
 10
18.528550
 20
3.038299
 30
0.0
 10
18.681237
 20
3.103342
 30
0.0
 10
18.804985
 20
3.233429
 30
0.0
  0
SPLINE
  5
11e
100
AcDbEntity
  8
0
 62
7
100
AcDbSpline
 70
8
 71
3
 72
8
 73
4
 74
0
 40
0
 40
0
 40
0
 40
0
 40
1
 40
1
 40
1
 40
1
 10
18.804985
 20
3.233429
 30
0.0
 10
18.929008
 20
3.363516
 30
0.0
 10
18.991020
 20
3.526675
 30
0.0
 10
18.991020
 20
3.722357
 30
0.0
  0
LWPOLYLINE
  5
11f
100
AcDbEntity
  8
0
 62
7
100
AcDbPolyline
 90
2
 70
0
 10
6.644073
 20
4.923179
 30
0.0
 10
6.644073
 20
4.923179
 30
0.0
  0
SPLINE
  5
120
100
AcDbEntity
  8
0
 62
7
100
AcDbSpline
 70
8
 71
3
 72
8
 73
4
 74
0
 40
0
 40
0
 40
0
 40
0
 40
1
 40
1
 40
1
 40
1
 10
18.489965
 20
3.832600
 30
0.0
 10
18.289047
 20
3.832600
 30
0.0
 10
18.137739
 20
3.798424
 30
0.0
 10
18.036315
 20
3.730349
 30
0.0
  0
LWPOLYLINE
  5
121
100
AcDbEntity
  8
0
 62
7
100
AcDbPolyline
 90
3
 70
0
 10
18.991020
 20
3.722357
 30
0.0
 10
18.991020
 20
3.832600
 30
0.0
 10
18.489965
 20
3.832600
 30
0.0
  0
LWPOLYLINE
  5
122
100
AcDbEntity
  8
0
 62
7
100
AcDbPolyline
 90
2
 70
0
 10
18.036315
 20
3.730349
 30
0.0
 10
18.036315
 20
3.730349
 30
0.0
  0
SPLINE
  5
123
100
AcDbEntity
  8
0
 62
7
100
AcDbSpline
 70
8
 71
3
 72
8
 73
4
 74
0
 40
0
 40
0
 40
0
 40
0
 40
1
 40
1
 40
1
 40
1
 10
2.002014
 20
0.004300
 30
0.0
 10
8.945857
 20
0.004300
 30
0.0
 10
15.889699
 20
0.004300
 30
0.0
 10
22.833542
 20
0.004300
 30
0.0
  0
LWPOLYLINE
  5
124
100
AcDbEntity
  8
0
 62
7
100
AcDbPolyline
 90
34
 70
0
 10
2.002014
 20
30.934064
 30
0.0
 10
1.799167
 20
30.925244
 30
0.0
 10
1.596319
 20
30.889966
 30
0.0
 10
1.411111
 20
30.845869
 30
0.0
 10
1.225903
 20
30.775314
 30
0.0
 10
1.049514
 20
30.695939
 30
0.0
 10
0.881944
 20
30.590105
 30
0.0
 10
0.732014
 20
30.475452
 30
0.0
 10
0.590903
 20
30.343161
 30
0.0
 10
0.458611
 20
30.202050
 30
0.0
 10
0.343958
 20
30.052119
 30
0.0
 10
0.238125
 20
29.884550
 30
0.0
 10
0.158750
 20
29.708161
 30
0.0
 10
0.088194
 20
29.522952
 30
0.0
 10
0.044097
 20
29.337744
 30
0.0
 10
0.008819
 20
29.134897
 30
0.0
 10
0.000000
 20
28.932050
 30
0.0
 10
0.000000
 20
1.997466
 30
0.0
 10
0.008819
 20
1.794619
 30
0.0
 10
0.044097
 20
1.600591
 30
0.0
 10
0.088194
 20
1.406564
 30
0.0
 10
0.158750
 20
1.221355
 30
0.0
 10
0.238125
 20
1.044966
 30
0.0
 10
0.343958
 20
0.886216
 30
0.0
 10
0.458611
 20
0.727466
 30
0.0
 10
0.590903
 20
0.586355
 30
0.0
 10
0.732014
 20
0.454064
 30
0.0
 10
0.881944
 20
0.339411
 30
0.0
 10
1.049514
 20
0.242397
 30
0.0
 10
1.225903
 20
0.154202
 30
0.0
 10
1.411111
 20
0.092466
 30
0.0
 10
1.596319
 20
0.039550
 30
0.0
 10
1.799167
 20
0.013105
 30
0.0
 10
2.002014
 20
0.004300
 30
0.0
  0
SPLINE
  5
125
100
AcDbEntity
  8
0
 62
7
100
AcDbSpline
 70
8
 71
3
 72
8
 73
4
 74
0
 40
0
 40
0
 40
0
 40
0
 40
1
 40
1
 40
1
 40
1
 10
22.464779
 20
4.863924
 30
0.0
 10
22.258349
 20
4.863924
 30
0.0
 10
22.099874
 20
4.788132
 30
0.0
 10
21.989631
 20
4.636547
 30
0.0
  0
SPLINE
  5
126
100
AcDbEntity
  8
0
 62
7
100
AcDbSpline
 70
8
 71
3
 72
8
 73
4
 74
0
 40
0
 40
0
 40
0
 40
0
 40
1
 40
1
 40
1
 40
1
 10
21.989631
 20
4.636547
 30
0.0
 10
21.879112
 20
4.484687
 30
0.0
 10
21.823991
 20
4.266131
 30
0.0
 10
21.823991
 20
3.980877
 30
0.0
  0
SPLINE
  5
127
100
AcDbEntity
  8
0
 62
7
100
AcDbSpline
 70
8
 71
3
 72
8
 73
4
 74
0
 40
0
 40
0
 40
0
 40
0
 40
1
 40
1
 40
1
 40
1
 10
21.823991
 20
3.980877
 30
0.0
 10
21.823991
 20
3.695347
 30
0.0
 10
21.879112
 20
3.476790
 30
0.0
 10
21.989631
 20
3.324931
 30
0.0
  0
SPLINE
  5
128
100
AcDbEntity
  8
0
 62
7
100
AcDbSpline
 70
8
 71
3
 72
8
 73
4
 74
0
 40
0
 40
0
 40
0
 40
0
 40
1
 40
1
 40
1
 40
1
 10
21.989631
 20
3.324931
 30
0.0
 10
22.099874
 20
3.173346
 30
0.0
 10
22.258349
 20
3.097554
 30
0.0
 10
22.464779
 20
3.097554
 30
0.0
  0
SPLINE
  5
129
100
AcDbEntity
  8
0
 62
7
100
AcDbSpline
 70
8
 71
3
 72
8
 73
4
 74
0
 40
0
 40
0
 40
0
 40
0
 40
1
 40
1
 40
1
 40
1
 10
22.464779
 20
3.097554
 30
0.0
 10
22.671209
 20
3.097554
 30
0.0
 10
22.828856
 20
3.172795
 30
0.0
 10
22.937446
 20
3.323828
 30
0.0
  0
SPLINE
  5
12a
100
AcDbEntity
  8
0
 62
7
100
AcDbSpline
 70
8
 71
3
 72
8
 73
4
 74
0
 40
0
 40
0
 40
0
 40
0
 40
1
 40
1
 40
1
 40
1
 10
22.937446
 20
3.323828
 30
0.0
 10
23.046035
 20
3.474585
 30
0.0
 10
23.100330
 20
3.693418
 30
0.0
 10
23.100330
 20
3.980877
 30
0.0
  0
SPLINE
  5
12b
100
AcDbEntity
  8
0
 62
7
100
AcDbSpline
 70
8
 71
3
 72
8
 73
4
 74
0
 40
0
 40
0
 40
0
 40
0
 40
1
 40
1
 40
1
 40
1
 10
23.100330
 20
3.980877
 30
0.0
 10
23.100330
 20
4.268060
 30
0.0
 10
23.046035
 20
4.487168
 30
0.0
 10
22.937446
 20
4.637925
 30
0.0
  0
SPLINE
  5
12c
100
AcDbEntity
  8
0
 62
7
100
AcDbSpline
 70
8
 71
3
 72
8
 73
4
 74
0
 40
0
 40
0
 40
0
 40
0
 40
1
 40
1
 40
1
 40
1
 10
22.937446
 20
4.637925
 30
0.0
 10
22.828856
 20
4.788683
 30
0.0
 10
22.671209
 20
4.863924
 30
0.0
 10
22.464779
 20
4.863924
 30
0.0
  0
LWPOLYLINE
  5
12d
100
AcDbEntity
  8
0
 62
7
100
AcDbPolyline
 90
35
 70
0
 10
22.833542
 20
0.004300
 30
0.0
 10
23.045208
 20
0.013105
 30
0.0
 10
23.239236
 20
0.039550
 30
0.0
 10
23.433264
 20
0.092466
 30
0.0
 10
23.618472
 20
0.154202
 30
0.0
 10
23.786042
 20
0.242397
 30
0.0
 10
23.953611
 20
0.339411
 30
0.0
 10
24.112361
 20
0.454064
 30
0.0
 10
24.253472
 20
0.586355
 30
0.0
 10
24.376944
 20
0.727466
 30
0.0
 10
24.491597
 20
0.886216
 30
0.0
 10
24.597431
 20
1.044966
 30
0.0
 10
24.676806
 20
1.221355
 30
0.0
 10
24.747361
 20
1.406564
 30
0.0
 10
24.800278
 20
1.600591
 30
0.0
 10
24.826736
 20
1.794619
 30
0.0
 10
24.835556
 20
1.997466
 30
0.0
 10
24.835556
 20
28.932050
 30
0.0
 10
24.826736
 20
29.134897
 30
0.0
 10
24.800278
 20
29.337744
 30
0.0
 10
24.747361
 20
29.522952
 30
0.0
 10
24.676806
 20
29.708161
 30
0.0
 10
24.597431
 20
29.884550
 30
0.0
 10
24.491597
 20
30.052119
 30
0.0
 10
24.376944
 20
30.202050
 30
0.0
 10
24.253472
 20
30.343161
 30
0.0
 10
24.112361
 20
30.475452
 30
0.0
 10
23.953611
 20
30.590105
 30
0.0
 10
23.786042
 20
30.695939
 30
0.0
 10
23.618472
 20
30.775314
 30
0.0
 10
23.433264
 20
30.845869
 30
0.0
 10
23.239236
 20
30.889966
 30
0.0
 10
23.045208
 20
30.925244
 30
0.0
 10
22.833542
 20
30.934064
 30
0.0
 10
2.002014
 20
30.934064
 30
0.0
  0
LWPOLYLINE
  5
12e
100
AcDbEntity
  8
0
 62
7
100
AcDbPolyline
 90
2
 70
0
 10
22.464779
 20
4.863924
 30
0.0
 10
22.464779
 20
4.863924
 30
0.0
  0
ENDSEC
  0
SECTION
  2
OBJECTS
  0
DICTIONARY
  5
C
330
0
100
AcDbDictionary
  3
ACAD_GROUP
350
D
  3
ACAD_MLINESTYLE
350
17
  0
DICTIONARY
  5
D
330
C
100
AcDbDictionary
  0
DICTIONARY
  5
1A
330
C
100
AcDbDictionary
  0
DICTIONARY
  5
17
330
C
100
AcDbDictionary
  3
STANDARD
350
18
  0
DICTIONARY
  5
19
330
C
100
AcDbDictionary
  0
ENDSEC
  0
EOF
