  0
SECTION
  2
HEADER
  9
$ACADVER
  1
AC1014
  9
$HANDSEED
  5
FFFF
  9
$MEASUREMENT
 70
     1
  0
ENDSEC
  0
SECTION
  2
TABLES
  0
TABLE
  2
VPORT
  5
8
330
0
100
AcDbSymbolTable
 70
     4
  0
VPORT
  5
2E
330
8
100
AcDbSymbolTableRecord
100
AcDbViewportTableRecord
  2
*ACTIVE
 70
     0
 10
0.0
 20
0.0
 11
1.0
 21
1.0
 12
210.0
 22
148.5
 13
0.0
 23
0.0
 14
10.0
 24
10.0
 15
10.0
 25
10.0
 16
0.0
 26
0.0
 36
1.0
 17
0.0
 27
0.0
 37
0.0
 40
341.0
 41
1.24
 42
50.0
 43
0.0
 44
0.0
 50
0.0
 51
0.0
 71
     0
 72
   100
 73
     1
 74
     3
 75
     0
 76
     0
 77
     0
 78
     0
  0
ENDTAB
  0
TABLE
  2
LTYPE
  5
5
330
0
100
AcDbSymbolTable
 70
     1
  0
LTYPE
  5
14
330
5
100
AcDbSymbolTableRecord
100
AcDbLinetypeTableRecord
  2
BYBLOCK
 70
     0
  3

 72
    65
 73
     0
 40
0.0
  0
LTYPE
  5
15
330
5
100
AcDbSymbolTableRecord
100
AcDbLinetypeTableRecord
  2
BYLAYER
 70
     0
  3

 72
    65
 73
     0
 40
0.0
  0
LTYPE
  5
16
330
5
100
AcDbSymbolTableRecord
100
AcDbLinetypeTableRecord
  2
CONTINUOUS
 70
     0
  3
Solid line
 72
    65
 73
     0
 40
0.0
  0
ENDTAB
  0
TABLE
  2
LAYER
  5
2
100
AcDbSymbolTable
 70
1
  0
LAYER
  5
50
100
AcDbSymbolTableRecord
100
AcDbLayerTableRecord
  2
0
 70
0
  6
CONTINUOUS
  0
ENDTAB
  0
TABLE
  2
STYLE
  5
3
330
0
100
AcDbSymbolTable
 70
     1
  0
STYLE
  5
11
330
3
100
AcDbSymbolTableRecord
100
AcDbTextStyleTableRecord
  2
STANDARD
 70
     0
 40
0.0
 41
1.0
 50
0.0
 71
     0
 42
2.5
  3
txt
  4

  0
ENDTAB
  0
TABLE
  2
VIEW
  5
6
330
0
100
AcDbSymbolTable
 70
     0
  0
ENDTAB
  0
TABLE
  2
UCS
  5
7
330
0
100
AcDbSymbolTable
 70
     0
  0
ENDTAB
  0
TABLE
  2
APPID
  5
9
330
0
100
AcDbSymbolTable
 70
     2
  0
APPID
  5
12
330
9
100
AcDbSymbolTableRecord
100
AcDbRegAppTableRecord
  2
ACAD
 70
     0
  0
ENDTAB
  0
TABLE
  2
DIMSTYLE
  5
A
330
0
100
AcDbSymbolTable
 70
     1
  0
DIMSTYLE
105
27
330
A
100
AcDbSymbolTableRecord
100
AcDbDimStyleTableRecord
  2
ISO-25
 70
     0
  3

  4

  5

  6

  7

 40
1.0
 41
2.5
 42
0.625
 43
3.75
 44
1.25
 45
0.0
 46
0.0
 47
0.0
 48
0.0
140
2.5
141
2.5
142
0.0
143
0.03937007874016
144
1.0
145
0.0
146
1.0
147
0.625
 71
     0
 72
     0
 73
     0
 74
     0
 75
     0
 76
     0
 77
     1
 78
     8
170
     0
171
     3
172
     1
173
     0
174
     0
175
     0
176
     0
177
     0
178
     0
270
     2
271
     2
272
     2
273
     2
274
     3
340
11
275
     0
280
     0
281
     0
282
     0
283
     0
284
     8
285
     0
286
     0
287
     3
288
     0
  0
ENDTAB
  0
TABLE
  2
BLOCK_RECORD
  5
1
330
0
100
AcDbSymbolTable
 70
     1
  0
BLOCK_RECORD
  5
1F
330
1
100
AcDbSymbolTableRecord
100
AcDbBlockTableRecord
  2
*MODEL_SPACE
  0
BLOCK_RECORD
  5
1B
330
1
100
AcDbSymbolTableRecord
100
AcDbBlockTableRecord
  2
*PAPER_SPACE
  0
ENDTAB
  0
ENDSEC
  0
SECTION
  2
BLOCKS
  0
BLOCK
  5
20
330
1F
100
AcDbEntity
  8
0
100
AcDbBlockBegin
  2
*MODEL_SPACE
 70
     0
 10
0.0
 20
0.0
 30
0.0
  3
*MODEL_SPACE
  1

  0
ENDBLK
  5
21
330
1F
100
AcDbEntity
  8
0
100
AcDbBlockEnd
  0
BLOCK
  5
1C
330
1B
100
AcDbEntity
 67
     1
  8
0
100
AcDbBlockBegin
  2
*PAPER_SPACE
  1

  0
ENDBLK
  5
1D
330
1B
100
AcDbEntity
 67
     1
  8
0
100
AcDbBlockEnd
  0
ENDSEC
  0
SECTION
  2
ENTITIES
  0
SPLINE
  5
100
100
AcDbEntity
  8
0
 62
7
100
AcDbSpline
 70
8
 71
3
 72
8
 73
4
 74
0
 40
0
 40
0
 40
0
 40
0
 40
1
 40
1
 40
1
 40
1
 10
10.548607
 20
4.863924
 30
0.0
 10
10.342177
 20
4.863924
 30
0.0
 10
10.183702
 20
4.788132
 30
0.0
 10
10.073459
 20
4.636547
 30
0.0
  0
SPLINE
  5
101
100
AcDbEntity
  8
0
 62
7
100
AcDbSpline
 70
8
 71
3
 72
8
 73
4
 74
0
 40
0
 40
0
 40
0
 40
0
 40
1
 40
1
 40
1
 40
1
 10
10.073459
 20
4.636547
 30
0.0
 10
9.962941
 20
4.484687
 30
0.0
 10
9.907819
 20
4.266131
 30
0.0
 10
9.907819
 20
3.980877
 30
0.0
  0
SPLINE
  5
102
100
AcDbEntity
  8
0
 62
7
100
AcDbSpline
 70
8
 71
3
 72
8
 73
4
 74
0
 40
0
 40
0
 40
0
 40
0
 40
1
 40
1
 40
1
 40
1
 10
9.907819
 20
3.980877
 30
0.0
 10
9.907819
 20
3.695347
 30
0.0
 10
9.962941
 20
3.476790
 30
0.0
 10
10.073459
 20
3.324931
 30
0.0
  0
SPLINE
  5
103
100
AcDbEntity
  8
0
 62
7
100
AcDbSpline
 70
8
 71
3
 72
8
 73
4
 74
0
 40
0
 40
0
 40
0
 40
0
 40
1
 40
1
 40
1
 40
1
 10
10.073459
 20
3.324931
 30
0.0
 10
10.183702
 20
3.173346
 30
0.0
 10
10.342177
 20
3.097554
 30
0.0
 10
10.548607
 20
3.097554
 30
0.0
  0
SPLINE
  5
104
100
AcDbEntity
  8
0
 62
7
100
AcDbSpline
 70
8
 71
3
 72
8
 73
4
 74
0
 40
0
 40
0
 40
0
 40
0
 40
1
 40
1
 40
1
 40
1
 10
10.548607
 20
3.097554
 30
0.0
 10
10.755037
 20
3.097554
 30
0.0
 10
10.912684
 20
3.172795
 30
0.0
 10
11.021274
 20
3.323828
 30
0.0
  0
SPLINE
  5
105
100
AcDbEntity
  8
0
 62
7
100
AcDbSpline
 70
8
 71
3
 72
8
 73
4
 74
0
 40
0
 40
0
 40
0
 40
0
 40
1
 40
1
 40
1
 40
1
 10
11.021274
 20
3.323828
 30
0.0
 10
11.129863
 20
3.474585
 30
0.0
 10
11.184158
 20
3.693418
 30
0.0
 10
11.184158
 20
3.980877
 30
0.0
  0
SPLINE
  5
106
100
AcDbEntity
  8
0
 62
7
100
AcDbSpline
 70
8
 71
3
 72
8
 73
4
 74
0
 40
0
 40
0
 40
0
 40
0
 40
1
 40
1
 40
1
 40
1
 10
11.184158
 20
3.980877
 30
0.0
 10
11.184158
 20
4.268060
 30
0.0
 10
11.129863
 20
4.487168
 30
0.0
 10
11.021274
 20
4.637925
 30
0.0
  0
SPLINE
  5
107
100
AcDbEntity
  8
0
 62
7
100
AcDbSpline
 70
8
 71
3
 72
8
 73
4
 74
0
 40
0
 40
0
 40
0
 40
0
 40
1
 40
1
 40
1
 40
1
 10
11.021274
 20
4.637925
 30
0.0
 10
10.912684
 20
4.788683
 30
0.0
 10
10.755037
 20
4.863924
 30
0.0
 10
10.548607
 20
4.863924
 30
0.0
  0
LWPOLYLINE
  5
108
100
AcDbEntity
  8
0
 62
7
100
AcDbPolyline
 90
2
 70
0
 10
10.548607
 20
4.863924
 30
0.0
 10
10.548607
 20
4.863924
 30
0.0
  0
SPLINE
  5
109
100
AcDbEntity
  8
0
 62
7
100
AcDbSpline
 70
8
 71
3
 72
8
 73
4
 74
0
 40
0
 40
0
 40
0
 40
0
 40
1
 40
1
 40
1
 40
1
 10
14.407665
 20
4.713166
 30
0.0
 10
14.624844
 20
4.713166
 30
0.0
 10
14.780562
 20
4.753681
 30
0.0
 10
14.874820
 20
4.834434
 30
0.0
  0
SPLINE
  5
10a
100
AcDbEntity
  8
0
 62
7
100
AcDbSpline
 70
8
 71
3
 72
8
 73
4
 74
0
 40
0
 40
0
 40
0
 40
0
 40
1
 40
1
 40
1
 40
1
 10
14.874820
 20
4.834434
 30
0.0
 10
14.969078
 20
4.915187
 30
0.0
 10
15.016207
 20
5.048029
 30
0.0
 10
15.016207
 20
5.232962
 30
0.0
  0
SPLINE
  5
10b
100
AcDbEntity
  8
0
 62
7
100
AcDbSpline
 70
8
 71
3
 72
8
 73
4
 74
0
 40
0
 40
0
 40
0
 40
0
 40
1
 40
1
 40
1
 40
1
 10
15.016207
 20
5.232962
 30
0.0
 10
15.016207
 20
5.415966
 30
0.0
 10
14.969078
 20
5.547155
 30
0.0
 10
14.874820
 20
5.626254
 30
0.0
  0
SPLINE
  5
10c
100
AcDbEntity
  8
0
 62
7
100
AcDbSpline
 70
8
 71
3
 72
8
 73
4
 74
0
 40
0
 40
0
 40
0
 40
0
 40
1
 40
1
 40
1
 40
1
 10
14.874820
 20
5.626254
 30
0.0
 10
14.780562
 20
5.705078
 30
0.0
 10
14.624844
 20
5.744766
 30
0.0
 10
14.407665
 20
5.744766
 30
0.0
  0
LWPOLYLINE
  5
10d
100
AcDbEntity
  8
0
 62
7
100
AcDbPolyline
 90
4
 70
0
 10
14.407665
 20
5.744766
 30
0.0
 10
13.971378
 20
5.744766
 30
0.0
 10
13.971378
 20
4.713166
 30
0.0
 10
14.407665
 20
4.713166
 30
0.0
  0
LWPOLYLINE
  5
10e
100
AcDbEntity
  8
0
 62
7
100
AcDbPolyline
 90
2
 70
0
 10
14.407665
 20
5.744766
 30
0.0
 10
14.407665
 20
5.744766
 30
0.0
  0
SPLINE
  5
10f
100
AcDbEntity
  8
0
 62
7
100
AcDbSpline
 70
8
 71
3
 72
8
 73
4
 74
0
 40
0
 40
0
 40
0
 40
0
 40
1
 40
1
 40
1
 40
1
 10
2.472752
 20
4.713166
 30
0.0
 10
2.689931
 20
4.713166
 30
0.0
 10
2.845649
 20
4.753681
 30
0.0
 10
2.939907
 20
4.834434
 30
0.0
  0
SPLINE
  5
110
100
AcDbEntity
  8
0
 62
7
100
AcDbSpline
 70
8
 71
3
 72
8
 73
4
 74
0
 40
0
 40
0
 40
0
 40
0
 40
1
 40
1
 40
1
 40
1
 10
2.939907
 20
4.834434
 30
0.0
 10
3.034164
 20
4.915187
 30
0.0
 10
3.081293
 20
5.048029
 30
0.0
 10
3.081293
 20
5.232962
 30
0.0
  0
SPLINE
  5
111
100
AcDbEntity
  8
0
 62
7
100
AcDbSpline
 70
8
 71
3
 72
8
 73
4
 74
0
 40
0
 40
0
 40
0
 40
0
 40
1
 40
1
 40
1
 40
1
 10
3.081293
 20
5.232962
 30
0.0
 10
3.081293
 20
5.415966
 30
0.0
 10
3.034164
 20
5.547155
 30
0.0
 10
2.939907
 20
5.626254
 30
0.0
  0
SPLINE
  5
112
100
AcDbEntity
  8
0
 62
7
100
AcDbSpline
 70
8
 71
3
 72
8
 73
4
 74
0
 40
0
 40
0
 40
0
 40
0
 40
1
 40
1
 40
1
 40
1
 10
2.939907
 20
5.626254
 30
0.0
 10
2.845649
 20
5.705078
 30
0.0
 10
2.689931
 20
5.744766
 30
0.0
 10
2.472752
 20
5.744766
 30
0.0
  0
LWPOLYLINE
  5
113
100
AcDbEntity
  8
0
 62
7
100
AcDbPolyline
 90
4
 70
0
 10
2.472752
 20
5.744766
 30
0.0
 10
2.036465
 20
5.744766
 30
0.0
 10
2.036465
 20
4.713166
 30
0.0
 10
2.472752
 20
4.713166
 30
0.0
  0
SPLINE
  5
114
100
AcDbEntity
  8
0
 62
7
100
AcDbSpline
 70
8
 71
3
 72
8
 73
4
 74
0
 40
0
 40
0
 40
0
 40
0
 40
1
 40
1
 40
1
 40
1
 10
6.644073
 20
4.923179
 30
0.0
 10
6.457211
 20
4.923179
 30
0.0
 10
6.305627
 20
4.870814
 30
0.0
 10
6.188770
 20
4.765807
 30
0.0
  0
SPLINE
  5
115
100
AcDbEntity
  8
0
 62
7
100
AcDbSpline
 70
8
 71
3
 72
8
 73
4
 74
0
 40
0
 40
0
 40
0
 40
0
 40
1
 40
1
 40
1
 40
1
 10
6.188770
 20
4.765807
 30
0.0
 10
6.072188
 20
4.660801
 30
0.0
 10
5.999427
 20
4.509492
 30
0.0
 10
5.970764
 20
4.311882
 30
0.0
  0
LWPOLYLINE
  5
116
100
AcDbEntity
  8
0
 62
7
100
AcDbPolyline
 90
2
 70
0
 10
2.472752
 20
5.744766
 30
0.0
 10
2.472752
 20
5.744766
 30
0.0
  0
SPLINE
  5
117
100
AcDbEntity
  8
0
 62
7
100
AcDbSpline
 70
8
 71
3
 72
8
 73
4
 74
0
 40
0
 40
0
 40
0
 40
0
 40
1
 40
1
 40
1
 40
1
 10
7.222849
 20
4.311882
 30
0.0
 10
7.222849
 20
4.495161
 30
0.0
 10
7.169657
 20
4.642886
 30
0.0
 10
7.062721
 20
4.755059
 30
0.0
  0
SPLINE
  5
118
100
AcDbEntity
  8
0
 62
7
100
AcDbSpline
 70
8
 71
3
 72
8
 73
4
 74
0
 40
0
 40
0
 40
0
 40
0
 40
1
 40
1
 40
1
 40
1
 10
7.062721
 20
4.755059
 30
0.0
 10
6.955786
 20
4.867231
 30
0.0
 10
6.816328
 20
4.923179
 30
0.0
 10
6.644073
 20
4.923179
 30
0.0
  0
LWPOLYLINE
  5
119
100
AcDbEntity
  8
0
 62
7
100
AcDbPolyline
 90
2
 70
0
 10
5.970764
 20
4.311882
 30
0.0
 10
7.222849
 20
4.311882
 30
0.0
  0
SPLINE
  5
11a
100
AcDbEntity
  8
0
 62
7
100
AcDbSpline
 70
8
 71
3
 72
8
 73
4
 74
0
 40
0
 40
0
 40
0
 40
0
 40
1
 40
1
 40
1
 40
1
 10
18.036315
 20
3.730349
 30
0.0
 10
17.934891
 20
3.661999
 30
0.0
 10
17.884180
 20
3.561677
 30
0.0
 10
17.884180
 20
3.428835
 30
0.0
  0
SPLINE
  5
11b
100
AcDbEntity
  8
0
 62
7
100
AcDbSpline
 70
8
 71
3
 72
8
 73
4
 74
0
 40
0
 40
0
 40
0
 40
0
 40
1
 40
1
 40
1
 40
1
 10
17.884180
 20
3.428835
 30
0.0
 10
17.884180
 20
3.306740
 30
0.0
 10
17.924970
 20
3.211105
 30
0.0
 10
18.006549
 20
3.141927
 30
0.0
  0
SPLINE
  5
11c
100
AcDbEntity
  8
0
 62
7
100
AcDbSpline
 70
8
 71
3
 72
8
 73
4
 74
0
 40
0
 40
0
 40
0
 40
0
 40
1
 40
1
 40
1
 40
1
 10
18.006549
 20
3.141927
 30
0.0
 10
18.088405
 20
3.072750
 30
0.0
 10
18.201955
 20
3.038299
 30
0.0
 10
18.347201
 20
3.038299
 30
0.0
  0
SPLINE
  5
11d
100
AcDbEntity
  8
0
 62
7
100
AcDbSpline
 70
8
 71
3
 72
8
 73
4
 74
0
 40
0
 40
0
 40
0
 40
0
 40
1
 40
1
 40
1
 40
1
 10
18.347201
 20
3.038299
 30
0.0
 10
18.528550
 20
3.038299
 30
0.0
 10
18.681237
 20
3.103342
 30
0.0
 10
18.804985
 20
3.233429
 30
0.0
  0
SPLINE
  5
11e
100
AcDbEntity
  8
0
 62
7
100
AcDbSpline
 70
8
 71
3
 72
8
 73
4
 74
0
 40
0
 40
0
 40
0
 40
0
 40
1
 40
1
 40
1
 40
1
 10
18.804985
 20
3.233429
 30
0.0
 10
18.929008
 20
3.363516
 30
0.0
 10
18.991020
 20
3.526675
 30
0.0
 10
18.991020
 20
3.722357
 30
0.0
  0
LWPOLYLINE
  5
11f
100
AcDbEntity
  8
0
 62
7
100
AcDbPolyline
 90
2
 70
0
 10
6.644073
 20
4.923179
 30
0.0
 10
6.644073
 20
4.923179
 30
0.0
  0
SPLINE
  5
120
100
AcDbEntity
  8
0
 62
7
100
AcDbSpline
 70
8
 71
3
 72
8
 73
4
 74
0
 40
0
 40
0
 40
0
 40
0
 40
1
 40
1
 40
1
 40
1
 10
18.489965
 20
3.832600
 30
0.0
 10
18.289047
 20
3.832600
 30
0.0
 10
18.137739
 20
3.798424
 30
0.0
 10
18.036315
 20
3.730349
 30
0.0
  0
LWPOLYLINE
  5
121
100
AcDbEntity
  8
0
 62
7
100
AcDbPolyline
 90
3
 70
0
 10
18.991020
 20
3.722357
 30
0.0
 10
18.991020
 20
3.832600
 30
0.0
 10
18.489965
 20
3.832600
 30
0.0
  0
LWPOLYLINE
  5
122
100
AcDbEntity
  8
0
 62
7
100
AcDbPolyline
 90
2
 70
0
 10
18.036315
 20
3.730349
 30
0.0
 10
18.036315
 20
3.730349
 30
0.0
  0
LWPOLYLINE
  5
123
100
AcDbEntity
  8
0
 62
7
100
AcDbPolyline
 90
84
 70
0
 10
22.837676
 20
30.934064
 30
0.0
 10
1.999947
 20
30.934064
 30
0.0
 10
1.796220
 20
30.923688
 30
0.0
 10
1.598206
 20
30.893244
 30
0.0
 10
1.406928
 20
30.843757
 30
0.0
 10
1.223414
 20
30.776252
 30
0.0
 10
1.048687
 20
30.691756
 30
0.0
 10
0.883775
 20
30.591294
 30
0.0
 10
0.729701
 20
30.475890
 30
0.0
 10
0.587492
 20
30.346571
 30
0.0
 10
0.458173
 20
30.204362
 30
0.0
 10
0.342770
 20
30.050289
 30
0.0
 10
0.242307
 20
29.885376
 30
0.0
 10
0.157811
 20
29.710650
 30
0.0
 10
0.090307
 20
29.527135
 30
0.0
 10
0.040820
 20
29.335858
 30
0.0
 10
0.010376
 20
29.137843
 30
0.0
 10
0.000000
 20
28.934117
 30
0.0
 10
0.000000
 20
2.000085
 30
0.0
 10
0.010376
 20
1.796358
 30
0.0
 10
0.040820
 20
1.598336
 30
0.0
 10
0.090307
 20
1.407055
 30
0.0
 10
0.157811
 20
1.223531
 30
0.0
 10
0.242307
 20
1.048793
 30
0.0
 10
0.342770
 20
0.883868
 30
0.0
 10
0.458173
 20
0.729783
 30
0.0
 10
0.587492
 20
0.587560
 30
0.0
 10
0.729701
 20
0.458229
 30
0.0
 10
0.883775
 20
0.342814
 30
0.0
 10
1.048687
 20
0.242340
 30
0.0
 10
1.223414
 20
0.157832
 30
0.0
 10
1.406928
 20
0.090319
 30
0.0
 10
1.598206
 20
0.040825
 30
0.0
 10
1.796220
 20
0.010376
 30
0.0
 10
1.999947
 20
-0.000009
 30
0.0
 10
3.302305
 20
-0.000009
 30
0.0
 10
4.604663
 20
-0.000009
 30
0.0
 10
5.907021
 20
-0.000009
 30
0.0
 10
7.209379
 20
-0.000009
 30
0.0
 10
8.511737
 20
-0.000009
 30
0.0
 10
9.814095
 20
-0.000009
 30
0.0
 10
11.116453
 20
-0.000009
 30
0.0
 10
12.418811
 20
-0.000009
 30
0.0
 10
13.721169
 20
-0.000009
 30
0.0
 10
15.023527
 20
-0.000009
 30
0.0
 10
16.325886
 20
-0.000009
 30
0.0
 10
17.628243
 20
-0.000009
 30
0.0
 10
18.930602
 20
-0.000009
 30
0.0
 10
20.232960
 20
-0.000009
 30
0.0
 10
21.535318
 20
-0.000009
 30
0.0
 10
22.837676
 20
-0.000009
 30
0.0
 10
23.041404
 20
0.010376
 30
0.0
 10
23.239423
 20
0.040825
 30
0.0
 10
23.430707
 20
0.090319
 30
0.0
 10
23.614230
 20
0.157832
 30
0.0
 10
23.788967
 20
0.242340
 30
0.0
 10
23.953892
 20
0.342814
 30
0.0
 10
24.107978
 20
0.458229
 30
0.0
 10
24.250199
 20
0.587560
 30
0.0
 10
24.379531
 20
0.729783
 30
0.0
 10
24.494947
 20
0.883868
 30
0.0
 10
24.595421
 20
1.048793
 30
0.0
 10
24.679928
 20
1.223531
 30
0.0
 10
24.747441
 20
1.407055
 30
0.0
 10
24.796935
 20
1.598336
 30
0.0
 10
24.827383
 20
1.796358
 30
0.0
 10
24.837760
 20
2.000085
 30
0.0
 10
24.837760
 20
28.934117
 30
0.0
 10
24.827383
 20
29.137843
 30
0.0
 10
24.796935
 20
29.335858
 30
0.0
 10
24.747441
 20
29.527135
 30
0.0
 10
24.679928
 20
29.710650
 30
0.0
 10
24.595421
 20
29.885376
 30
0.0
 10
24.494947
 20
30.050289
 30
0.0
 10
24.379531
 20
30.204362
 30
0.0
 10
24.250199
 20
30.346571
 30
0.0
 10
24.107978
 20
30.475890
 30
0.0
 10
23.953892
 20
30.591294
 30
0.0
 10
23.788967
 20
30.691756
 30
0.0
 10
23.614230
 20
30.776252
 30
0.0
 10
23.430707
 20
30.843757
 30
0.0
 10
23.239423
 20
30.893244
 30
0.0
 10
23.041404
 20
30.923688
 30
0.0
 10
22.837676
 20
30.934064
 30
0.0
  0
LWPOLYLINE
  5
124
100
AcDbEntity
  8
0
 62
7
100
AcDbPolyline
 90
257
 70
0
 10
3.525573
 20
2.475508
 30
0.0
 10
3.494946
 20
2.537950
 30
0.0
 10
3.464319
 20
2.600392
 30
0.0
 10
3.433692
 20
2.662836
 30
0.0
 10
3.403065
 20
2.725277
 30
0.0
 10
3.372438
 20
2.787720
 30
0.0
 10
3.341811
 20
2.850162
 30
0.0
 10
3.311185
 20
2.912604
 30
0.0
 10
3.280558
 20
2.975047
 30
0.0
 10
3.249931
 20
3.037489
 30
0.0
 10
3.219304
 20
3.099931
 30
0.0
 10
3.188677
 20
3.162374
 30
0.0
 10
3.158050
 20
3.224816
 30
0.0
 10
3.127423
 20
3.287258
 30
0.0
 10
3.096796
 20
3.349701
 30
0.0
 10
3.066169
 20
3.412143
 30
0.0
 10
3.035542
 20
3.474586
 30
0.0
 10
3.017023
 20
3.511512
 30
0.0
 10
2.998467
 20
3.546946
 30
0.0
 10
2.979871
 20
3.580889
 30
0.0
 10
2.961242
 20
3.613341
 30
0.0
 10
2.942576
 20
3.644302
 30
0.0
 10
2.923876
 20
3.673774
 30
0.0
 10
2.905142
 20
3.701756
 30
0.0
 10
2.886374
 20
3.728249
 30
0.0
 10
2.867572
 20
3.753251
 30
0.0
 10
2.848740
 20
3.776765
 30
0.0
 10
2.829876
 20
3.798793
 30
0.0
 10
2.810984
 20
3.819333
 30
0.0
 10
2.792062
 20
3.838386
 30
0.0
 10
2.773112
 20
3.855951
 30
0.0
 10
2.754135
 20
3.872030
 30
0.0
 10
2.735131
 20
3.886620
 30
0.0
 10
2.715720
 20
3.899986
 30
0.0
 10
2.695521
 20
3.912486
 30
0.0
 10
2.674534
 20
3.924122
 30
0.0
 10
2.652759
 20
3.934892
 30
0.0
 10
2.630196
 20
3.944798
 30
0.0
 10
2.606844
 20
3.953840
 30
0.0
 10
2.582705
 20
3.962019
 30
0.0
 10
2.557778
 20
3.969337
 30
0.0
 10
2.532062
 20
3.975791
 30
0.0
 10
2.505559
 20
3.981385
 30
0.0
 10
2.478267
 20
3.986115
 30
0.0
 10
2.450187
 20
3.989984
 30
0.0
 10
2.421320
 20
3.992993
 30
0.0
 10
2.391664
 20
3.995138
 30
0.0
 10
2.361220
 20
3.996436
 30
0.0
 10
2.329988
 20
3.996859
 30
0.0
 10
2.311643
 20
3.996859
 30
0.0
 10
2.293298
 20
3.996859
 30
0.0
 10
2.274953
 20
3.996859
 30
0.0
 10
2.256608
 20
3.996859
 30
0.0
 10
2.238263
 20
3.996859
 30
0.0
 10
2.219918
 20
3.996859
 30
0.0
 10
2.201573
 20
3.996859
 30
0.0
 10
2.183227
 20
3.996859
 30
0.0
 10
2.164882
 20
3.996859
 30
0.0
 10
2.146537
 20
3.996859
 30
0.0
 10
2.128192
 20
3.996859
 30
0.0
 10
2.109847
 20
3.996859
 30
0.0
 10
2.091502
 20
3.996859
 30
0.0
 10
2.073157
 20
3.996859
 30
0.0
 10
2.054812
 20
3.996859
 30
0.0
 10
2.036467
 20
3.996859
 30
0.0
 10
2.036467
 20
3.901775
 30
0.0
 10
2.036467
 20
3.806690
 30
0.0
 10
2.036467
 20
3.711605
 30
0.0
 10
2.036467
 20
3.616520
 30
0.0
 10
2.036467
 20
3.521436
 30
0.0
 10
2.036467
 20
3.426351
 30
0.0
 10
2.036467
 20
3.331267
 30
0.0
 10
2.036467
 20
3.236182
 30
0.0
 10
2.036467
 20
3.141097
 30
0.0
 10
2.036467
 20
3.046013
 30
0.0
 10
2.036467
 20
2.950928
 30
0.0
 10
2.036467
 20
2.855844
 30
0.0
 10
2.036467
 20
2.760759
 30
0.0
 10
2.036467
 20
2.665675
 30
0.0
 10
2.036467
 20
2.570589
 30
0.0
 10
2.036467
 20
2.475506
 30
0.0
 10
1.971664
 20
2.475506
 30
0.0
 10
1.906862
 20
2.475506
 30
0.0
 10
1.842060
 20
2.475506
 30
0.0
 10
1.777258
 20
2.475506
 30
0.0
 10
1.712455
 20
2.475506
 30
0.0
 10
1.647653
 20
2.475506
 30
0.0
 10
1.582851
 20
2.475506
 30
0.0
 10
1.518049
 20
2.475506
 30
0.0
 10
1.453246
 20
2.475506
 30
0.0
 10
1.388444
 20
2.475506
 30
0.0
 10
1.323642
 20
2.475506
 30
0.0
 10
1.258840
 20
2.475506
 30
0.0
 10
1.194037
 20
2.475506
 30
0.0
 10
1.129235
 20
2.475506
 30
0.0
 10
1.064433
 20
2.475506
 30
0.0
 10
0.999631
 20
2.475506
 30
0.0
 10
0.999631
 20
2.726790
 30
0.0
 10
0.999631
 20
2.978075
 30
0.0
 10
0.999631
 20
3.229361
 30
0.0
 10
0.999631
 20
3.480646
 30
0.0
 10
0.999631
 20
3.731931
 30
0.0
 10
0.999631
 20
3.983217
 30
0.0
 10
0.999631
 20
4.234502
 30
0.0
 10
0.999631
 20
4.485787
 30
0.0
 10
0.999631
 20
4.737072
 30
0.0
 10
0.999631
 20
4.988358
 30
0.0
 10
0.999631
 20
5.239643
 30
0.0
 10
0.999631
 20
5.490928
 30
0.0
 10
0.999631
 20
5.742213
 30
0.0
 10
0.999631
 20
5.993499
 30
0.0
 10
0.999631
 20
6.244784
 30
0.0
 10
0.999631
 20
6.496069
 30
0.0
 10
1.098591
 20
6.496069
 30
0.0
 10
1.197551
 20
6.496069
 30
0.0
 10
1.296512
 20
6.496069
 30
0.0
 10
1.395472
 20
6.496069
 30
0.0
 10
1.494433
 20
6.496069
 30
0.0
 10
1.593393
 20
6.496069
 30
0.0
 10
1.692353
 20
6.496069
 30
0.0
 10
1.791314
 20
6.496069
 30
0.0
 10
1.890274
 20
6.496069
 30
0.0
 10
1.989234
 20
6.496069
 30
0.0
 10
2.088195
 20
6.496069
 30
0.0
 10
2.187155
 20
6.496069
 30
0.0
 10
2.286116
 20
6.496069
 30
0.0
 10
2.385076
 20
6.496069
 30
0.0
 10
2.484036
 20
6.496069
 30
0.0
 10
2.582997
 20
6.496069
 30
0.0
 10
2.680662
 20
6.495025
 30
0.0
 10
2.775013
 20
6.491895
 30
0.0
 10
2.866049
 20
6.486680
 30
0.0
 10
2.953771
 20
6.479378
 30
0.0
 10
3.038177
 20
6.469995
 30
0.0
 10
3.119267
 20
6.458525
 30
0.0
 10
3.197041
 20
6.444973
 30
0.0
 10
3.271499
 20
6.429335
 30
0.0
 10
3.342639
 20
6.411614
 30
0.0
 10
3.410463
 20
6.391811
 30
0.0
 10
3.474968
 20
6.369924
 30
0.0
 10
3.536155
 20
6.345958
 30
0.0
 10
3.594024
 20
6.319909
 30
0.0
 10
3.648574
 20
6.291780
 30
0.0
 10
3.699804
 20
6.261569
 30
0.0
 10
3.747714
 20
6.229278
 30
0.0
 10
3.792569
 20
6.194738
 30
0.0
 10
3.834531
 20
6.157783
 30
0.0
 10
3.873598
 20
6.118411
 30
0.0
 10
3.909772
 20
6.076621
 30
0.0
 10
3.943051
 20
6.032414
 30
0.0
 10
3.973437
 20
5.985790
 30
0.0
 10
4.000928
 20
5.936747
 30
0.0
 10
4.025527
 20
5.885285
 30
0.0
 10
4.047230
 20
5.831404
 30
0.0
 10
4.066040
 20
5.775104
 30
0.0
 10
4.081957
 20
5.716383
 30
0.0
 10
4.094979
 20
5.655243
 30
0.0
 10
4.105108
 20
5.591682
 30
0.0
 10
4.112341
 20
5.525699
 30
0.0
 10
4.116682
 20
5.457295
 30
0.0
 10
4.118121
 20
5.386470
 30
0.0
 10
4.117359
 20
5.337209
 30
0.0
 10
4.115101
 20
5.289061
 30
0.0
 10
4.111339
 20
5.242025
 30
0.0
 10
4.106070
 20
5.196102
 30
0.0
 10
4.099297
 20
5.151294
 30
0.0
 10
4.091019
 20
5.107601
 30
0.0
 10
4.081238
 20
5.065024
 30
0.0
 10
4.069949
 20
5.023563
 30
0.0
 10
4.057156
 20
4.983220
 30
0.0
 10
4.042858
 20
4.943995
 30
0.0
 10
4.027054
 20
4.905890
 30
0.0
 10
4.009745
 20
4.868904
 30
0.0
 10
3.990932
 20
4.833039
 30
0.0
 10
3.970612
 20
4.798296
 30
0.0
 10
3.948788
 20
4.764675
 30
0.0
 10
3.925459
 20
4.732177
 30
0.0
 10
3.900618
 20
4.700716
 30
0.0
 10
3.874259
 20
4.670307
 30
0.0
 10
3.846381
 20
4.640952
 30
0.0
 10
3.816982
 20
4.612649
 30
0.0
 10
3.786061
 20
4.585401
 30
0.0
 10
3.753619
 20
4.559205
 30
0.0
 10
3.719653
 20
4.534062
 30
0.0
 10
3.684164
 20
4.509971
 30
0.0
 10
3.647151
 20
4.486933
 30
0.0
 10
3.608612
 20
4.464948
 30
0.0
 10
3.568548
 20
4.444016
 30
0.0
 10
3.526956
 20
4.424136
 30
0.0
 10
3.483837
 20
4.405309
 30
0.0
 10
3.439189
 20
4.387535
 30
0.0
 10
3.393012
 20
4.370813
 30
0.0
 10
3.345305
 20
4.355147
 30
0.0
 10
3.371696
 20
4.348619
 30
0.0
 10
3.397745
 20
4.341129
 30
0.0
 10
3.423450
 20
4.332679
 30
0.0
 10
3.448810
 20
4.323267
 30
0.0
 10
3.473826
 20
4.312895
 30
0.0
 10
3.498498
 20
4.301561
 30
0.0
 10
3.522826
 20
4.289268
 30
0.0
 10
3.546809
 20
4.276015
 30
0.0
 10
3.570445
 20
4.261802
 30
0.0
 10
3.593737
 20
4.246630
 30
0.0
 10
3.616681
 20
4.230501
 30
0.0
 10
3.639279
 20
4.213412
 30
0.0
 10
3.661529
 20
4.195367
 30
0.0
 10
3.683433
 20
4.176365
 30
0.0
 10
3.704989
 20
4.156406
 30
0.0
 10
3.726195
 20
4.135490
 30
0.0
 10
3.747243
 20
4.113457
 30
0.0
 10
3.768325
 20
4.090041
 30
0.0
 10
3.789438
 20
4.065245
 30
0.0
 10
3.810582
 20
4.039066
 30
0.0
 10
3.831760
 20
4.011507
 30
0.0
 10
3.852969
 20
3.982568
 30
0.0
 10
3.874212
 20
3.952249
 30
0.0
 10
3.895486
 20
3.920551
 30
0.0
 10
3.916794
 20
3.887473
 30
0.0
 10
3.938133
 20
3.853017
 30
0.0
 10
3.959505
 20
3.817182
 30
0.0
 10
3.980909
 20
3.779969
 30
0.0
 10
4.002344
 20
3.741379
 30
0.0
 10
4.023812
 20
3.701412
 30
0.0
 10
4.045312
 20
3.660068
 30
0.0
 10
4.066846
 20
3.617348
 30
0.0
 10
4.102020
 20
3.545982
 30
0.0
 10
4.137195
 20
3.474617
 30
0.0
 10
4.172369
 20
3.403252
 30
0.0
 10
4.207543
 20
3.331887
 30
0.0
 10
4.242718
 20
3.260522
 30
0.0
 10
4.277892
 20
3.189157
 30
0.0
 10
4.313067
 20
3.117792
 30
0.0
 10
4.348241
 20
3.046427
 30
0.0
 10
4.383415
 20
2.975061
 30
0.0
 10
4.418590
 20
2.903696
 30
0.0
 10
4.453764
 20
2.832331
 30
0.0
 10
4.488939
 20
2.760966
 30
0.0
 10
4.524113
 20
2.689599
 30
0.0
 10
4.559288
 20
2.618234
 30
0.0
 10
4.594462
 20
2.546871
 30
0.0
 10
4.629637
 20
2.475506
 30
0.0
 10
4.560631
 20
2.475506
 30
0.0
 10
4.491626
 20
2.475506
 30
0.0
 10
4.422621
 20
2.475506
 30
0.0
 10
4.353616
 20
2.475506
 30
0.0
 10
4.284610
 20
2.475506
 30
0.0
 10
4.215605
 20
2.475506
 30
0.0
 10
4.146600
 20
2.475506
 30
0.0
 10
4.077594
 20
2.475506
 30
0.0
 10
4.008589
 20
2.475506
 30
0.0
 10
3.939584
 20
2.475506
 30
0.0
 10
3.870579
 20
2.475506
 30
0.0
 10
3.801573
 20
2.475506
 30
0.0
 10
3.732568
 20
2.475506
 30
0.0
 10
3.663563
 20
2.475506
 30
0.0
 10
3.594557
 20
2.475506
 30
0.0
 10
3.525573
 20
2.475508
 30
0.0
  0
LWPOLYLINE
  5
125
100
AcDbEntity
  8
0
 62
7
100
AcDbPolyline
 90
241
 70
0
 10
8.213934
 20
3.716845
 30
0.0
 10
8.073065
 20
3.716845
 30
0.0
 10
7.932195
 20
3.716845
 30
0.0
 10
7.791325
 20
3.716845
 30
0.0
 10
7.650455
 20
3.716845
 30
0.0
 10
7.509585
 20
3.716845
 30
0.0
 10
7.368715
 20
3.716845
 30
0.0
 10
7.227845
 20
3.716845
 30
0.0
 10
7.086975
 20
3.716845
 30
0.0
 10
6.946105
 20
3.716845
 30
0.0
 10
6.805235
 20
3.716845
 30
0.0
 10
6.664365
 20
3.716845
 30
0.0
 10
6.523495
 20
3.716845
 30
0.0
 10
6.382625
 20
3.716845
 30
0.0
 10
6.241755
 20
3.716845
 30
0.0
 10
6.100885
 20
3.716845
 30
0.0
 10
5.960015
 20
3.716845
 30
0.0
 10
5.965090
 20
3.675084
 30
0.0
 10
5.971527
 20
3.634652
 30
0.0
 10
5.979328
 20
3.595550
 30
0.0
 10
5.988491
 20
3.557776
 30
0.0
 10
5.999021
 20
3.521329
 30
0.0
 10
6.010917
 20
3.486209
 30
0.0
 10
6.024178
 20
3.452415
 30
0.0
 10
6.038803
 20
3.419946
 30
0.0
 10
6.054797
 20
3.388801
 30
0.0
 10
6.072156
 20
3.358980
 30
0.0
 10
6.090882
 20
3.330481
 30
0.0
 10
6.110976
 20
3.303303
 30
0.0
 10
6.132436
 20
3.277446
 30
0.0
 10
6.155265
 20
3.252909
 30
0.0
 10
6.179463
 20
3.229694
 30
0.0
 10
6.205029
 20
3.207796
 30
0.0
 10
6.231933
 20
3.187270
 30
0.0
 10
6.260142
 20
3.168071
 30
0.0
 10
6.289655
 20
3.150195
 30
0.0
 10
6.320474
 20
3.133642
 30
0.0
 10
6.352597
 20
3.118414
 30
0.0
 10
6.386025
 20
3.104508
 30
0.0
 10
6.420758
 20
3.091930
 30
0.0
 10
6.456796
 20
3.080675
 30
0.0
 10
6.494139
 20
3.070743
 30
0.0
 10
6.532787
 20
3.062136
 30
0.0
 10
6.572739
 20
3.054851
 30
0.0
 10
6.613996
 20
3.048894
 30
0.0
 10
6.656558
 20
3.044260
 30
0.0
 10
6.700425
 20
3.040949
 30
0.0
 10
6.745597
 20
3.038974
 30
0.0
 10
6.792073
 20
3.038324
 30
0.0
 10
6.830165
 20
3.038663
 30
0.0
 10
6.868373
 20
3.039707
 30
0.0
 10
6.906698
 20
3.041457
 30
0.0
 10
6.945139
 20
3.043912
 30
0.0
 10
6.983696
 20
3.047082
 30
0.0
 10
7.022369
 20
3.050954
 30
0.0
 10
7.061159
 20
3.055532
 30
0.0
 10
7.100065
 20
3.060812
 30
0.0
 10
7.139087
 20
3.066798
 30
0.0
 10
7.178225
 20
3.073487
 30
0.0
 10
7.217480
 20
3.080881
 30
0.0
 10
7.256851
 20
3.088978
 30
0.0
 10
7.296338
 20
3.097777
 30
0.0
 10
7.335942
 20
3.107283
 30
0.0
 10
7.375661
 20
3.117493
 30
0.0
 10
7.415498
 20
3.128407
 30
0.0
 10
7.455459
 20
3.140037
 30
0.0
 10
7.495557
 20
3.152399
 30
0.0
 10
7.535791
 20
3.165488
 30
0.0
 10
7.576160
 20
3.179306
 30
0.0
 10
7.616664
 20
3.193852
 30
0.0
 10
7.657304
 20
3.209125
 30
0.0
 10
7.698080
 20
3.225127
 30
0.0
 10
7.738992
 20
3.241855
 30
0.0
 10
7.780039
 20
3.259310
 30
0.0
 10
7.821222
 20
3.277491
 30
0.0
 10
7.862541
 20
3.296400
 30
0.0
 10
7.903995
 20
3.316031
 30
0.0
 10
7.945585
 20
3.336391
 30
0.0
 10
7.987310
 20
3.357473
 30
0.0
 10
8.029171
 20
3.379280
 30
0.0
 10
8.071168
 20
3.401810
 30
0.0
 10
8.071168
 20
3.355353
 30
0.0
 10
8.071168
 20
3.308896
 30
0.0
 10
8.071168
 20
3.262439
 30
0.0
 10
8.071168
 20
3.215981
 30
0.0
 10
8.071168
 20
3.169524
 30
0.0
 10
8.071168
 20
3.123067
 30
0.0
 10
8.071168
 20
3.076610
 30
0.0
 10
8.071168
 20
3.030153
 30
0.0
 10
8.071168
 20
2.983696
 30
0.0
 10
8.071168
 20
2.937239
 30
0.0
 10
8.071168
 20
2.890782
 30
0.0
 10
8.071168
 20
2.844324
 30
0.0
 10
8.071168
 20
2.797867
 30
0.0
 10
8.071168
 20
2.751410
 30
0.0
 10
8.071168
 20
2.704955
 30
0.0
 10
8.071168
 20
2.658499
 30
0.0
 10
8.028431
 20
2.642581
 30
0.0
 10
7.985695
 20
2.627144
 30
0.0
 10
7.942957
 20
2.612214
 30
0.0
 10
7.900218
 20
2.597793
 30
0.0
 10
7.857478
 20
2.583851
 30
0.0
 10
7.814735
 20
2.570417
 30
0.0
 10
7.771990
 20
2.557463
 30
0.0
 10
7.729242
 20
2.545017
 30
0.0
 10
7.686491
 20
2.533079
 30
0.0
 10
7.643737
 20
2.521621
 30
0.0
 10
7.600978
 20
2.510671
 30
0.0
 10
7.558215
 20
2.500228
 30
0.0
 10
7.515447
 20
2.490266
 30
0.0
 10
7.472674
 20
2.480811
 30
0.0
 10
7.429895
 20
2.471837
 30
0.0
 10
7.387110
 20
2.463370
 30
0.0
 10
7.344374
 20
2.455355
 30
0.0
 10
7.301637
 20
2.447848
 30
0.0
 10
7.258901
 20
2.440877
 30
0.0
 10
7.216164
 20
2.434414
 30
0.0
 10
7.173428
 20
2.428459
 30
0.0
 10
7.130691
 20
2.423041
 30
0.0
 10
7.087955
 20
2.418130
 30
0.0
 10
7.045219
 20
2.413727
 30
0.0
 10
7.002482
 20
2.409861
 30
0.0
 10
6.959746
 20
2.406502
 30
0.0
 10
6.917009
 20
2.403652
 30
0.0
 10
6.874273
 20
2.401394
 30
0.0
 10
6.831537
 20
2.399701
 30
0.0
 10
6.788800
 20
2.398290
 30
0.0
 10
6.746064
 20
2.397443
 30
0.0
 10
6.703327
 20
2.397183
 30
0.0
 10
6.602384
 20
2.398877
 30
0.0
 10
6.504295
 20
2.403759
 30
0.0
 10
6.409062
 20
2.411887
 30
0.0
 10
6.316684
 20
2.423289
 30
0.0
 10
6.227161
 20
2.437936
 30
0.0
 10
6.140493
 20
2.455829
 30
0.0
 10
6.056681
 20
2.476968
 30
0.0
 10
5.975723
 20
2.501352
 30
0.0
 10
5.897621
 20
2.528981
 30
0.0
 10
5.822373
 20
2.559873
 30
0.0
 10
5.749981
 20
2.594014
 30
0.0
 10
5.680444
 20
2.631400
 30
0.0
 10
5.613762
 20
2.672031
 30
0.0
 10
5.549935
 20
2.715907
 30
0.0
 10
5.488963
 20
2.763028
 30
0.0
 10
5.430847
 20
2.813393
 30
0.0
 10
5.375882
 20
2.866691
 30
0.0
 10
5.324470
 20
2.922611
 30
0.0
 10
5.276608
 20
2.981154
 30
0.0
 10
5.232297
 20
3.042320
 30
0.0
 10
5.191536
 20
3.106108
 30
0.0
 10
5.154323
 20
3.172519
 30
0.0
 10
5.120658
 20
3.241552
 30
0.0
 10
5.090540
 20
3.313208
 30
0.0
 10
5.063969
 20
3.387486
 30
0.0
 10
5.040943
 20
3.464387
 30
0.0
 10
5.021461
 20
3.543911
 30
0.0
 10
5.005524
 20
3.626057
 30
0.0
 10
4.993129
 20
3.710826
 30
0.0
 10
4.984275
 20
3.798217
 30
0.0
 10
4.978964
 20
3.888231
 30
0.0
 10
4.977186
 20
3.980867
 30
0.0
 10
4.978936
 20
4.071830
 30
0.0
 10
4.984160
 20
4.160339
 30
0.0
 10
4.992863
 20
4.246392
 30
0.0
 10
5.005050
 20
4.329989
 30
0.0
 10
5.020716
 20
4.411130
 30
0.0
 10
5.039865
 20
4.489814
 30
0.0
 10
5.062496
 20
4.566041
 30
0.0
 10
5.088610
 20
4.639811
 30
0.0
 10
5.118204
 20
4.711122
 30
0.0
 10
5.151281
 20
4.779976
 30
0.0
 10
5.187838
 20
4.846371
 30
0.0
 10
5.227878
 20
4.910306
 30
0.0
 10
5.271399
 20
4.971783
 30
0.0
 10
5.318402
 20
5.030799
 30
0.0
 10
5.368887
 20
5.087355
 30
0.0
 10
5.422853
 20
5.141451
 30
0.0
 10
5.479869
 20
5.192617
 30
0.0
 10
5.539500
 20
5.240488
 30
0.0
 10
5.601749
 20
5.285063
 30
0.0
 10
5.666615
 20
5.326341
 30
0.0
 10
5.734099
 20
5.364321
 30
0.0
 10
5.804201
 20
5.399003
 30
0.0
 10
5.876921
 20
5.430386
 30
0.0
 10
5.952261
 20
5.458470
 30
0.0
 10
6.030220
 20
5.483252
 30
0.0
 10
6.110798
 20
5.504732
 30
0.0
 10
6.193997
 20
5.522910
 30
0.0
 10
6.279816
 20
5.537786
 30
0.0
 10
6.368257
 20
5.549357
 30
0.0
 10
6.459318
 20
5.557623
 30
0.0
 10
6.553002
 20
5.562582
 30
0.0
 10
6.649307
 20
5.564247
 30
0.0
 10
6.737080
 20
5.562582
 30
0.0
 10
6.822630
 20
5.557564
 30
0.0
 10
6.905958
 20
5.549199
 30
0.0
 10
6.987064
 20
5.537486
 30
0.0
 10
7.065948
 20
5.522430
 30
0.0
 10
7.142610
 20
5.504026
 30
0.0
 10
7.217050
 20
5.482278
 30
0.0
 10
7.289268
 20
5.457183
 30
0.0
 10
7.359264
 20
5.428741
 30
0.0
 10
7.427037
 20
5.396954
 30
0.0
 10
7.492589
 20
5.361821
 30
0.0
 10
7.555918
 20
5.323341
 30
0.0
 10
7.617026
 20
5.281515
 30
0.0
 10
7.675911
 20
5.236344
 30
0.0
 10
7.732574
 20
5.187826
 30
0.0
 10
7.787015
 20
5.135962
 30
0.0
 10
7.838727
 20
5.081347
 30
0.0
 10
7.887100
 20
5.024472
 30
0.0
 10
7.932134
 20
4.965339
 30
0.0
 10
7.973830
 20
4.903948
 30
0.0
 10
8.012188
 20
4.840301
 30
0.0
 10
8.047208
 20
4.774400
 30
0.0
 10
8.078891
 20
4.706245
 30
0.0
 10
8.107237
 20
4.635838
 30
0.0
 10
8.132247
 20
4.563179
 30
0.0
 10
8.153922
 20
4.488271
 30
0.0
 10
8.172261
 20
4.411114
 30
0.0
 10
8.187264
 20
4.331709
 30
0.0
 10
8.198931
 20
4.250058
 30
0.0
 10
8.207265
 20
4.166162
 30
0.0
 10
8.212266
 20
4.080022
 30
0.0
 10
8.213931
 20
3.991639
 30
0.0
 10
8.213931
 20
3.974466
 30
0.0
 10
8.213931
 20
3.957293
 30
0.0
 10
8.213931
 20
3.940120
 30
0.0
 10
8.213931
 20
3.922946
 30
0.0
 10
8.213931
 20
3.905773
 30
0.0
 10
8.213931
 20
3.888600
 30
0.0
 10
8.213931
 20
3.871427
 30
0.0
 10
8.213931
 20
3.854253
 30
0.0
 10
8.213931
 20
3.837080
 30
0.0
 10
8.213931
 20
3.819907
 30
0.0
 10
8.213931
 20
3.802734
 30
0.0
 10
8.213931
 20
3.785561
 30
0.0
 10
8.213931
 20
3.768387
 30
0.0
 10
8.213931
 20
3.751214
 30
0.0
 10
8.213931
 20
3.734041
 30
0.0
 10
8.213934
 20
3.716845
 30
0.0
  0
LWPOLYLINE
  5
126
100
AcDbEntity
  8
0
 62
7
100
AcDbPolyline
 90
210
 70
0
 10
11.822465
 20
2.840412
 30
0.0
 10
11.776887
 20
2.786746
 30
0.0
 10
11.729757
 20
2.736543
 30
0.0
 10
11.681077
 20
2.689803
 30
0.0
 10
11.630845
 20
2.646521
 30
0.0
 10
11.579061
 20
2.606705
 30
0.0
 10
11.525725
 20
2.570352
 30
0.0
 10
11.470836
 20
2.537459
 30
0.0
 10
11.414394
 20
2.508029
 30
0.0
 10
11.356398
 20
2.482064
 30
0.0
 10
11.296849
 20
2.459571
 30
0.0
 10
11.235745
 20
2.440521
 30
0.0
 10
11.173086
 20
2.424943
 30
0.0
 10
11.108873
 20
2.412835
 30
0.0
 10
11.043104
 20
2.404171
 30
0.0
 10
10.975778
 20
2.398978
 30
0.0
 10
10.906897
 20
2.397285
 30
0.0
 10
10.867800
 20
2.397849
 30
0.0
 10
10.829267
 20
2.399260
 30
0.0
 10
10.791297
 20
2.401800
 30
0.0
 10
10.753892
 20
2.405244
 30
0.0
 10
10.717051
 20
2.409646
 30
0.0
 10
10.680777
 20
2.415037
 30
0.0
 10
10.645069
 20
2.421415
 30
0.0
 10
10.609929
 20
2.428753
 30
0.0
 10
10.575358
 20
2.437078
 30
0.0
 10
10.541356
 20
2.446392
 30
0.0
 10
10.507924
 20
2.456693
 30
0.0
 10
10.475063
 20
2.467953
 30
0.0
 10
10.442773
 20
2.480202
 30
0.0
 10
10.411056
 20
2.493410
 30
0.0
 10
10.379912
 20
2.507606
 30
0.0
 10
10.349342
 20
2.522761
 30
0.0
 10
10.319228
 20
2.538960
 30
0.0
 10
10.289449
 20
2.556232
 30
0.0
 10
10.260007
 20
2.574577
 30
0.0
 10
10.230900
 20
2.594022
 30
0.0
 10
10.202129
 20
2.614540
 30
0.0
 10
10.173694
 20
2.636130
 30
0.0
 10
10.145596
 20
2.658820
 30
0.0
 10
10.117834
 20
2.682583
 30
0.0
 10
10.090408
 20
2.707447
 30
0.0
 10
10.063317
 20
2.733389
 30
0.0
 10
10.036562
 20
2.760417
 30
0.0
 10
10.010144
 20
2.788535
 30
0.0
 10
9.984061
 20
2.817740
 30
0.0
 10
9.958314
 20
2.848035
 30
0.0
 10
9.932902
 20
2.879420
 30
0.0
 10
9.907827
 20
2.911895
 30
0.0
 10
9.907827
 20
2.812918
 30
0.0
 10
9.907827
 20
2.713940
 30
0.0
 10
9.907827
 20
2.614963
 30
0.0
 10
9.907827
 20
2.515985
 30
0.0
 10
9.907827
 20
2.417009
 30
0.0
 10
9.907827
 20
2.318031
 30
0.0
 10
9.907827
 20
2.219053
 30
0.0
 10
9.907827
 20
2.120075
 30
0.0
 10
9.907827
 20
2.021097
 30
0.0
 10
9.907827
 20
1.922121
 30
0.0
 10
9.907827
 20
1.823143
 30
0.0
 10
9.907827
 20
1.724165
 30
0.0
 10
9.907827
 20
1.625187
 30
0.0
 10
9.907827
 20
1.526209
 30
0.0
 10
9.907827
 20
1.427234
 30
0.0
 10
9.907827
 20
1.328255
 30
0.0
 10
9.847572
 20
1.328255
 30
0.0
 10
9.787317
 20
1.328255
 30
0.0
 10
9.727063
 20
1.328255
 30
0.0
 10
9.666808
 20
1.328255
 30
0.0
 10
9.606553
 20
1.328255
 30
0.0
 10
9.546299
 20
1.328255
 30
0.0
 10
9.486044
 20
1.328255
 30
0.0
 10
9.425789
 20
1.328255
 30
0.0
 10
9.365535
 20
1.328255
 30
0.0
 10
9.305280
 20
1.328255
 30
0.0
 10
9.245025
 20
1.328255
 30
0.0
 10
9.184770
 20
1.328255
 30
0.0
 10
9.124516
 20
1.328255
 30
0.0
 10
9.064261
 20
1.328255
 30
0.0
 10
9.004006
 20
1.328255
 30
0.0
 10
8.943751
 20
1.328255
 30
0.0
 10
8.943751
 20
1.588464
 30
0.0
 10
8.943751
 20
1.848670
 30
0.0
 10
8.943751
 20
2.108879
 30
0.0
 10
8.943751
 20
2.369088
 30
0.0
 10
8.943751
 20
2.629294
 30
0.0
 10
8.943751
 20
2.889502
 30
0.0
 10
8.943751
 20
3.149710
 30
0.0
 10
8.943751
 20
3.409919
 30
0.0
 10
8.943751
 20
3.670127
 30
0.0
 10
8.943751
 20
3.930335
 30
0.0
 10
8.943751
 20
4.190543
 30
0.0
 10
8.943751
 20
4.450751
 30
0.0
 10
8.943751
 20
4.710959
 30
0.0
 10
8.943751
 20
4.971167
 30
0.0
 10
8.943751
 20
5.231375
 30
0.0
 10
8.943751
 20
5.491583
 30
0.0
 10
9.004006
 20
5.491583
 30
0.0
 10
9.064261
 20
5.491583
 30
0.0
 10
9.124516
 20
5.491583
 30
0.0
 10
9.184770
 20
5.491583
 30
0.0
 10
9.245025
 20
5.491583
 30
0.0
 10
9.305280
 20
5.491583
 30
0.0
 10
9.365535
 20
5.491583
 30
0.0
 10
9.425789
 20
5.491583
 30
0.0
 10
9.486044
 20
5.491583
 30
0.0
 10
9.546299
 20
5.491583
 30
0.0
 10
9.606553
 20
5.491583
 30
0.0
 10
9.666808
 20
5.491583
 30
0.0
 10
9.727063
 20
5.491583
 30
0.0
 10
9.787317
 20
5.491583
 30
0.0
 10
9.847572
 20
5.491583
 30
0.0
 10
9.907827
 20
5.491583
 30
0.0
 10
9.907827
 20
5.463987
 30
0.0
 10
9.907827
 20
5.436392
 30
0.0
 10
9.907827
 20
5.408796
 30
0.0
 10
9.907827
 20
5.381200
 30
0.0
 10
9.907827
 20
5.353604
 30
0.0
 10
9.907827
 20
5.326009
 30
0.0
 10
9.907827
 20
5.298413
 30
0.0
 10
9.907827
 20
5.270817
 30
0.0
 10
9.907827
 20
5.243222
 30
0.0
 10
9.907827
 20
5.215626
 30
0.0
 10
9.907827
 20
5.188030
 30
0.0
 10
9.907827
 20
5.160435
 30
0.0
 10
9.907827
 20
5.132839
 30
0.0
 10
9.907827
 20
5.105243
 30
0.0
 10
9.907827
 20
5.077648
 30
0.0
 10
9.907827
 20
5.050052
 30
0.0
 10
9.932902
 20
5.082482
 30
0.0
 10
9.958314
 20
5.113833
 30
0.0
 10
9.984061
 20
5.144104
 30
0.0
 10
10.010144
 20
5.173296
 30
0.0
 10
10.036562
 20
5.201408
 30
0.0
 10
10.063317
 20
5.228439
 30
0.0
 10
10.090408
 20
5.254390
 30
0.0
 10
10.117834
 20
5.279256
 30
0.0
 10
10.145596
 20
5.303042
 30
0.0
 10
10.173694
 20
5.325744
 30
0.0
 10
10.202129
 20
5.347365
 30
0.0
 10
10.230900
 20
5.367902
 30
0.0
 10
10.260007
 20
5.387356
 30
0.0
 10
10.289449
 20
5.405726
 30
0.0
 10
10.319228
 20
5.423012
 30
0.0
 10
10.349342
 20
5.439211
 30
0.0
 10
10.379912
 20
5.454333
 30
0.0
 10
10.411056
 20
5.468486
 30
0.0
 10
10.442773
 20
5.481666
 30
0.0
 10
10.475063
 20
5.493875
 30
0.0
 10
10.507924
 20
5.505113
 30
0.0
 10
10.541356
 20
5.515377
 30
0.0
 10
10.575358
 20
5.524668
 30
0.0
 10
10.609929
 20
5.532985
 30
0.0
 10
10.645069
 20
5.540326
 30
0.0
 10
10.680777
 20
5.546690
 30
0.0
 10
10.717051
 20
5.552078
 30
0.0
 10
10.753892
 20
5.556489
 30
0.0
 10
10.791297
 20
5.559920
 30
0.0
 10
10.829267
 20
5.562376
 30
0.0
 10
10.867800
 20
5.563843
 30
0.0
 10
10.906897
 20
5.564323
 30
0.0
 10
10.975778
 20
5.562602
 30
0.0
 10
11.043104
 20
5.557409
 30
0.0
 10
11.108873
 20
5.548756
 30
0.0
 10
11.173086
 20
5.536640
 30
0.0
 10
11.235745
 20
5.521064
 30
0.0
 10
11.296849
 20
5.502028
 30
0.0
 10
11.356398
 20
5.479532
 30
0.0
 10
11.414394
 20
5.453576
 30
0.0
 10
11.470836
 20
5.424161
 30
0.0
 10
11.525725
 20
5.391287
 30
0.0
 10
11.579061
 20
5.354955
 30
0.0
 10
11.630845
 20
5.315165
 30
0.0
 10
11.681077
 20
5.271918
 30
0.0
 10
11.729757
 20
5.225213
 30
0.0
 10
11.776887
 20
5.175052
 30
0.0
 10
11.822465
 20
5.121435
 30
0.0
 10
11.865819
 20
5.065046
 30
0.0
 10
11.906375
 20
5.006674
 30
0.0
 10
11.944134
 20
4.946317
 30
0.0
 10
11.979097
 20
4.883977
 30
0.0
 10
12.011262
 20
4.819652
 30
0.0
 10
12.040630
 20
4.753342
 30
0.0
 10
12.067202
 20
4.685046
 30
0.0
 10
12.090976
 20
4.614764
 30
0.0
 10
12.111954
 20
4.542496
 30
0.0
 10
12.130134
 20
4.468242
 30
0.0
 10
12.145518
 20
4.392000
 30
0.0
 10
12.158105
 20
4.313771
 30
0.0
 10
12.167896
 20
4.233553
 30
0.0
 10
12.174889
 20
4.151348
 30
0.0
 10
12.179086
 20
4.067154
 30
0.0
 10
12.180497
 20
3.980970
 30
0.0
 10
12.179086
 20
3.894738
 30
0.0
 10
12.174889
 20
3.810502
 30
0.0
 10
12.167896
 20
3.728261
 30
0.0
 10
12.158105
 20
3.648015
 30
0.0
 10
12.145518
 20
3.569763
 30
0.0
 10
12.130134
 20
3.493505
 30
0.0
 10
12.111954
 20
3.419240
 30
0.0
 10
12.090976
 20
3.346969
 30
0.0
 10
12.067202
 20
3.276691
 30
0.0
 10
12.040630
 20
3.208405
 30
0.0
 10
12.011262
 20
3.142111
 30
0.0
 10
11.979097
 20
3.077808
 30
0.0
 10
11.944134
 20
3.015497
 30
0.0
 10
11.906375
 20
2.955176
 30
0.0
 10
11.865819
 20
2.896846
 30
0.0
 10
11.822465
 20
2.840506
 30
0.0
 10
11.822465
 20
2.840412
 30
0.0
  0
LWPOLYLINE
  5
127
100
AcDbEntity
  8
0
 62
7
100
AcDbPolyline
 90
269
 70
0
 10
5.575818
 20
16.207107
 30
0.0
 10
5.576383
 20
16.295561
 30
0.0
 10
5.578048
 20
16.383745
 30
0.0
 10
5.584719
 20
16.559278
 30
0.0
 10
5.595771
 20
16.733653
 30
0.0
 10
5.611152
 20
16.906816
 30
0.0
 10
5.654682
 20
17.249290
 30
0.0
 10
5.714877
 20
17.586274
 30
0.0
 10
5.791307
 20
17.917337
 30
0.0
 10
5.883540
 20
18.242051
 30
0.0
 10
5.991146
 20
18.559987
 30
0.0
 10
6.113694
 20
18.870717
 30
0.0
 10
6.250754
 20
19.173812
 30
0.0
 10
6.401894
 20
19.468843
 30
0.0
 10
6.566685
 20
19.755381
 30
0.0
 10
6.744694
 20
20.032998
 30
0.0
 10
6.935491
 20
20.301264
 30
0.0
 10
7.138646
 20
20.559752
 30
0.0
 10
7.353728
 20
20.808032
 30
0.0
 10
7.580306
 20
21.045675
 30
0.0
 10
7.748688
 20
21.214066
 30
0.0
 10
7.917070
 20
21.382458
 30
0.0
 10
8.085452
 20
21.550849
 30
0.0
 10
8.253834
 20
21.719241
 30
0.0
 10
8.422216
 20
21.887633
 30
0.0
 10
8.590598
 20
22.056024
 30
0.0
 10
8.758980
 20
22.224416
 30
0.0
 10
8.927362
 20
22.392807
 30
0.0
 10
9.095744
 20
22.561199
 30
0.0
 10
9.264126
 20
22.729590
 30
0.0
 10
9.432508
 20
22.897982
 30
0.0
 10
9.600890
 20
23.066374
 30
0.0
 10
9.769272
 20
23.234765
 30
0.0
 10
9.937653
 20
23.403157
 30
0.0
 10
10.106035
 20
23.571548
 30
0.0
 10
10.274417
 20
23.739940
 30
0.0
 10
10.343026
 20
23.808552
 30
0.0
 10
10.411634
 20
23.877164
 30
0.0
 10
10.480242
 20
23.945776
 30
0.0
 10
10.548851
 20
24.014389
 30
0.0
 10
10.617459
 20
24.083001
 30
0.0
 10
10.686067
 20
24.151613
 30
0.0
 10
10.754676
 20
24.220225
 30
0.0
 10
10.823284
 20
24.288838
 30
0.0
 10
10.891892
 20
24.357450
 30
0.0
 10
10.960500
 20
24.426062
 30
0.0
 10
11.029109
 20
24.494674
 30
0.0
 10
11.097717
 20
24.563286
 30
0.0
 10
11.166326
 20
24.631899
 30
0.0
 10
11.234934
 20
24.700511
 30
0.0
 10
11.303542
 20
24.769123
 30
0.0
 10
11.372151
 20
24.837735
 30
0.0
 10
11.437571
 20
24.903160
 30
0.0
 10
11.502991
 20
24.968583
 30
0.0
 10
11.568411
 20
25.034007
 30
0.0
 10
11.633831
 20
25.099431
 30
0.0
 10
11.699252
 20
25.164855
 30
0.0
 10
11.764672
 20
25.230279
 30
0.0
 10
11.830092
 20
25.295703
 30
0.0
 10
11.895512
 20
25.361127
 30
0.0
 10
11.960932
 20
25.426551
 30
0.0
 10
12.026352
 20
25.491975
 30
0.0
 10
12.091773
 20
25.557399
 30
0.0
 10
12.157193
 20
25.622823
 30
0.0
 10
12.222613
 20
25.688246
 30
0.0
 10
12.288033
 20
25.753670
 30
0.0
 10
12.353453
 20
25.819094
 30
0.0
 10
12.418874
 20
25.884518
 30
0.0
 10
12.495598
 20
25.807792
 30
0.0
 10
12.572322
 20
25.731065
 30
0.0
 10
12.649046
 20
25.654339
 30
0.0
 10
12.725771
 20
25.577613
 30
0.0
 10
12.802495
 20
25.500886
 30
0.0
 10
12.879219
 20
25.424160
 30
0.0
 10
12.955943
 20
25.347433
 30
0.0
 10
13.032667
 20
25.270707
 30
0.0
 10
13.109392
 20
25.193981
 30
0.0
 10
13.186116
 20
25.117254
 30
0.0
 10
13.262840
 20
25.040528
 30
0.0
 10
13.339564
 20
24.963801
 30
0.0
 10
13.416288
 20
24.887075
 30
0.0
 10
13.493013
 20
24.810349
 30
0.0
 10
13.569737
 20
24.733622
 30
0.0
 10
13.646461
 20
24.656896
 30
0.0
 10
13.717119
 20
24.586236
 30
0.0
 10
13.787776
 20
24.515577
 30
0.0
 10
13.858433
 20
24.444918
 30
0.0
 10
13.929091
 20
24.374258
 30
0.0
 10
13.999748
 20
24.303599
 30
0.0
 10
14.070405
 20
24.232940
 30
0.0
 10
14.141063
 20
24.162280
 30
0.0
 10
14.211720
 20
24.091621
 30
0.0
 10
14.282378
 20
24.020961
 30
0.0
 10
14.353035
 20
23.950302
 30
0.0
 10
14.423692
 20
23.879643
 30
0.0
 10
14.494350
 20
23.808983
 30
0.0
 10
14.565007
 20
23.738324
 30
0.0
 10
14.635664
 20
23.667664
 30
0.0
 10
14.706322
 20
23.597005
 30
0.0
 10
14.776979
 20
23.526346
 30
0.0
 10
14.932025
 20
23.371295
 30
0.0
 10
15.087071
 20
23.216245
 30
0.0
 10
15.242118
 20
23.061194
 30
0.0
 10
15.397164
 20
22.906144
 30
0.0
 10
15.552210
 20
22.751093
 30
0.0
 10
15.707256
 20
22.596043
 30
0.0
 10
15.862302
 20
22.440992
 30
0.0
 10
16.017348
 20
22.285941
 30
0.0
 10
16.172394
 20
22.130891
 30
0.0
 10
16.327440
 20
21.975840
 30
0.0
 10
16.482486
 20
21.820790
 30
0.0
 10
16.637533
 20
21.665739
 30
0.0
 10
16.792579
 20
21.510689
 30
0.0
 10
16.947625
 20
21.355638
 30
0.0
 10
17.102671
 20
21.200588
 30
0.0
 10
17.257717
 20
21.045537
 30
0.0
 10
17.484292
 20
20.807915
 30
0.0
 10
17.699365
 20
20.559648
 30
0.0
 10
17.902506
 20
20.301167
 30
0.0
 10
18.093286
 20
20.032901
 30
0.0
 10
18.271275
 20
19.755281
 30
0.0
 10
18.436041
 20
19.468737
 30
0.0
 10
18.587157
 20
19.173698
 30
0.0
 10
18.724191
 20
18.870597
 30
0.0
 10
18.846713
 20
18.559861
 30
0.0
 10
18.954295
 20
18.241922
 30
0.0
 10
19.046505
 20
17.917210
 30
0.0
 10
19.122913
 20
17.586155
 30
0.0
 10
19.183091
 20
17.249187
 30
0.0
 10
19.226607
 20
16.906736
 30
0.0
 10
19.241982
 20
16.733589
 30
0.0
 10
19.253031
 20
16.559233
 30
0.0
 10
19.259700
 20
16.383721
 30
0.0
 10
19.261365
 20
16.295549
 30
0.0
 10
19.261930
 20
16.207107
 30
0.0
 10
19.259700
 20
16.030481
 30
0.0
 10
19.253031
 20
15.854956
 30
0.0
 10
19.241982
 20
15.680588
 30
0.0
 10
19.226607
 20
15.507429
 30
0.0
 10
19.217313
 20
15.421320
 30
0.0
 10
19.206956
 20
15.335534
 30
0.0
 10
19.195545
 20
15.250077
 30
0.0
 10
19.183085
 20
15.164956
 30
0.0
 10
19.169584
 20
15.080178
 30
0.0
 10
19.155049
 20
14.995749
 30
0.0
 10
19.122902
 20
14.827966
 30
0.0
 10
19.086697
 20
14.661662
 30
0.0
 10
19.046487
 20
14.496890
 30
0.0
 10
19.002327
 20
14.333704
 30
0.0
 10
18.954270
 20
14.172157
 30
0.0
 10
18.902370
 20
14.012304
 30
0.0
 10
18.846681
 20
13.854197
 30
0.0
 10
18.787255
 20
13.697892
 30
0.0
 10
18.724149
 20
13.543441
 30
0.0
 10
18.657414
 20
13.390899
 30
0.0
 10
18.587104
 20
13.240318
 30
0.0
 10
18.513275
 20
13.091753
 30
0.0
 10
18.435978
 20
12.945258
 30
0.0
 10
18.355269
 20
12.800886
 30
0.0
 10
18.271200
 20
12.658691
 30
0.0
 10
18.183826
 20
12.518727
 30
0.0
 10
18.093200
 20
12.381047
 30
0.0
 10
17.999376
 20
12.245706
 30
0.0
 10
17.902408
 20
12.112756
 30
0.0
 10
17.802349
 20
11.982252
 30
0.0
 10
17.699254
 20
11.854247
 30
0.0
 10
17.593175
 20
11.728796
 30
0.0
 10
17.484168
 20
11.605952
 30
0.0
 10
17.372285
 20
11.485768
 30
0.0
 10
17.257580
 20
11.368298
 30
0.0
 10
17.140107
 20
11.253597
 30
0.0
 10
17.019921
 20
11.141718
 30
0.0
 10
16.897074
 20
11.032714
 30
0.0
 10
16.771620
 20
10.926639
 30
0.0
 10
16.643613
 20
10.823548
 30
0.0
 10
16.513108
 20
10.723493
 30
0.0
 10
16.380156
 20
10.626529
 30
0.0
 10
16.244814
 20
10.532709
 30
0.0
 10
16.107133
 20
10.442088
 30
0.0
 10
15.967168
 20
10.354717
 30
0.0
 10
15.824973
 20
10.270653
 30
0.0
 10
15.680601
 20
10.189948
 30
0.0
 10
15.534107
 20
10.112656
 30
0.0
 10
15.385543
 20
10.038830
 30
0.0
 10
15.234965
 20
9.968525
 30
0.0
 10
15.082424
 20
9.901795
 30
0.0
 10
14.927976
 20
9.838692
 30
0.0
 10
14.771674
 20
9.779270
 30
0.0
 10
14.613571
 20
9.723585
 30
0.0
 10
14.453722
 20
9.671688
 30
0.0
 10
14.292181
 20
9.623634
 30
0.0
 10
14.129000
 20
9.579477
 30
0.0
 10
13.964234
 20
9.539271
 30
0.0
 10
13.797937
 20
9.503068
 30
0.0
 10
13.630162
 20
9.470924
 30
0.0
 10
13.460962
 20
9.442890
 30
0.0
 10
13.290393
 20
9.419023
 30
0.0
 10
13.118507
 20
9.399375
 30
0.0
 10
12.945359
 20
9.383999
 30
0.0
 10
12.771001
 20
9.372950
 30
0.0
 10
12.595489
 20
9.366281
 30
0.0
 10
12.418874
 20
9.364052
 30
0.0
 10
12.242261
 20
9.366281
 30
0.0
 10
12.066748
 20
9.372950
 30
0.0
 10
11.892391
 20
9.383999
 30
0.0
 10
11.719242
 20
9.399375
 30
0.0
 10
11.547356
 20
9.419023
 30
0.0
 10
11.376787
 20
9.442890
 30
0.0
 10
11.207588
 20
9.470924
 30
0.0
 10
11.039813
 20
9.503068
 30
0.0
 10
10.873515
 20
9.539271
 30
0.0
 10
10.708749
 20
9.579477
 30
0.0
 10
10.545568
 20
9.623634
 30
0.0
 10
10.384018
 20
9.671688
 30
0.0
 10
10.224169
 20
9.723585
 30
0.0
 10
10.066067
 20
9.779270
 30
0.0
 10
9.909765
 20
9.838692
 30
0.0
 10
9.755316
 20
9.901795
 30
0.0
 10
9.602776
 20
9.968525
 30
0.0
 10
9.452197
 20
10.038830
 30
0.0
 10
9.303634
 20
10.112656
 30
0.0
 10
9.157139
 20
10.189948
 30
0.0
 10
9.012768
 20
10.270653
 30
0.0
 10
8.870572
 20
10.354717
 30
0.0
 10
8.730608
 20
10.442088
 30
0.0
 10
8.592941
 20
10.532709
 30
0.0
 10
8.457599
 20
10.626529
 30
0.0
 10
8.324647
 20
10.723493
 30
0.0
 10
8.194142
 20
10.823548
 30
0.0
 10
8.066135
 20
10.926639
 30
0.0
 10
7.940681
 20
11.032714
 30
0.0
 10
7.817834
 20
11.141718
 30
0.0
 10
7.697647
 20
11.253597
 30
0.0
 10
7.580175
 20
11.368298
 30
0.0
 10
7.465470
 20
11.485768
 30
0.0
 10
7.353587
 20
11.605952
 30
0.0
 10
7.244580
 20
11.728796
 30
0.0
 10
7.138501
 20
11.854247
 30
0.0
 10
7.035406
 20
11.982252
 30
0.0
 10
6.935347
 20
12.112756
 30
0.0
 10
6.838379
 20
12.245706
 30
0.0
 10
6.744555
 20
12.381047
 30
0.0
 10
6.653929
 20
12.518727
 30
0.0
 10
6.566555
 20
12.658691
 30
0.0
 10
6.482486
 20
12.800886
 30
0.0
 10
6.401776
 20
12.945258
 30
0.0
 10
6.324480
 20
13.091753
 30
0.0
 10
6.250650
 20
13.240318
 30
0.0
 10
6.180341
 20
13.390899
 30
0.0
 10
6.113606
 20
13.543441
 30
0.0
 10
6.050499
 20
13.697892
 30
0.0
 10
5.991074
 20
13.854197
 30
0.0
 10
5.935385
 20
14.012304
 30
0.0
 10
5.883485
 20
14.172157
 30
0.0
 10
5.835428
 20
14.333704
 30
0.0
 10
5.791267
 20
14.496890
 30
0.0
 10
5.751058
 20
14.661662
 30
0.0
 10
5.714852
 20
14.827966
 30
0.0
 10
5.682705
 20
14.995749
 30
0.0
 10
5.668171
 20
15.080177
 30
0.0
 10
5.654669
 20
15.164956
 30
0.0
 10
5.642209
 20
15.250077
 30
0.0
 10
5.630799
 20
15.335534
 30
0.0
 10
5.620444
 20
15.421320
 30
0.0
 10
5.611148
 20
15.507429
 30
0.0
 10
5.595770
 20
15.680588
 30
0.0
 10
5.584721
 20
15.854956
 30
0.0
 10
5.578052
 20
16.030481
 30
0.0
 10
5.575818
 20
16.207107
 30
0.0
  0
LWPOLYLINE
  5
128
100
AcDbEntity
  8
0
 62
7
100
AcDbPolyline
 90
257
 70
0
 10
15.460486
 20
2.475508
 30
0.0
 10
15.429859
 20
2.537950
 30
0.0
 10
15.399232
 20
2.600392
 30
0.0
 10
15.368605
 20
2.662836
 30
0.0
 10
15.337979
 20
2.725277
 30
0.0
 10
15.307351
 20
2.787720
 30
0.0
 10
15.276725
 20
2.850162
 30
0.0
 10
15.246098
 20
2.912604
 30
0.0
 10
15.215471
 20
2.975047
 30
0.0
 10
15.184844
 20
3.037489
 30
0.0
 10
15.154217
 20
3.099931
 30
0.0
 10
15.123590
 20
3.162374
 30
0.0
 10
15.092963
 20
3.224816
 30
0.0
 10
15.062336
 20
3.287258
 30
0.0
 10
15.031710
 20
3.349701
 30
0.0
 10
15.001083
 20
3.412143
 30
0.0
 10
14.970456
 20
3.474586
 30
0.0
 10
14.951936
 20
3.511512
 30
0.0
 10
14.933380
 20
3.546946
 30
0.0
 10
14.914785
 20
3.580889
 30
0.0
 10
14.896152
 20
3.613341
 30
0.0
 10
14.877486
 20
3.644302
 30
0.0
 10
14.858786
 20
3.673774
 30
0.0
 10
14.840052
 20
3.701756
 30
0.0
 10
14.821284
 20
3.728249
 30
0.0
 10
14.802486
 20
3.753251
 30
0.0
 10
14.783653
 20
3.776765
 30
0.0
 10
14.764789
 20
3.798793
 30
0.0
 10
14.745897
 20
3.819333
 30
0.0
 10
14.726974
 20
3.838386
 30
0.0
 10
14.708026
 20
3.855951
 30
0.0
 10
14.689049
 20
3.872030
 30
0.0
 10
14.670044
 20
3.886620
 30
0.0
 10
14.650633
 20
3.899986
 30
0.0
 10
14.630434
 20
3.912486
 30
0.0
 10
14.609448
 20
3.924122
 30
0.0
 10
14.587672
 20
3.934892
 30
0.0
 10
14.565108
 20
3.944798
 30
0.0
 10
14.541757
 20
3.953840
 30
0.0
 10
14.517619
 20
3.962019
 30
0.0
 10
14.492693
 20
3.969337
 30
0.0
 10
14.466977
 20
3.975791
 30
0.0
 10
14.440473
 20
3.981385
 30
0.0
 10
14.413183
 20
3.986115
 30
0.0
 10
14.385101
 20
3.989984
 30
0.0
 10
14.356234
 20
3.992993
 30
0.0
 10
14.326578
 20
3.995138
 30
0.0
 10
14.296134
 20
3.996436
 30
0.0
 10
14.264902
 20
3.996859
 30
0.0
 10
14.246558
 20
3.996859
 30
0.0
 10
14.228213
 20
3.996859
 30
0.0
 10
14.209869
 20
3.996859
 30
0.0
 10
14.191524
 20
3.996859
 30
0.0
 10
14.173180
 20
3.996859
 30
0.0
 10
14.154836
 20
3.996859
 30
0.0
 10
14.136491
 20
3.996859
 30
0.0
 10
14.118147
 20
3.996859
 30
0.0
 10
14.099802
 20
3.996859
 30
0.0
 10
14.081458
 20
3.996859
 30
0.0
 10
14.063113
 20
3.996859
 30
0.0
 10
14.044769
 20
3.996859
 30
0.0
 10
14.026424
 20
3.996859
 30
0.0
 10
14.008080
 20
3.996859
 30
0.0
 10
13.989736
 20
3.996859
 30
0.0
 10
13.971391
 20
3.996859
 30
0.0
 10
13.971391
 20
3.901775
 30
0.0
 10
13.971391
 20
3.806690
 30
0.0
 10
13.971391
 20
3.711605
 30
0.0
 10
13.971391
 20
3.616520
 30
0.0
 10
13.971391
 20
3.521436
 30
0.0
 10
13.971391
 20
3.426351
 30
0.0
 10
13.971391
 20
3.331267
 30
0.0
 10
13.971391
 20
3.236182
 30
0.0
 10
13.971391
 20
3.141097
 30
0.0
 10
13.971391
 20
3.046013
 30
0.0
 10
13.971391
 20
2.950928
 30
0.0
 10
13.971391
 20
2.855844
 30
0.0
 10
13.971391
 20
2.760759
 30
0.0
 10
13.971391
 20
2.665675
 30
0.0
 10
13.971391
 20
2.570589
 30
0.0
 10
13.971391
 20
2.475506
 30
0.0
 10
13.906589
 20
2.475506
 30
0.0
 10
13.841786
 20
2.475506
 30
0.0
 10
13.776984
 20
2.475506
 30
0.0
 10
13.712182
 20
2.475506
 30
0.0
 10
13.647380
 20
2.475506
 30
0.0
 10
13.582577
 20
2.475506
 30
0.0
 10
13.517775
 20
2.475506
 30
0.0
 10
13.452973
 20
2.475506
 30
0.0
 10
13.388171
 20
2.475506
 30
0.0
 10
13.323368
 20
2.475506
 30
0.0
 10
13.258566
 20
2.475506
 30
0.0
 10
13.193764
 20
2.475506
 30
0.0
 10
13.128962
 20
2.475506
 30
0.0
 10
13.064160
 20
2.475506
 30
0.0
 10
12.999357
 20
2.475506
 30
0.0
 10
12.934555
 20
2.475506
 30
0.0
 10
12.934555
 20
2.726790
 30
0.0
 10
12.934555
 20
2.978075
 30
0.0
 10
12.934555
 20
3.229361
 30
0.0
 10
12.934555
 20
3.480646
 30
0.0
 10
12.934555
 20
3.731931
 30
0.0
 10
12.934555
 20
3.983217
 30
0.0
 10
12.934555
 20
4.234502
 30
0.0
 10
12.934555
 20
4.485787
 30
0.0
 10
12.934555
 20
4.737072
 30
0.0
 10
12.934555
 20
4.988358
 30
0.0
 10
12.934555
 20
5.239643
 30
0.0
 10
12.934555
 20
5.490928
 30
0.0
 10
12.934555
 20
5.742213
 30
0.0
 10
12.934555
 20
5.993499
 30
0.0
 10
12.934555
 20
6.244784
 30
0.0
 10
12.934555
 20
6.496069
 30
0.0
 10
13.033516
 20
6.496069
 30
0.0
 10
13.132476
 20
6.496069
 30
0.0
 10
13.231436
 20
6.496069
 30
0.0
 10
13.330397
 20
6.496069
 30
0.0
 10
13.429357
 20
6.496069
 30
0.0
 10
13.528317
 20
6.496069
 30
0.0
 10
13.627278
 20
6.496069
 30
0.0
 10
13.726238
 20
6.496069
 30
0.0
 10
13.825198
 20
6.496069
 30
0.0
 10
13.924159
 20
6.496069
 30
0.0
 10
14.023119
 20
6.496069
 30
0.0
 10
14.122079
 20
6.496069
 30
0.0
 10
14.221040
 20
6.496069
 30
0.0
 10
14.320000
 20
6.496069
 30
0.0
 10
14.418961
 20
6.496069
 30
0.0
 10
14.517921
 20
6.496069
 30
0.0
 10
14.615586
 20
6.495025
 30
0.0
 10
14.709937
 20
6.491895
 30
0.0
 10
14.800974
 20
6.486680
 30
0.0
 10
14.888695
 20
6.479378
 30
0.0
 10
14.973101
 20
6.469995
 30
0.0
 10
15.054192
 20
6.458525
 30
0.0
 10
15.131966
 20
6.444973
 30
0.0
 10
15.206423
 20
6.429335
 30
0.0
 10
15.277564
 20
6.411614
 30
0.0
 10
15.345387
 20
6.391811
 30
0.0
 10
15.409893
 20
6.369924
 30
0.0
 10
15.471080
 20
6.345958
 30
0.0
 10
15.528948
 20
6.319909
 30
0.0
 10
15.583498
 20
6.291780
 30
0.0
 10
15.634728
 20
6.261569
 30
0.0
 10
15.682639
 20
6.229278
 30
0.0
 10
15.727494
 20
6.194738
 30
0.0
 10
15.769455
 20
6.157783
 30
0.0
 10
15.808523
 20
6.118411
 30
0.0
 10
15.844696
 20
6.076621
 30
0.0
 10
15.877976
 20
6.032414
 30
0.0
 10
15.908361
 20
5.985790
 30
0.0
 10
15.935853
 20
5.936747
 30
0.0
 10
15.960451
 20
5.885285
 30
0.0
 10
15.982154
 20
5.831404
 30
0.0
 10
16.000964
 20
5.775104
 30
0.0
 10
16.016882
 20
5.716383
 30
0.0
 10
16.029903
 20
5.655243
 30
0.0
 10
16.040032
 20
5.591682
 30
0.0
 10
16.047268
 20
5.525699
 30
0.0
 10
16.051609
 20
5.457295
 30
0.0
 10
16.053048
 20
5.386470
 30
0.0
 10
16.052286
 20
5.337209
 30
0.0
 10
16.050029
 20
5.289061
 30
0.0
 10
16.046267
 20
5.242025
 30
0.0
 10
16.041000
 20
5.196102
 30
0.0
 10
16.034227
 20
5.151294
 30
0.0
 10
16.025949
 20
5.107601
 30
0.0
 10
16.016168
 20
5.065024
 30
0.0
 10
16.004879
 20
5.023563
 30
0.0
 10
15.992086
 20
4.983220
 30
0.0
 10
15.977788
 20
4.943995
 30
0.0
 10
15.961984
 20
4.905890
 30
0.0
 10
15.944675
 20
4.868904
 30
0.0
 10
15.925862
 20
4.833039
 30
0.0
 10
15.905545
 20
4.798296
 30
0.0
 10
15.883721
 20
4.764675
 30
0.0
 10
15.860392
 20
4.732177
 30
0.0
 10
15.835551
 20
4.700716
 30
0.0
 10
15.809191
 20
4.670307
 30
0.0
 10
15.781314
 20
4.640952
 30
0.0
 10
15.751914
 20
4.612649
 30
0.0
 10
15.720994
 20
4.585401
 30
0.0
 10
15.688551
 20
4.559205
 30
0.0
 10
15.654586
 20
4.534062
 30
0.0
 10
15.619097
 20
4.509971
 30
0.0
 10
15.582084
 20
4.486933
 30
0.0
 10
15.543545
 20
4.464948
 30
0.0
 10
15.503480
 20
4.444016
 30
0.0
 10
15.461889
 20
4.424136
 30
0.0
 10
15.418770
 20
4.405309
 30
0.0
 10
15.374122
 20
4.387535
 30
0.0
 10
15.327945
 20
4.370813
 30
0.0
 10
15.280238
 20
4.355147
 30
0.0
 10
15.306628
 20
4.348619
 30
0.0
 10
15.332674
 20
4.341129
 30
0.0
 10
15.358379
 20
4.332679
 30
0.0
 10
15.383740
 20
4.323267
 30
0.0
 10
15.408756
 20
4.312895
 30
0.0
 10
15.433428
 20
4.301561
 30
0.0
 10
15.457755
 20
4.289268
 30
0.0
 10
15.481739
 20
4.276015
 30
0.0
 10
15.505375
 20
4.261802
 30
0.0
 10
15.528666
 20
4.246630
 30
0.0
 10
15.551611
 20
4.230501
 30
0.0
 10
15.574209
 20
4.213412
 30
0.0
 10
15.596459
 20
4.195367
 30
0.0
 10
15.618362
 20
4.176365
 30
0.0
 10
15.639918
 20
4.156406
 30
0.0
 10
15.661125
 20
4.135490
 30
0.0
 10
15.682173
 20
4.113457
 30
0.0
 10
15.703252
 20
4.090041
 30
0.0
 10
15.724365
 20
4.065245
 30
0.0
 10
15.745512
 20
4.039066
 30
0.0
 10
15.766690
 20
4.011507
 30
0.0
 10
15.787899
 20
3.982568
 30
0.0
 10
15.809142
 20
3.952249
 30
0.0
 10
15.830416
 20
3.920551
 30
0.0
 10
15.851723
 20
3.887473
 30
0.0
 10
15.873062
 20
3.853017
 30
0.0
 10
15.894432
 20
3.817182
 30
0.0
 10
15.915836
 20
3.779969
 30
0.0
 10
15.937273
 20
3.741379
 30
0.0
 10
15.958742
 20
3.701412
 30
0.0
 10
15.980242
 20
3.660068
 30
0.0
 10
16.001775
 20
3.617348
 30
0.0
 10
16.036950
 20
3.545982
 30
0.0
 10
16.072124
 20
3.474617
 30
0.0
 10
16.107299
 20
3.403252
 30
0.0
 10
16.142473
 20
3.331887
 30
0.0
 10
16.177647
 20
3.260522
 30
0.0
 10
16.212822
 20
3.189157
 30
0.0
 10
16.247996
 20
3.117792
 30
0.0
 10
16.283171
 20
3.046427
 30
0.0
 10
16.318345
 20
2.975061
 30
0.0
 10
16.353520
 20
2.903696
 30
0.0
 10
16.388694
 20
2.832331
 30
0.0
 10
16.423868
 20
2.760966
 30
0.0
 10
16.459043
 20
2.689599
 30
0.0
 10
16.494217
 20
2.618234
 30
0.0
 10
16.529392
 20
2.546871
 30
0.0
 10
16.564566
 20
2.475506
 30
0.0
 10
16.495561
 20
2.475506
 30
0.0
 10
16.426556
 20
2.475506
 30
0.0
 10
16.357550
 20
2.475506
 30
0.0
 10
16.288545
 20
2.475506
 30
0.0
 10
16.219540
 20
2.475506
 30
0.0
 10
16.150534
 20
2.475506
 30
0.0
 10
16.081529
 20
2.475506
 30
0.0
 10
16.012524
 20
2.475506
 30
0.0
 10
15.943519
 20
2.475506
 30
0.0
 10
15.874513
 20
2.475506
 30
0.0
 10
15.805508
 20
2.475506
 30
0.0
 10
15.736503
 20
2.475506
 30
0.0
 10
15.667498
 20
2.475506
 30
0.0
 10
15.598492
 20
2.475506
 30
0.0
 10
15.529487
 20
2.475506
 30
0.0
 10
15.460486
 20
2.475508
 30
0.0
  0
LWPOLYLINE
  5
129
100
AcDbEntity
  8
0
 62
7
100
AcDbPolyline
 90
321
 70
0
 10
19.963088
 20
2.475508
 30
0.0
 10
19.902334
 20
2.475508
 30
0.0
 10
19.841580
 20
2.475508
 30
0.0
 10
19.780825
 20
2.475508
 30
0.0
 10
19.720071
 20
2.475508
 30
0.0
 10
19.659317
 20
2.475508
 30
0.0
 10
19.598563
 20
2.475508
 30
0.0
 10
19.537808
 20
2.475508
 30
0.0
 10
19.477054
 20
2.475508
 30
0.0
 10
19.416300
 20
2.475508
 30
0.0
 10
19.355546
 20
2.475508
 30
0.0
 10
19.294791
 20
2.475508
 30
0.0
 10
19.234037
 20
2.475508
 30
0.0
 10
19.173283
 20
2.475508
 30
0.0
 10
19.112529
 20
2.475508
 30
0.0
 10
19.051774
 20
2.475508
 30
0.0
 10
18.991020
 20
2.475508
 30
0.0
 10
18.991020
 20
2.503448
 30
0.0
 10
18.991020
 20
2.531388
 30
0.0
 10
18.991020
 20
2.559328
 30
0.0
 10
18.991020
 20
2.587268
 30
0.0
 10
18.991020
 20
2.615208
 30
0.0
 10
18.991020
 20
2.643148
 30
0.0
 10
18.991020
 20
2.671088
 30
0.0
 10
18.991020
 20
2.699028
 30
0.0
 10
18.991020
 20
2.726968
 30
0.0
 10
18.991020
 20
2.754908
 30
0.0
 10
18.991020
 20
2.782848
 30
0.0
 10
18.991020
 20
2.810788
 30
0.0
 10
18.991020
 20
2.838728
 30
0.0
 10
18.991020
 20
2.866668
 30
0.0
 10
18.991020
 20
2.894608
 30
0.0
 10
18.991020
 20
2.922548
 30
0.0
 10
18.966594
 20
2.888771
 30
0.0
 10
18.941786
 20
2.856169
 30
0.0
 10
18.916598
 20
2.824741
 30
0.0
 10
18.891032
 20
2.794486
 30
0.0
 10
18.865084
 20
2.765403
 30
0.0
 10
18.838758
 20
2.737491
 30
0.0
 10
18.812054
 20
2.710751
 30
0.0
 10
18.784972
 20
2.685181
 30
0.0
 10
18.757512
 20
2.660769
 30
0.0
 10
18.729674
 20
2.637542
 30
0.0
 10
18.701457
 20
2.615472
 30
0.0
 10
18.672865
 20
2.594588
 30
0.0
 10
18.643896
 20
2.574861
 30
0.0
 10
18.614552
 20
2.556290
 30
0.0
 10
18.584832
 20
2.538877
 30
0.0
 10
18.554737
 20
2.522649
 30
0.0
 10
18.524041
 20
2.507494
 30
0.0
 10
18.492519
 20
2.493298
 30
0.0
 10
18.460172
 20
2.480090
 30
0.0
 10
18.427001
 20
2.467842
 30
0.0
 10
18.393006
 20
2.456581
 30
0.0
 10
18.358189
 20
2.446280
 30
0.0
 10
18.322549
 20
2.436967
 30
0.0
 10
18.286088
 20
2.428641
 30
0.0
 10
18.248807
 20
2.421303
 30
0.0
 10
18.210706
 20
2.414925
 30
0.0
 10
18.171787
 20
2.409535
 30
0.0
 10
18.132049
 20
2.405132
 30
0.0
 10
18.091495
 20
2.401689
 30
0.0
 10
18.050124
 20
2.399149
 30
0.0
 10
18.007938
 20
2.397738
 30
0.0
 10
17.964937
 20
2.397173
 30
0.0
 10
17.907072
 20
2.398302
 30
0.0
 10
17.850578
 20
2.401520
 30
0.0
 10
17.795456
 20
2.406854
 30
0.0
 10
17.741707
 20
2.414333
 30
0.0
 10
17.689332
 20
2.423956
 30
0.0
 10
17.638333
 20
2.435697
 30
0.0
 10
17.588711
 20
2.449582
 30
0.0
 10
17.540466
 20
2.465612
 30
0.0
 10
17.493601
 20
2.483759
 30
0.0
 10
17.448116
 20
2.504051
 30
0.0
 10
17.404012
 20
2.526488
 30
0.0
 10
17.361291
 20
2.551041
 30
0.0
 10
17.319954
 20
2.577739
 30
0.0
 10
17.280002
 20
2.606568
 30
0.0
 10
17.241437
 20
2.637528
 30
0.0
 10
17.204259
 20
2.670619
 30
0.0
 10
17.168867
 20
2.705414
 30
0.0
 10
17.135762
 20
2.741480
 30
0.0
 10
17.104942
 20
2.778821
 30
0.0
 10
17.076408
 20
2.817435
 30
0.0
 10
17.050158
 20
2.857324
 30
0.0
 10
17.026195
 20
2.898487
 30
0.0
 10
17.004514
 20
2.940925
 30
0.0
 10
16.985117
 20
2.984639
 30
0.0
 10
16.968003
 20
3.029628
 30
0.0
 10
16.953172
 20
3.075893
 30
0.0
 10
16.940625
 20
3.123435
 30
0.0
 10
16.930360
 20
3.172254
 30
0.0
 10
16.922376
 20
3.222351
 30
0.0
 10
16.916675
 20
3.273725
 30
0.0
 10
16.913255
 20
3.326377
 30
0.0
 10
16.912126
 20
3.380308
 30
0.0
 10
16.913537
 20
3.445504
 30
0.0
 10
16.917810
 20
3.508492
 30
0.0
 10
16.924933
 20
3.569271
 30
0.0
 10
16.934907
 20
3.627842
 30
0.0
 10
16.947731
 20
3.684206
 30
0.0
 10
16.963406
 20
3.738363
 30
0.0
 10
16.981931
 20
3.790312
 30
0.0
 10
17.003306
 20
3.840056
 30
0.0
 10
17.027535
 20
3.887594
 30
0.0
 10
17.054614
 20
3.932925
 30
0.0
 10
17.084547
 20
3.976052
 30
0.0
 10
17.117334
 20
4.016974
 30
0.0
 10
17.152974
 20
4.055692
 30
0.0
 10
17.191467
 20
4.092206
 30
0.0
 10
17.232815
 20
4.126517
 30
0.0
 10
17.277018
 20
4.158624
 30
0.0
 10
17.324225
 20
4.188609
 30
0.0
 10
17.374686
 20
4.216656
 30
0.0
 10
17.428403
 20
4.242768
 30
0.0
 10
17.485373
 20
4.266943
 30
0.0
 10
17.545598
 20
4.289182
 30
0.0
 10
17.609077
 20
4.309485
 30
0.0
 10
17.675808
 20
4.327852
 30
0.0
 10
17.745792
 20
4.344283
 30
0.0
 10
17.819029
 20
4.358781
 30
0.0
 10
17.895518
 20
4.371342
 30
0.0
 10
17.975258
 20
4.381971
 30
0.0
 10
18.058250
 20
4.390666
 30
0.0
 10
18.144492
 20
4.397428
 30
0.0
 10
18.233985
 20
4.402257
 30
0.0
 10
18.326727
 20
4.405155
 30
0.0
 10
18.422719
 20
4.406115
 30
0.0
 10
18.458238
 20
4.406115
 30
0.0
 10
18.493757
 20
4.406115
 30
0.0
 10
18.529276
 20
4.406115
 30
0.0
 10
18.564795
 20
4.406115
 30
0.0
 10
18.600314
 20
4.406115
 30
0.0
 10
18.635833
 20
4.406115
 30
0.0
 10
18.671352
 20
4.406115
 30
0.0
 10
18.706871
 20
4.406115
 30
0.0
 10
18.742390
 20
4.406115
 30
0.0
 10
18.777909
 20
4.406115
 30
0.0
 10
18.813428
 20
4.406115
 30
0.0
 10
18.848947
 20
4.406115
 30
0.0
 10
18.884465
 20
4.406115
 30
0.0
 10
18.919984
 20
4.406115
 30
0.0
 10
18.955503
 20
4.406115
 30
0.0
 10
18.991022
 20
4.406115
 30
0.0
 10
18.991022
 20
4.410834
 30
0.0
 10
18.991022
 20
4.415553
 30
0.0
 10
18.991022
 20
4.420271
 30
0.0
 10
18.991022
 20
4.424990
 30
0.0
 10
18.991022
 20
4.429709
 30
0.0
 10
18.991022
 20
4.434428
 30
0.0
 10
18.991022
 20
4.439146
 30
0.0
 10
18.991022
 20
4.443865
 30
0.0
 10
18.991022
 20
4.448584
 30
0.0
 10
18.991022
 20
4.453303
 30
0.0
 10
18.991022
 20
4.458021
 30
0.0
 10
18.991022
 20
4.462740
 30
0.0
 10
18.991022
 20
4.467459
 30
0.0
 10
18.991022
 20
4.472178
 30
0.0
 10
18.991022
 20
4.476896
 30
0.0
 10
18.991022
 20
4.481615
 30
0.0
 10
18.990317
 20
4.509764
 30
0.0
 10
18.988200
 20
4.536950
 30
0.0
 10
18.984667
 20
4.563175
 30
0.0
 10
18.979719
 20
4.588436
 30
0.0
 10
18.973361
 20
4.612738
 30
0.0
 10
18.965591
 20
4.636081
 30
0.0
 10
18.956413
 20
4.658461
 30
0.0
 10
18.945827
 20
4.679882
 30
0.0
 10
18.933833
 20
4.700343
 30
0.0
 10
18.920430
 20
4.719847
 30
0.0
 10
18.905622
 20
4.738392
 30
0.0
 10
18.889408
 20
4.755980
 30
0.0
 10
18.871789
 20
4.772609
 30
0.0
 10
18.852764
 20
4.788281
 30
0.0
 10
18.832337
 20
4.802996
 30
0.0
 10
18.810507
 20
4.816754
 30
0.0
 10
18.787185
 20
4.829666
 30
0.0
 10
18.762281
 20
4.841739
 30
0.0
 10
18.735795
 20
4.852974
 30
0.0
 10
18.707728
 20
4.863371
 30
0.0
 10
18.678079
 20
4.872933
 30
0.0
 10
18.646850
 20
4.881659
 30
0.0
 10
18.614041
 20
4.889550
 30
0.0
 10
18.579652
 20
4.896609
 30
0.0
 10
18.543683
 20
4.902832
 30
0.0
 10
18.506136
 20
4.908222
 30
0.0
 10
18.467010
 20
4.912783
 30
0.0
 10
18.426306
 20
4.916511
 30
0.0
 10
18.384025
 20
4.919410
 30
0.0
 10
18.340165
 20
4.921470
 30
0.0
 10
18.294730
 20
4.922712
 30
0.0
 10
18.247717
 20
4.923135
 30
0.0
 10
18.209179
 20
4.922893
 30
0.0
 10
18.170977
 20
4.922159
 30
0.0
 10
18.133112
 20
4.920945
 30
0.0
 10
18.095581
 20
4.919252
 30
0.0
 10
18.058387
 20
4.917079
 30
0.0
 10
18.021529
 20
4.914426
 30
0.0
 10
17.985007
 20
4.911285
 30
0.0
 10
17.948821
 20
4.907664
 30
0.0
 10
17.912970
 20
4.903561
 30
0.0
 10
17.877455
 20
4.898977
 30
0.0
 10
17.842277
 20
4.893911
 30
0.0
 10
17.807434
 20
4.888366
 30
0.0
 10
17.772927
 20
4.882340
 30
0.0
 10
17.738756
 20
4.875838
 30
0.0
 10
17.704921
 20
4.868856
 30
0.0
 10
17.671421
 20
4.861394
 30
0.0
 10
17.638239
 20
4.853401
 30
0.0
 10
17.605352
 20
4.844923
 30
0.0
 10
17.572763
 20
4.835960
 30
0.0
 10
17.540469
 20
4.826514
 30
0.0
 10
17.508471
 20
4.816582
 30
0.0
 10
17.476767
 20
4.806166
 30
0.0
 10
17.445359
 20
4.795266
 30
0.0
 10
17.414245
 20
4.783881
 30
0.0
 10
17.383425
 20
4.772011
 30
0.0
 10
17.352898
 20
4.759658
 30
0.0
 10
17.322665
 20
4.746820
 30
0.0
 10
17.292724
 20
4.733496
 30
0.0
 10
17.263075
 20
4.719690
 30
0.0
 10
17.233718
 20
4.705398
 30
0.0
 10
17.204653
 20
4.690621
 30
0.0
 10
17.175879
 20
4.675361
 30
0.0
 10
17.175879
 20
4.721319
 30
0.0
 10
17.175879
 20
4.767277
 30
0.0
 10
17.175879
 20
4.813234
 30
0.0
 10
17.175879
 20
4.859192
 30
0.0
 10
17.175879
 20
4.905149
 30
0.0
 10
17.175879
 20
4.951107
 30
0.0
 10
17.175879
 20
4.997064
 30
0.0
 10
17.175879
 20
5.043022
 30
0.0
 10
17.175879
 20
5.088980
 30
0.0
 10
17.175879
 20
5.134937
 30
0.0
 10
17.175879
 20
5.180895
 30
0.0
 10
17.175879
 20
5.226852
 30
0.0
 10
17.175879
 20
5.272810
 30
0.0
 10
17.175879
 20
5.318768
 30
0.0
 10
17.175879
 20
5.364725
 30
0.0
 10
17.175879
 20
5.410683
 30
0.0
 10
17.214594
 20
5.419948
 30
0.0
 10
17.253329
 20
5.428937
 30
0.0
 10
17.292085
 20
5.437646
 30
0.0
 10
17.330861
 20
5.446073
 30
0.0
 10
17.369658
 20
5.454221
 30
0.0
 10
17.408476
 20
5.462086
 30
0.0
 10
17.447316
 20
5.469670
 30
0.0
 10
17.486178
 20
5.476968
 30
0.0
 10
17.525064
 20
5.483984
 30
0.0
 10
17.563972
 20
5.490715
 30
0.0
 10
17.602903
 20
5.497158
 30
0.0
 10
17.641858
 20
5.503316
 30
0.0
 10
17.680838
 20
5.509187
 30
0.0
 10
17.719842
 20
5.514769
 30
0.0
 10
17.758871
 20
5.520061
 30
0.0
 10
17.797925
 20
5.525064
 30
0.0
 10
17.836989
 20
5.529820
 30
0.0
 10
17.876048
 20
5.534265
 30
0.0
 10
17.915102
 20
5.538399
 30
0.0
 10
17.954152
 20
5.542226
 30
0.0
 10
17.993198
 20
5.545746
 30
0.0
 10
18.032242
 20
5.548954
 30
0.0
 10
18.071285
 20
5.551856
 30
0.0
 10
18.110326
 20
5.554452
 30
0.0
 10
18.149368
 20
5.556738
 30
0.0
 10
18.188411
 20
5.558714
 30
0.0
 10
18.227455
 20
5.560379
 30
0.0
 10
18.266501
 20
5.561762
 30
0.0
 10
18.305551
 20
5.562834
 30
0.0
 10
18.344605
 20
5.563596
 30
0.0
 10
18.383663
 20
5.564048
 30
0.0
 10
18.422728
 20
5.564200
 30
0.0
 10
18.522964
 20
5.562930
 30
0.0
 10
18.619654
 20
5.559159
 30
0.0
 10
18.712797
 20
5.552877
 30
0.0
 10
18.802395
 20
5.544080
 30
0.0
 10
18.888446
 20
5.532768
 30
0.0
 10
18.970950
 20
5.518942
 30
0.0
 10
19.049909
 20
5.502602
 30
0.0
 10
19.125321
 20
5.483744
 30
0.0
 10
19.197186
 20
5.462371
 30
0.0
 10
19.265506
 20
5.438481
 30
0.0
 10
19.330279
 20
5.412073
 30
0.0
 10
19.391506
 20
5.383150
 30
0.0
 10
19.449186
 20
5.351709
 30
0.0
 10
19.503321
 20
5.317750
 30
0.0
 10
19.553909
 20
5.281272
 30
0.0
 10
19.600951
 20
5.242275
 30
0.0
 10
19.644804
 20
5.200495
 30
0.0
 10
19.685829
 20
5.155564
 30
0.0
 10
19.724024
 20
5.107481
 30
0.0
 10
19.759390
 20
5.056249
 30
0.0
 10
19.791927
 20
5.001868
 30
0.0
 10
19.821635
 20
4.944338
 30
0.0
 10
19.848514
 20
4.883662
 30
0.0
 10
19.872562
 20
4.819838
 30
0.0
 10
19.893782
 20
4.752869
 30
0.0
 10
19.912172
 20
4.682754
 30
0.0
 10
19.927733
 20
4.609496
 30
0.0
 10
19.940464
 20
4.533094
 30
0.0
 10
19.950368
 20
4.453550
 30
0.0
 10
19.957440
 20
4.370864
 30
0.0
 10
19.961685
 20
4.285036
 30
0.0
 10
19.963096
 20
4.196069
 30
0.0
 10
19.963096
 20
4.088530
 30
0.0
 10
19.963096
 20
3.980992
 30
0.0
 10
19.963096
 20
3.873453
 30
0.0
 10
19.963096
 20
3.765914
 30
0.0
 10
19.963096
 20
3.658376
 30
0.0
 10
19.963096
 20
3.550837
 30
0.0
 10
19.963096
 20
3.443298
 30
0.0
 10
19.963096
 20
3.335760
 30
0.0
 10
19.963096
 20
3.228221
 30
0.0
 10
19.963096
 20
3.120683
 30
0.0
 10
19.963096
 20
3.013144
 30
0.0
 10
19.963096
 20
2.905605
 30
0.0
 10
19.963096
 20
2.798066
 30
0.0
 10
19.963096
 20
2.690527
 30
0.0
 10
19.963096
 20
2.582989
 30
0.0
 10
19.963088
 20
2.475508
 30
0.0
  0
SPLINE
  5
12a
100
AcDbEntity
  8
0
 62
7
100
AcDbSpline
 70
8
 71
3
 72
8
 73
4
 74
0
 40
0
 40
0
 40
0
 40
0
 40
1
 40
1
 40
1
 40
1
 10
22.464779
 20
4.863924
 30
0.0
 10
22.258349
 20
4.863924
 30
0.0
 10
22.099874
 20
4.788132
 30
0.0
 10
21.989631
 20
4.636547
 30
0.0
  0
SPLINE
  5
12b
100
AcDbEntity
  8
0
 62
7
100
AcDbSpline
 70
8
 71
3
 72
8
 73
4
 74
0
 40
0
 40
0
 40
0
 40
0
 40
1
 40
1
 40
1
 40
1
 10
21.989631
 20
4.636547
 30
0.0
 10
21.879112
 20
4.484687
 30
0.0
 10
21.823991
 20
4.266131
 30
0.0
 10
21.823991
 20
3.980877
 30
0.0
  0
SPLINE
  5
12c
100
AcDbEntity
  8
0
 62
7
100
AcDbSpline
 70
8
 71
3
 72
8
 73
4
 74
0
 40
0
 40
0
 40
0
 40
0
 40
1
 40
1
 40
1
 40
1
 10
21.823991
 20
3.980877
 30
0.0
 10
21.823991
 20
3.695347
 30
0.0
 10
21.879112
 20
3.476790
 30
0.0
 10
21.989631
 20
3.324931
 30
0.0
  0
SPLINE
  5
12d
100
AcDbEntity
  8
0
 62
7
100
AcDbSpline
 70
8
 71
3
 72
8
 73
4
 74
0
 40
0
 40
0
 40
0
 40
0
 40
1
 40
1
 40
1
 40
1
 10
21.989631
 20
3.324931
 30
0.0
 10
22.099874
 20
3.173346
 30
0.0
 10
22.258349
 20
3.097554
 30
0.0
 10
22.464779
 20
3.097554
 30
0.0
  0
SPLINE
  5
12e
100
AcDbEntity
  8
0
 62
7
100
AcDbSpline
 70
8
 71
3
 72
8
 73
4
 74
0
 40
0
 40
0
 40
0
 40
0
 40
1
 40
1
 40
1
 40
1
 10
22.464779
 20
3.097554
 30
0.0
 10
22.671209
 20
3.097554
 30
0.0
 10
22.828856
 20
3.172795
 30
0.0
 10
22.937446
 20
3.323828
 30
0.0
  0
SPLINE
  5
12f
100
AcDbEntity
  8
0
 62
7
100
AcDbSpline
 70
8
 71
3
 72
8
 73
4
 74
0
 40
0
 40
0
 40
0
 40
0
 40
1
 40
1
 40
1
 40
1
 10
22.937446
 20
3.323828
 30
0.0
 10
23.046035
 20
3.474585
 30
0.0
 10
23.100330
 20
3.693418
 30
0.0
 10
23.100330
 20
3.980877
 30
0.0
  0
SPLINE
  5
130
100
AcDbEntity
  8
0
 62
7
100
AcDbSpline
 70
8
 71
3
 72
8
 73
4
 74
0
 40
0
 40
0
 40
0
 40
0
 40
1
 40
1
 40
1
 40
1
 10
23.100330
 20
3.980877
 30
0.0
 10
23.100330
 20
4.268060
 30
0.0
 10
23.046035
 20
4.487168
 30
0.0
 10
22.937446
 20
4.637925
 30
0.0
  0
SPLINE
  5
131
100
AcDbEntity
  8
0
 62
7
100
AcDbSpline
 70
8
 71
3
 72
8
 73
4
 74
0
 40
0
 40
0
 40
0
 40
0
 40
1
 40
1
 40
1
 40
1
 10
22.937446
 20
4.637925
 30
0.0
 10
22.828856
 20
4.788683
 30
0.0
 10
22.671209
 20
4.863924
 30
0.0
 10
22.464779
 20
4.863924
 30
0.0
  0
LWPOLYLINE
  5
132
100
AcDbEntity
  8
0
 62
7
100
AcDbPolyline
 90
210
 70
0
 10
23.738637
 20
2.840412
 30
0.0
 10
23.693058
 20
2.786746
 30
0.0
 10
23.645929
 20
2.736543
 30
0.0
 10
23.597249
 20
2.689803
 30
0.0
 10
23.547017
 20
2.646521
 30
0.0
 10
23.495233
 20
2.606705
 30
0.0
 10
23.441897
 20
2.570352
 30
0.0
 10
23.387008
 20
2.537459
 30
0.0
 10
23.330565
 20
2.508029
 30
0.0
 10
23.272570
 20
2.482064
 30
0.0
 10
23.213020
 20
2.459571
 30
0.0
 10
23.151917
 20
2.440521
 30
0.0
 10
23.089258
 20
2.424943
 30
0.0
 10
23.025044
 20
2.412835
 30
0.0
 10
22.959275
 20
2.404171
 30
0.0
 10
22.891950
 20
2.398978
 30
0.0
 10
22.823069
 20
2.397285
 30
0.0
 10
22.783972
 20
2.397849
 30
0.0
 10
22.745439
 20
2.399260
 30
0.0
 10
22.707469
 20
2.401800
 30
0.0
 10
22.670063
 20
2.405244
 30
0.0
 10
22.633223
 20
2.409646
 30
0.0
 10
22.596949
 20
2.415037
 30
0.0
 10
22.561241
 20
2.421415
 30
0.0
 10
22.526101
 20
2.428753
 30
0.0
 10
22.491530
 20
2.437078
 30
0.0
 10
22.457528
 20
2.446392
 30
0.0
 10
22.424096
 20
2.456693
 30
0.0
 10
22.391235
 20
2.467953
 30
0.0
 10
22.358945
 20
2.480202
 30
0.0
 10
22.327228
 20
2.493410
 30
0.0
 10
22.296084
 20
2.507606
 30
0.0
 10
22.265514
 20
2.522761
 30
0.0
 10
22.235400
 20
2.538960
 30
0.0
 10
22.205621
 20
2.556232
 30
0.0
 10
22.176179
 20
2.574577
 30
0.0
 10
22.147072
 20
2.594022
 30
0.0
 10
22.118301
 20
2.614540
 30
0.0
 10
22.089866
 20
2.636130
 30
0.0
 10
22.061768
 20
2.658820
 30
0.0
 10
22.034006
 20
2.682583
 30
0.0
 10
22.006579
 20
2.707447
 30
0.0
 10
21.979489
 20
2.733389
 30
0.0
 10
21.952734
 20
2.760417
 30
0.0
 10
21.926315
 20
2.788535
 30
0.0
 10
21.900232
 20
2.817740
 30
0.0
 10
21.874485
 20
2.848035
 30
0.0
 10
21.849074
 20
2.879420
 30
0.0
 10
21.823999
 20
2.911895
 30
0.0
 10
21.823999
 20
2.812918
 30
0.0
 10
21.823999
 20
2.713940
 30
0.0
 10
21.823999
 20
2.614963
 30
0.0
 10
21.823999
 20
2.515985
 30
0.0
 10
21.823999
 20
2.417009
 30
0.0
 10
21.823999
 20
2.318031
 30
0.0
 10
21.823999
 20
2.219053
 30
0.0
 10
21.823999
 20
2.120075
 30
0.0
 10
21.823999
 20
2.021097
 30
0.0
 10
21.823999
 20
1.922121
 30
0.0
 10
21.823999
 20
1.823143
 30
0.0
 10
21.823999
 20
1.724165
 30
0.0
 10
21.823999
 20
1.625187
 30
0.0
 10
21.823999
 20
1.526209
 30
0.0
 10
21.823999
 20
1.427234
 30
0.0
 10
21.823999
 20
1.328255
 30
0.0
 10
21.763744
 20
1.328255
 30
0.0
 10
21.703489
 20
1.328255
 30
0.0
 10
21.643234
 20
1.328255
 30
0.0
 10
21.582980
 20
1.328255
 30
0.0
 10
21.522725
 20
1.328255
 30
0.0
 10
21.462470
 20
1.328255
 30
0.0
 10
21.402216
 20
1.328255
 30
0.0
 10
21.341961
 20
1.328255
 30
0.0
 10
21.281706
 20
1.328255
 30
0.0
 10
21.221451
 20
1.328255
 30
0.0
 10
21.161197
 20
1.328255
 30
0.0
 10
21.100942
 20
1.328255
 30
0.0
 10
21.040687
 20
1.328255
 30
0.0
 10
20.980432
 20
1.328255
 30
0.0
 10
20.920178
 20
1.328255
 30
0.0
 10
20.859923
 20
1.328255
 30
0.0
 10
20.859923
 20
1.588464
 30
0.0
 10
20.859923
 20
1.848670
 30
0.0
 10
20.859923
 20
2.108879
 30
0.0
 10
20.859923
 20
2.369088
 30
0.0
 10
20.859923
 20
2.629294
 30
0.0
 10
20.859923
 20
2.889502
 30
0.0
 10
20.859923
 20
3.149710
 30
0.0
 10
20.859923
 20
3.409919
 30
0.0
 10
20.859923
 20
3.670127
 30
0.0
 10
20.859923
 20
3.930335
 30
0.0
 10
20.859923
 20
4.190543
 30
0.0
 10
20.859923
 20
4.450751
 30
0.0
 10
20.859923
 20
4.710959
 30
0.0
 10
20.859923
 20
4.971167
 30
0.0
 10
20.859923
 20
5.231375
 30
0.0
 10
20.859923
 20
5.491583
 30
0.0
 10
20.920178
 20
5.491583
 30
0.0
 10
20.980432
 20
5.491583
 30
0.0
 10
21.040687
 20
5.491583
 30
0.0
 10
21.100942
 20
5.491583
 30
0.0
 10
21.161197
 20
5.491583
 30
0.0
 10
21.221451
 20
5.491583
 30
0.0
 10
21.281706
 20
5.491583
 30
0.0
 10
21.341961
 20
5.491583
 30
0.0
 10
21.402216
 20
5.491583
 30
0.0
 10
21.462470
 20
5.491583
 30
0.0
 10
21.522725
 20
5.491583
 30
0.0
 10
21.582980
 20
5.491583
 30
0.0
 10
21.643234
 20
5.491583
 30
0.0
 10
21.703489
 20
5.491583
 30
0.0
 10
21.763744
 20
5.491583
 30
0.0
 10
21.823999
 20
5.491583
 30
0.0
 10
21.823999
 20
5.463987
 30
0.0
 10
21.823999
 20
5.436392
 30
0.0
 10
21.823999
 20
5.408796
 30
0.0
 10
21.823999
 20
5.381200
 30
0.0
 10
21.823999
 20
5.353604
 30
0.0
 10
21.823999
 20
5.326009
 30
0.0
 10
21.823999
 20
5.298413
 30
0.0
 10
21.823999
 20
5.270817
 30
0.0
 10
21.823999
 20
5.243222
 30
0.0
 10
21.823999
 20
5.215626
 30
0.0
 10
21.823999
 20
5.188030
 30
0.0
 10
21.823999
 20
5.160435
 30
0.0
 10
21.823999
 20
5.132839
 30
0.0
 10
21.823999
 20
5.105243
 30
0.0
 10
21.823999
 20
5.077648
 30
0.0
 10
21.823999
 20
5.050052
 30
0.0
 10
21.849074
 20
5.082482
 30
0.0
 10
21.874485
 20
5.113833
 30
0.0
 10
21.900232
 20
5.144104
 30
0.0
 10
21.926315
 20
5.173296
 30
0.0
 10
21.952734
 20
5.201408
 30
0.0
 10
21.979489
 20
5.228439
 30
0.0
 10
22.006579
 20
5.254390
 30
0.0
 10
22.034006
 20
5.279256
 30
0.0
 10
22.061768
 20
5.303042
 30
0.0
 10
22.089866
 20
5.325744
 30
0.0
 10
22.118301
 20
5.347365
 30
0.0
 10
22.147072
 20
5.367902
 30
0.0
 10
22.176179
 20
5.387356
 30
0.0
 10
22.205621
 20
5.405726
 30
0.0
 10
22.235400
 20
5.423012
 30
0.0
 10
22.265514
 20
5.439211
 30
0.0
 10
22.296084
 20
5.454333
 30
0.0
 10
22.327228
 20
5.468486
 30
0.0
 10
22.358945
 20
5.481666
 30
0.0
 10
22.391235
 20
5.493875
 30
0.0
 10
22.424096
 20
5.505113
 30
0.0
 10
22.457528
 20
5.515377
 30
0.0
 10
22.491530
 20
5.524668
 30
0.0
 10
22.526101
 20
5.532985
 30
0.0
 10
22.561241
 20
5.540326
 30
0.0
 10
22.596949
 20
5.546690
 30
0.0
 10
22.633223
 20
5.552078
 30
0.0
 10
22.670063
 20
5.556489
 30
0.0
 10
22.707469
 20
5.559920
 30
0.0
 10
22.745439
 20
5.562376
 30
0.0
 10
22.783972
 20
5.563843
 30
0.0
 10
22.823069
 20
5.564323
 30
0.0
 10
22.891950
 20
5.562602
 30
0.0
 10
22.959275
 20
5.557409
 30
0.0
 10
23.025044
 20
5.548756
 30
0.0
 10
23.089258
 20
5.536640
 30
0.0
 10
23.151917
 20
5.521064
 30
0.0
 10
23.213020
 20
5.502028
 30
0.0
 10
23.272570
 20
5.479532
 30
0.0
 10
23.330565
 20
5.453576
 30
0.0
 10
23.387008
 20
5.424161
 30
0.0
 10
23.441897
 20
5.391287
 30
0.0
 10
23.495233
 20
5.354955
 30
0.0
 10
23.547017
 20
5.315165
 30
0.0
 10
23.597249
 20
5.271918
 30
0.0
 10
23.645929
 20
5.225213
 30
0.0
 10
23.693058
 20
5.175052
 30
0.0
 10
23.738637
 20
5.121435
 30
0.0
 10
23.781990
 20
5.065046
 30
0.0
 10
23.822547
 20
5.006674
 30
0.0
 10
23.860306
 20
4.946317
 30
0.0
 10
23.895268
 20
4.883977
 30
0.0
 10
23.927434
 20
4.819652
 30
0.0
 10
23.956802
 20
4.753342
 30
0.0
 10
23.983373
 20
4.685046
 30
0.0
 10
24.007148
 20
4.614764
 30
0.0
 10
24.028125
 20
4.542496
 30
0.0
 10
24.046306
 20
4.468242
 30
0.0
 10
24.061690
 20
4.392000
 30
0.0
 10
24.074277
 20
4.313771
 30
0.0
 10
24.084067
 20
4.233553
 30
0.0
 10
24.091061
 20
4.151348
 30
0.0
 10
24.095258
 20
4.067154
 30
0.0
 10
24.096669
 20
3.980970
 30
0.0
 10
24.095258
 20
3.894738
 30
0.0
 10
24.091061
 20
3.810502
 30
0.0
 10
24.084067
 20
3.728261
 30
0.0
 10
24.074277
 20
3.648015
 30
0.0
 10
24.061690
 20
3.569763
 30
0.0
 10
24.046306
 20
3.493505
 30
0.0
 10
24.028125
 20
3.419240
 30
0.0
 10
24.007148
 20
3.346969
 30
0.0
 10
23.983373
 20
3.276691
 30
0.0
 10
23.956802
 20
3.208405
 30
0.0
 10
23.927434
 20
3.142111
 30
0.0
 10
23.895268
 20
3.077808
 30
0.0
 10
23.860306
 20
3.015497
 30
0.0
 10
23.822547
 20
2.955176
 30
0.0
 10
23.781990
 20
2.896846
 30
0.0
 10
23.738637
 20
2.840506
 30
0.0
 10
23.738637
 20
2.840412
 30
0.0
  0
LWPOLYLINE
  5
133
100
AcDbEntity
  8
0
 62
7
100
AcDbPolyline
 90
2
 70
0
 10
22.464779
 20
4.863924
 30
0.0
 10
22.464779
 20
4.863924
 30
0.0
  0
ENDSEC
  0
SECTION
  2
OBJECTS
  0
DICTIONARY
  5
C
330
0
100
AcDbDictionary
  3
ACAD_GROUP
350
D
  3
ACAD_MLINESTYLE
350
17
  0
DICTIONARY
  5
D
330
C
100
AcDbDictionary
  0
DICTIONARY
  5
1A
330
C
100
AcDbDictionary
  0
DICTIONARY
  5
17
330
C
100
AcDbDictionary
  3
STANDARD
350
18
  0
DICTIONARY
  5
19
330
C
100
AcDbDictionary
  0
ENDSEC
  0
EOF
